<?xml version="1.0" encoding="UTF-8"?>
<!DOCTYPE svg PUBLIC "-//W3C//DTD SVG 1.1//EN"
    "http://www.w3.org/Graphics/SVG/1.1/DTD/svg11.dtd"><svg xmlns="http://www.w3.org/2000/svg" height="2474.5301" stroke-opacity="1" viewBox="0 0 1025 2475" font-size="1" width="1024.7239" xmlns:xlink="http://www.w3.org/1999/xlink" stroke="rgb(0,0,0)" version="1.1"><defs></defs><defs><linearGradient x2="67.2562" y1="0.0000" gradientUnits="userSpaceOnUse" spreadMethod="pad" gradientTransform="matrix(3.7795,-0.0000,0.0000,-3.7795,512.3619,2370.2742)" id="gradient0" y2="0.0000" x1="-67.2562"><stop stop-opacity="1.0000" offset="0.0000" stop-color="rgb(128,128,128)"/><stop stop-opacity="1.0000" offset="0.5000" stop-color="rgb(255,255,255)"/><stop stop-opacity="1.0000" offset="1.0000" stop-color="rgb(128,128,128)"/></linearGradient></defs><g stroke-linejoin="miter" stroke-opacity="1.0" fill-opacity="1" stroke="rgb(0,0,0)" stroke-width="0.37795275590551186" fill="url(#gradient0)" stroke-linecap="butt" stroke-miterlimit="10.0"><path d="M 3.9685,2320.5717 c 0.0000,-0.9433 0.0818,-1.8980 0.2505 -2.8553c 18.3275,-103.9404 36.6550,-207.8809 54.9825 -311.8213c 1.3801,-7.8274 8.1810,-13.5339 16.1291 -13.5339c 145.6771,-0.0000 291.3541,-0.0000 437.0312 -0.0000c 145.6771,-0.0000 291.3542,-0.0000 437.0312 -0.0000c 7.9481,-0.0000 14.7490,5.7066 16.1291 13.5339c 18.3275,103.9404 36.6550,207.8809 54.9825 311.8213c 0.1688,0.9573 0.2505,1.9119 0.2505 2.8553c 0.0000,6.9808 -4.4785,13.3431 -11.3196 15.5654c -137.1122,44.5411 -274.2244,89.0821 -411.3366 133.6233c -1.6342,0.5309 -3.3418,0.8013 -5.0601 0.8013c -26.8924,-0.0000 -53.7847,-0.0000 -80.6771 -0.0000c -26.8924,-0.0000 -53.7847,-0.0000 -80.6771 -0.0000c -1.7183,-0.0000 -3.4259,-0.2704 -5.0601 -0.8013c -137.1122,-44.5411 -274.2244,-89.0822 -411.3366 -133.6233c -6.8411,-2.2223 -11.3196,-8.5846 -11.3196 -15.5654ZM 18.4584,2316.7809 c 0.0000,3.1310 2.5382,5.6693 5.6693 5.6693c 3.1311,-0.0000 5.6693,-2.5382 5.6693 -5.6693c 0.0000,-3.1311 -2.5382,-5.6693 -5.6693 -5.6693c -3.1311,-0.0000 -5.6693,2.5382 -5.6693 5.6693ZM 73.4410,2012.5186 c 0.0000,3.1310 2.5382,5.6693 5.6693 5.6693c 3.1310,-0.0000 5.6693,-2.5382 5.6693 -5.6693c 0.0000,-3.1311 -2.5382,-5.6693 -5.6693 -5.6693c -3.1311,-0.0000 -5.6693,2.5382 -5.6693 5.6693ZM 426.0155,2450.4041 c 0.0000,3.1311 2.5382,5.6693 5.6693 5.6693c 3.1311,-0.0000 5.6693,-2.5382 5.6693 -5.6693c 0.0000,-3.1311 -2.5382,-5.6693 -5.6693 -5.6693c -3.1311,-0.0000 -5.6693,2.5382 -5.6693 5.6693ZM 431.1021,2012.5186 c 0.0000,3.1310 2.5382,5.6693 5.6693 5.6693c 3.1311,-0.0000 5.6693,-2.5382 5.6693 -5.6693c 0.0000,-3.1311 -2.5382,-5.6693 -5.6693 -5.6693c -3.1311,-0.0000 -5.6693,2.5382 -5.6693 5.6693ZM 582.2832,2012.5186 c 0.0000,3.1310 2.5382,5.6693 5.6693 5.6693c 3.1311,-0.0000 5.6693,-2.5382 5.6693 -5.6693c 0.0000,-3.1311 -2.5382,-5.6693 -5.6693 -5.6693c -3.1311,-0.0000 -5.6693,2.5382 -5.6693 5.6693ZM 587.3697,2450.4041 c 0.0000,3.1311 2.5382,5.6693 5.6693 5.6693c 3.1311,-0.0000 5.6693,-2.5382 5.6693 -5.6693c 0.0000,-3.1311 -2.5382,-5.6693 -5.6693 -5.6693c -3.1311,-0.0000 -5.6693,2.5382 -5.6693 5.6693ZM 939.9443,2012.5186 c 0.0000,3.1310 2.5382,5.6693 5.6693 5.6693c 3.1311,-0.0000 5.6693,-2.5382 5.6693 -5.6693c 0.0000,-3.1311 -2.5382,-5.6693 -5.6693 -5.6693c -3.1310,-0.0000 -5.6693,2.5382 -5.6693 5.6693ZM 994.9268,2316.7809 c 0.0000,3.1310 2.5382,5.6693 5.6693 5.6693c 3.1311,-0.0000 5.6693,-2.5382 5.6693 -5.6693c 0.0000,-3.1311 -2.5382,-5.6693 -5.6693 -5.6693c -3.1311,-0.0000 -5.6693,2.5382 -5.6693 5.6693Z"/></g><g stroke-linejoin="miter" stroke-opacity="1.0" fill-opacity="0.5" stroke="rgb(0,0,0)" stroke-width="0.37795275590551186" fill="rgb(255,255,0)" stroke-linecap="butt" stroke-miterlimit="10.0"><path d="M 3.9685,1823.4735 c 0.0000,-0.9434 0.0818,-1.8980 0.2505 -2.8553c 18.3275,-103.9404 36.6550,-207.8809 54.9825 -311.8213c 1.3802,-7.8274 8.1810,-13.5340 16.1291 -13.5340c 133.0786,-0.0000 266.1572,-0.0000 399.2359 -0.0000c 9.4488,-0.0000 18.8977,-0.0000 28.3465 -0.0000c 1.2598,-0.0000 2.5197,-0.0000 3.7795 -0.0000c 0.0000,1.2598 0.0000,2.5197 0.0000 3.7795c -1.2598,-0.0000 -2.5197,-0.0000 -3.7795 -0.0000c 0.0000,0.3376 0.0000,0.6752 0.0000 1.0128c 0.0000,0.9223 0.0000,1.8445 0.0000 2.7668c 1.2598,-0.0000 2.5197,-0.0000 3.7795 -0.0000c 0.0000,1.2598 0.0000,2.5197 0.0000 3.7795c -1.2598,-0.0000 -2.5197,-0.0000 -3.7795 -0.0000c 0.0000,0.3376 0.0000,0.6752 0.0000 1.0128c 0.0000,0.9223 0.0000,1.8445 0.0000 2.7668c 1.2598,-0.0000 2.5197,-0.0000 3.7795 -0.0000c 0.0000,1.2598 0.0000,2.5197 0.0000 3.7795c -1.2598,-0.0000 -2.5197,-0.0000 -3.7795 -0.0000c 0.0000,0.3375 0.0000,0.6751 0.0000 1.0127c 0.0000,0.9223 0.0000,1.8445 0.0000 2.7668c 1.2598,-0.0000 2.5197,-0.0000 3.7795 -0.0000c 0.0000,1.2598 0.0000,2.5197 0.0000 3.7795c -1.2598,-0.0000 -2.5197,-0.0000 -3.7795 -0.0000c 0.0000,0.3375 0.0000,0.6751 0.0000 1.0127c 0.0000,0.9223 0.0000,1.8445 0.0000 2.7668c 1.2598,-0.0000 2.5197,-0.0000 3.7795 -0.0000c 0.0000,0.6299 0.0000,1.2598 0.0000 1.8898c 3.7795,-0.0000 7.5591,-0.0000 11.3386 -0.0000c 0.0000,-0.6299 0.0000,-1.2598 0.0000 -1.8898c 1.2598,-0.0000 2.5197,-0.0000 3.7795 -0.0000c 0.0000,-1.2598 0.0000,-2.5197 0.0000 -3.7795c -1.2598,-0.0000 -2.5197,-0.0000 -3.7795 -0.0000c 0.0000,-1.2598 0.0000,-2.5197 0.0000 -3.7795c 1.2598,-0.0000 2.5197,-0.0000 3.7795 -0.0000c 0.0000,-1.2598 0.0000,-2.5197 0.0000 -3.7795c -1.2598,-0.0000 -2.5197,-0.0000 -3.7795 -0.0000c 0.0000,-1.2598 0.0000,-2.5197 0.0000 -3.7795c 1.2598,-0.0000 2.5197,-0.0000 3.7795 -0.0000c 0.0000,-1.2598 0.0000,-2.5197 0.0000 -3.7796c -1.2598,-0.0000 -2.5197,-0.0000 -3.7795 -0.0000c 0.0000,-1.2598 0.0000,-2.5197 0.0000 -3.7795c 1.2598,-0.0000 2.5197,-0.0000 3.7795 -0.0000c 0.0000,-1.2598 0.0000,-2.5197 0.0000 -3.7795c -1.2598,-0.0000 -2.5197,-0.0000 -3.7795 -0.0000c 0.0000,-1.2598 0.0000,-2.5197 0.0000 -3.7795c 1.2598,-0.0000 2.5197,-0.0000 3.7795 -0.0000c 9.4488,-0.0000 18.8977,-0.0000 28.3465 -0.0000c 133.0786,-0.0000 266.1573,-0.0000 399.2359 -0.0000c 7.9481,-0.0000 14.7490,5.7066 16.1291 13.5340c 18.3275,103.9404 36.6550,207.8809 54.9825 311.8213c 0.1688,0.9573 0.2505,1.9119 0.2505 2.8553c 0.0000,6.9808 -4.4785,13.3431 -11.3196 15.5654c -137.1122,44.5411 -274.2244,89.0821 -411.3366 133.6232c -1.6342,0.5309 -3.3419,0.8013 -5.0601 0.8013c -26.8924,-0.0000 -53.7847,-0.0000 -80.6771 -0.0000c -26.8924,-0.0000 -53.7847,-0.0000 -80.6771 -0.0000c -1.7183,-0.0000 -3.4259,-0.2705 -5.0601 -0.8013c -137.1122,-44.5411 -274.2244,-89.0821 -411.3366 -133.6232c -6.8411,-2.2224 -11.3196,-8.5846 -11.3196 -15.5654ZM 18.4584,1819.6827 c 0.0000,3.1311 2.5382,5.6693 5.6693 5.6693c 3.1311,-0.0000 5.6693,-2.5382 5.6693 -5.6693c 0.0000,-3.1311 -2.5382,-5.6693 -5.6693 -5.6693c -3.1311,-0.0000 -5.6693,2.5382 -5.6693 5.6693ZM 33.3532,1806.1483 c 4.3181,2.9491 7.1525,7.9107 7.1525 13.5344c 0.0000,1.9126 -0.3279,3.7488 -0.9304 5.4551c 1.0530,0.6147 2.2003,1.1190 3.4282 1.4913c 125.8971,38.1779 251.7942,76.3558 377.6912 114.5337c 2.9060,-2.6317 6.7609,-4.2348 10.9902 -4.2348c 6.0622,-0.0000 11.3551,3.2936 14.1869 8.1890c 22.1634,-0.0000 44.3267,-0.0000 66.4902 -0.0000c 22.1634,-0.0000 44.3268,-0.0000 66.4902 -0.0000c 2.8318,-4.8954 8.1247,-8.1890 14.1869 -8.1890c 4.2293,-0.0000 8.0842,1.6031 10.9902 4.2348c 125.8971,-38.1779 251.7942,-76.3558 377.6912 -114.5337c 1.2279,-0.3723 2.3752,-0.8766 3.4282 -1.4913c -0.6026,-1.7063 -0.9304,-3.5425 -0.9304 -5.4551c 0.0000,-5.6237 2.8344,-10.5853 7.1525 -13.5344c -17.0384,-90.2032 -34.0768,-180.4063 -51.1152 -270.6095c -0.4039,-2.1381 -1.2993,-4.0968 -2.5662 -5.7817c -1.9268,-1.0673 -3.6157,-2.5117 -4.9671 -4.2338c -2.2793,-1.2222 -4.9134,-1.9139 -7.6965 -1.9139c -107.6288,-0.0000 -215.2576,-0.0000 -322.8863 -0.0000c -2.8318,4.8954 -8.1246,8.1889 -14.1868 8.1889c -6.0622,-0.0000 -11.3550,-3.2936 -14.1868 -8.1889c -5.3498,-0.0000 -10.6996,-0.0000 -16.0494 -0.0000c 0.0000,3.1496 0.0000,6.2992 0.0000 9.4488c 0.0000,4.1747 -3.3843,7.5591 -7.5590 7.5591c -25.1969,-0.0000 -50.3937,-0.0000 -75.5906 -0.0000c -4.1747,-0.0000 -7.5590,-3.3843 -7.5590 -7.5591c 0.0000,-1.3775 0.0000,-2.7551 0.0000 -4.1326c 0.0000,-1.7721 0.0000,-3.5442 0.0000 -5.3162c -5.3498,-0.0000 -10.6996,-0.0000 -16.0494 -0.0000c -2.8318,4.8954 -8.1247,8.1889 -14.1868 8.1889c -6.0622,-0.0000 -11.3551,-3.2936 -14.1868 -8.1889c -107.6288,-0.0000 -215.2576,-0.0000 -322.8863 -0.0000c -2.7831,-0.0000 -5.4171,0.6917 -7.6964 1.9139c -1.3514,1.7220 -3.0403,3.1664 -4.9671 4.2338c -1.2669,1.6850 -2.1624,3.6437 -2.5662 5.7818c -17.0385,90.2032 -34.0768,180.4063 -51.1152 270.6095ZM 73.4410,1515.4204 c 0.0000,3.1311 2.5382,5.6693 5.6693 5.6693c 3.1311,-0.0000 5.6693,-2.5382 5.6693 -5.6693c 0.0000,-3.1311 -2.5382,-5.6693 -5.6693 -5.6693c -3.1311,-0.0000 -5.6693,2.5382 -5.6693 5.6693ZM 426.0155,1953.3060 c 0.0000,3.1311 2.5382,5.6693 5.6693 5.6693c 3.1311,-0.0000 5.6693,-2.5382 5.6693 -5.6693c 0.0000,-3.1311 -2.5382,-5.6693 -5.6693 -5.6693c -3.1311,-0.0000 -5.6693,2.5382 -5.6693 5.6693ZM 431.1021,1515.4204 c 0.0000,3.1311 2.5382,5.6693 5.6693 5.6693c 3.1311,-0.0000 5.6693,-2.5382 5.6693 -5.6693c 0.0000,-3.1311 -2.5382,-5.6693 -5.6693 -5.6693c -3.1311,-0.0000 -5.6693,2.5382 -5.6693 5.6693ZM 582.2832,1515.4204 c 0.0000,3.1311 2.5382,5.6693 5.6693 5.6693c 3.1311,-0.0000 5.6693,-2.5382 5.6693 -5.6693c 0.0000,-3.1311 -2.5382,-5.6693 -5.6693 -5.6693c -3.1311,-0.0000 -5.6693,2.5382 -5.6693 5.6693ZM 587.3697,1953.3060 c 0.0000,3.1311 2.5382,5.6693 5.6693 5.6693c 3.1311,-0.0000 5.6693,-2.5382 5.6693 -5.6693c 0.0000,-3.1311 -2.5382,-5.6693 -5.6693 -5.6693c -3.1311,-0.0000 -5.6693,2.5382 -5.6693 5.6693ZM 939.9443,1515.4204 c 0.0000,3.1311 2.5382,5.6693 5.6693 5.6693c 3.1311,-0.0000 5.6693,-2.5382 5.6693 -5.6693c 0.0000,-3.1311 -2.5382,-5.6693 -5.6693 -5.6693c -3.1311,-0.0000 -5.6693,2.5382 -5.6693 5.6693ZM 994.9268,1819.6827 c 0.0000,3.1311 2.5382,5.6693 5.6693 5.6693c 3.1311,-0.0000 5.6693,-2.5382 5.6693 -5.6693c 0.0000,-3.1311 -2.5382,-5.6693 -5.6693 -5.6693c -3.1311,-0.0000 -5.6693,2.5382 -5.6693 5.6693Z"/></g><g stroke-linejoin="miter" stroke-opacity="1.0" fill-opacity="0.5" stroke="rgb(0,0,0)" stroke-width="0.37795275590551186" fill="rgb(255,255,0)" stroke-linecap="butt" stroke-miterlimit="10.0"><path d="M 3.9685,1326.3753 c 0.0000,-0.9434 0.0818,-1.8980 0.2505 -2.8553c 18.3275,-103.9404 36.6550,-207.8809 54.9825 -311.8213c 1.3802,-7.8274 8.1810,-13.5340 16.1291 -13.5340c 133.0786,-0.0000 266.1572,-0.0000 399.2359 -0.0000c 12.5984,-0.0000 25.1969,-0.0000 37.7953 -0.0000c 12.5984,-0.0000 25.1969,-0.0000 37.7953 -0.0000c 133.0786,-0.0000 266.1573,-0.0000 399.2359 -0.0000c 7.9481,-0.0000 14.7490,5.7066 16.1291 13.5340c 18.3275,103.9404 36.6550,207.8809 54.9825 311.8213c 0.1688,0.9573 0.2505,1.9119 0.2505 2.8553c 0.0000,6.9808 -4.4785,13.3431 -11.3196 15.5654c -137.1122,44.5411 -274.2244,89.0821 -411.3366 133.6232c -1.6342,0.5309 -3.3419,0.8013 -5.0601 0.8013c -26.8924,-0.0000 -53.7847,-0.0000 -80.6771 -0.0000c -26.8924,-0.0000 -53.7847,-0.0000 -80.6771 -0.0000c -1.7183,-0.0000 -3.4259,-0.2705 -5.0601 -0.8013c -137.1122,-44.5411 -274.2244,-89.0821 -411.3366 -133.6232c -6.8411,-2.2224 -11.3196,-8.5846 -11.3196 -15.5654ZM 18.4584,1322.5845 c 0.0000,3.1311 2.5382,5.6693 5.6693 5.6693c 3.1311,-0.0000 5.6693,-2.5382 5.6693 -5.6693c 0.0000,-3.1311 -2.5382,-5.6693 -5.6693 -5.6693c -3.1311,-0.0000 -5.6693,2.5382 -5.6693 5.6693ZM 33.3532,1309.0502 c 4.3181,2.9491 7.1525,7.9107 7.1525 13.5344c 0.0000,1.9126 -0.3279,3.7488 -0.9304 5.4551c 1.0530,0.6147 2.2003,1.1190 3.4282 1.4913c 125.8971,38.1779 251.7942,76.3558 377.6912 114.5337c 2.9060,-2.6317 6.7609,-4.2348 10.9902 -4.2348c 6.0622,-0.0000 11.3551,3.2936 14.1869 8.1890c 22.1634,-0.0000 44.3267,-0.0000 66.4902 -0.0000c 22.1634,-0.0000 44.3268,-0.0000 66.4902 -0.0000c 2.8318,-4.8954 8.1247,-8.1890 14.1869 -8.1890c 4.2293,-0.0000 8.0842,1.6031 10.9902 4.2348c 125.8971,-38.1779 251.7942,-76.3558 377.6912 -114.5337c 1.2279,-0.3723 2.3752,-0.8766 3.4282 -1.4913c -0.6026,-1.7063 -0.9304,-3.5425 -0.9304 -5.4551c 0.0000,-5.6237 2.8344,-10.5853 7.1525 -13.5344c -17.0384,-90.2032 -34.0768,-180.4063 -51.1152 -270.6095c -0.4039,-2.1381 -1.2993,-4.0968 -2.5662 -5.7817c -1.9268,-1.0673 -3.6157,-2.5117 -4.9671 -4.2338c -2.2793,-1.2222 -4.9134,-1.9139 -7.6965 -1.9139c -107.6288,-0.0000 -215.2576,-0.0000 -322.8863 -0.0000c -2.8318,4.8954 -8.1246,8.1889 -14.1868 8.1889c -6.0622,-0.0000 -11.3550,-3.2936 -14.1868 -8.1889c -5.3498,-0.0000 -10.6996,-0.0000 -16.0494 -0.0000c 0.0000,3.1496 0.0000,6.2992 0.0000 9.4488c 0.0000,4.1747 -3.3843,7.5591 -7.5590 7.5591c -9.4488,-0.0000 -18.8977,-0.0000 -28.3465 -0.0000c -1.2598,-0.0000 -2.5197,-0.0000 -3.7795 -0.0000c 0.0000,-1.2598 0.0000,-2.5197 0.0000 -3.7795c 1.2598,-0.0000 2.5197,-0.0000 3.7795 -0.0000c 0.0000,-1.2598 0.0000,-2.5197 0.0000 -3.7795c -1.2598,-0.0000 -2.5197,-0.0000 -3.7795 -0.0000c 0.0000,-1.2598 0.0000,-2.5197 0.0000 -3.7795c 1.2598,-0.0000 2.5197,-0.0000 3.7795 -0.0000c 0.0000,-1.2598 0.0000,-2.5197 0.0000 -3.7795c -1.2598,-0.0000 -2.5197,-0.0000 -3.7795 -0.0000c 0.0000,-1.2598 0.0000,-2.5197 0.0000 -3.7795c 1.2598,-0.0000 2.5197,-0.0000 3.7795 -0.0000c 0.0000,-1.2598 0.0000,-2.5197 0.0000 -3.7795c -6.2992,-0.0000 -12.5984,-0.0000 -18.8976 -0.0000c 0.0000,0.3375 0.0000,0.6751 0.0000 1.0127c 0.0000,0.9223 0.0000,1.8445 0.0000 2.7668c 1.2598,-0.0000 2.5197,-0.0000 3.7795 -0.0000c 0.0000,1.2598 0.0000,2.5197 0.0000 3.7795c -1.2598,-0.0000 -2.5197,-0.0000 -3.7795 -0.0000c 0.0000,0.3375 0.0000,0.6751 0.0000 1.0127c 0.0000,0.9223 0.0000,1.8446 0.0000 2.7668c 1.2598,-0.0000 2.5197,-0.0000 3.7795 -0.0000c 0.0000,1.2598 0.0000,2.5197 0.0000 3.7795c -1.2598,-0.0000 -2.5197,-0.0000 -3.7795 -0.0000c 0.0000,0.3376 0.0000,0.6751 0.0000 1.0127c 0.0000,0.9223 0.0000,1.8446 0.0000 2.7668c 1.2598,-0.0000 2.5197,-0.0000 3.7795 -0.0000c 0.0000,1.2598 0.0000,2.5197 0.0000 3.7795c -1.2598,-0.0000 -2.5197,-0.0000 -3.7795 -0.0000c -9.4488,-0.0000 -18.8977,-0.0000 -28.3465 -0.0000c -4.1747,-0.0000 -7.5590,-3.3843 -7.5590 -7.5591c 0.0000,-1.3775 0.0000,-2.7551 0.0000 -4.1326c 0.0000,-1.7721 0.0000,-3.5442 0.0000 -5.3162c -5.3498,-0.0000 -10.6996,-0.0000 -16.0494 -0.0000c -2.8318,4.8954 -8.1247,8.1889 -14.1868 8.1889c -6.0622,-0.0000 -11.3551,-3.2936 -14.1868 -8.1889c -107.6288,-0.0000 -215.2576,-0.0000 -322.8863 -0.0000c -2.7831,-0.0000 -5.4171,0.6917 -7.6964 1.9139c -1.3514,1.7220 -3.0403,3.1664 -4.9671 4.2338c -1.2669,1.6850 -2.1624,3.6437 -2.5662 5.7818c -17.0385,90.2032 -34.0768,180.4063 -51.1152 270.6095ZM 73.4410,1018.3223 c 0.0000,3.1311 2.5382,5.6693 5.6693 5.6693c 3.1311,-0.0000 5.6693,-2.5382 5.6693 -5.6693c 0.0000,-3.1311 -2.5382,-5.6693 -5.6693 -5.6693c -3.1311,-0.0000 -5.6693,2.5382 -5.6693 5.6693ZM 426.0155,1456.2078 c 0.0000,3.1311 2.5382,5.6693 5.6693 5.6693c 3.1311,-0.0000 5.6693,-2.5382 5.6693 -5.6693c 0.0000,-3.1311 -2.5382,-5.6693 -5.6693 -5.6693c -3.1311,-0.0000 -5.6693,2.5382 -5.6693 5.6693ZM 431.1021,1018.3223 c 0.0000,3.1311 2.5382,5.6693 5.6693 5.6693c 3.1311,-0.0000 5.6693,-2.5382 5.6693 -5.6693c 0.0000,-3.1311 -2.5382,-5.6693 -5.6693 -5.6693c -3.1311,-0.0000 -5.6693,2.5382 -5.6693 5.6693ZM 582.2832,1018.3223 c 0.0000,3.1311 2.5382,5.6693 5.6693 5.6693c 3.1311,-0.0000 5.6693,-2.5382 5.6693 -5.6693c 0.0000,-3.1311 -2.5382,-5.6693 -5.6693 -5.6693c -3.1311,-0.0000 -5.6693,2.5382 -5.6693 5.6693ZM 587.3697,1456.2078 c 0.0000,3.1311 2.5382,5.6693 5.6693 5.6693c 3.1311,-0.0000 5.6693,-2.5382 5.6693 -5.6693c 0.0000,-3.1311 -2.5382,-5.6693 -5.6693 -5.6693c -3.1311,-0.0000 -5.6693,2.5382 -5.6693 5.6693ZM 939.9443,1018.3223 c 0.0000,3.1311 2.5382,5.6693 5.6693 5.6693c 3.1311,-0.0000 5.6693,-2.5382 5.6693 -5.6693c 0.0000,-3.1311 -2.5382,-5.6693 -5.6693 -5.6693c -3.1311,-0.0000 -5.6693,2.5382 -5.6693 5.6693ZM 994.9268,1322.5845 c 0.0000,3.1311 2.5382,5.6693 5.6693 5.6693c 3.1311,-0.0000 5.6693,-2.5382 5.6693 -5.6693c 0.0000,-3.1311 -2.5382,-5.6693 -5.6693 -5.6693c -3.1311,-0.0000 -5.6693,2.5382 -5.6693 5.6693Z"/></g><g stroke-linejoin="miter" stroke-opacity="1.0" fill-opacity="0.5" stroke="rgb(0,0,0)" stroke-width="0.37795275590551186" fill="rgb(0,0,0)" stroke-linecap="butt" stroke-miterlimit="10.0"><path d="M 3.9685,829.2772 c 0.0000,-0.9433 0.0818,-1.8980 0.2505 -2.8553c 18.3275,-103.9404 36.6550,-207.8809 54.9825 -311.8213c 1.3801,-7.8274 8.1810,-13.5339 16.1291 -13.5339c 145.6771,-0.0000 291.3541,-0.0000 437.0312 -0.0000c 145.6771,-0.0000 291.3542,-0.0000 437.0312 -0.0000c 7.9481,-0.0000 14.7490,5.7066 16.1291 13.5339c 18.3275,103.9404 36.6550,207.8809 54.9825 311.8213c 0.1688,0.9573 0.2505,1.9119 0.2505 2.8553c 0.0000,6.9808 -4.4785,13.3431 -11.3196 15.5654c -137.1122,44.5411 -274.2244,89.0821 -411.3366 133.6233c -1.6342,0.5309 -3.3418,0.8013 -5.0601 0.8013c -26.8924,-0.0000 -53.7847,-0.0000 -80.6771 -0.0000c -26.8924,-0.0000 -53.7847,-0.0000 -80.6771 -0.0000c -1.7183,-0.0000 -3.4259,-0.2704 -5.0601 -0.8013c -137.1122,-44.5411 -274.2244,-89.0822 -411.3366 -133.6233c -6.8411,-2.2223 -11.3196,-8.5846 -11.3196 -15.5654ZM 18.4584,825.4864 c 0.0000,3.1310 2.5382,5.6693 5.6693 5.6693c 3.1311,-0.0000 5.6693,-2.5382 5.6693 -5.6693c 0.0000,-3.1311 -2.5382,-5.6693 -5.6693 -5.6693c -3.1311,-0.0000 -5.6693,2.5382 -5.6693 5.6693ZM 53.3234,809.5698 c 1.0084,0.1778 2.0169,0.3557 3.0253 0.5335c -0.2145,1.2164 -0.4290,2.4329 -0.6435 3.6493c 17.3326,3.0562 34.6652,6.1124 51.9978 9.1686c 0.2145,-1.2164 0.4290,-2.4329 0.6435 -3.6493c 1.0084,0.1778 2.0169,0.3556 3.0253 0.5334c 0.7657,-4.3426 1.5314,-8.6852 2.2971 -13.0277c -1.0084,-0.1778 -2.0169,-0.3557 -3.0253 -0.5334c 1.0958,-6.2146 2.1916,-12.4291 3.2873 -18.6437c 1.0084,0.1778 2.0169,0.3557 3.0253 0.5334c 0.7657,-4.3426 1.5314,-8.6851 2.2972 -13.0277c -1.0084,-0.1778 -2.0169,-0.3556 -3.0253 -0.5334c 0.2145,-1.2164 0.4290,-2.4329 0.6435 -3.6493c -17.3326,-3.0562 -34.6652,-6.1124 -51.9978 -9.1686c -0.2145,1.2164 -0.4290,2.4329 -0.6435 3.6493c -1.0084,-0.1778 -2.0169,-0.3557 -3.0253 -0.5335c -0.7657,4.3426 -1.5314,8.6852 -2.2971 13.0278c 1.0084,0.1778 2.0169,0.3556 3.0253 0.5334c -1.0958,6.2145 -2.1916,12.4291 -3.2873 18.6437c -1.0084,-0.1778 -2.0169,-0.3556 -3.0253 -0.5334c -0.7657,4.3426 -1.5314,8.6852 -2.2971 13.0277ZM 65.7932,738.8497 c 1.0084,0.1778 2.0169,0.3557 3.0253 0.5334c -0.2145,1.2165 -0.4290,2.4329 -0.6435 3.6493c 17.3326,3.0562 34.6652,6.1124 51.9978 9.1687c 0.2145,-1.2165 0.4290,-2.4329 0.6435 -3.6493c 1.0084,0.1778 2.0169,0.3556 3.0253 0.5334c 0.7657,-4.3426 1.5314,-8.6852 2.2971 -13.0278c -1.0084,-0.1778 -2.0169,-0.3556 -3.0253 -0.5334c 1.0958,-6.2145 2.1916,-12.4291 3.2873 -18.6437c 1.0084,0.1778 2.0169,0.3557 3.0253 0.5334c 0.7657,-4.3426 1.5314,-8.6852 2.2972 -13.0277c -1.0084,-0.1778 -2.0169,-0.3557 -3.0253 -0.5334c 0.2145,-1.2165 0.4290,-2.4329 0.6435 -3.6493c -17.3326,-3.0562 -34.6652,-6.1124 -51.9978 -9.1687c -0.2145,1.2165 -0.4290,2.4329 -0.6435 3.6493c -1.0084,-0.1778 -2.0169,-0.3556 -3.0253 -0.5334c -0.7657,4.3426 -1.5314,8.6852 -2.2971 13.0278c 1.0084,0.1778 2.0169,0.3556 3.0253 0.5334c -1.0958,6.2145 -2.1916,12.4291 -3.2873 18.6437c -1.0084,-0.1778 -2.0169,-0.3557 -3.0253 -0.5334c -0.7657,4.3426 -1.5314,8.6852 -2.2971 13.0277ZM 73.4410,521.2241 c 0.0000,3.1310 2.5382,5.6693 5.6693 5.6693c 3.1310,-0.0000 5.6693,-2.5382 5.6693 -5.6693c 0.0000,-3.1311 -2.5382,-5.6693 -5.6693 -5.6693c -3.1311,-0.0000 -5.6693,2.5382 -5.6693 5.6693ZM 78.2630,668.1297 c 1.0084,0.1778 2.0169,0.3556 3.0253 0.5334c -0.2145,1.2164 -0.4290,2.4329 -0.6435 3.6493c 17.3326,3.0562 34.6652,6.1124 51.9978 9.1686c 0.2145,-1.2164 0.4290,-2.4329 0.6435 -3.6493c 1.0084,0.1778 2.0169,0.3557 3.0253 0.5335c 0.7657,-4.3426 1.5314,-8.6852 2.2971 -13.0278c -1.0084,-0.1778 -2.0169,-0.3556 -3.0253 -0.5334c 1.0958,-6.2145 2.1916,-12.4291 3.2873 -18.6437c 1.0084,0.1778 2.0169,0.3556 3.0253 0.5334c 0.7657,-4.3426 1.5314,-8.6852 2.2971 -13.0278c -1.0084,-0.1778 -2.0169,-0.3556 -3.0253 -0.5334c 0.2145,-1.2164 0.4290,-2.4329 0.6435 -3.6493c -17.3326,-3.0562 -34.6652,-6.1124 -51.9978 -9.1686c -0.2145,1.2164 -0.4290,2.4329 -0.6435 3.6493c -1.0084,-0.1778 -2.0169,-0.3556 -3.0253 -0.5334c -0.7657,4.3426 -1.5314,8.6852 -2.2971 13.0277c 1.0084,0.1778 2.0169,0.3557 3.0253 0.5335c -1.0958,6.2145 -2.1916,12.4291 -3.2874 18.6437c -1.0084,-0.1778 -2.0169,-0.3557 -3.0253 -0.5335c -0.7657,4.3426 -1.5314,8.6852 -2.2972 13.0278ZM 90.7329,597.4097 c 1.0084,0.1778 2.0169,0.3556 3.0253 0.5334c -0.2145,1.2164 -0.4290,2.4329 -0.6435 3.6493c 17.3326,3.0562 34.6652,6.1124 51.9978 9.1686c 0.2145,-1.2164 0.4290,-2.4329 0.6435 -3.6493c 1.0084,0.1778 2.0169,0.3557 3.0253 0.5334c 0.7657,-4.3426 1.5314,-8.6852 2.2971 -13.0277c -1.0084,-0.1778 -2.0169,-0.3557 -3.0253 -0.5334c 1.0958,-6.2146 2.1916,-12.4291 3.2873 -18.6437c 1.0084,0.1778 2.0169,0.3556 3.0253 0.5334c 0.7657,-4.3426 1.5314,-8.6852 2.2971 -13.0278c -1.0084,-0.1778 -2.0169,-0.3556 -3.0253 -0.5334c 0.2145,-1.2164 0.4290,-2.4329 0.6435 -3.6493c -17.3326,-3.0562 -34.6652,-6.1124 -51.9978 -9.1686c -0.2145,1.2164 -0.4290,2.4329 -0.6435 3.6493c -1.0084,-0.1778 -2.0169,-0.3557 -3.0253 -0.5334c -0.7657,4.3426 -1.5314,8.6852 -2.2971 13.0277c 1.0084,0.1778 2.0169,0.3556 3.0253 0.5334c -1.0958,6.2146 -2.1916,12.4291 -3.2873 18.6437c -1.0084,-0.1778 -2.0169,-0.3556 -3.0253 -0.5334c -0.7657,4.3426 -1.5314,8.6852 -2.2972 13.0278ZM 126.0123,810.8733 c 1.0084,0.1778 2.0169,0.3557 3.0253 0.5335c -0.2145,1.2164 -0.4290,2.4329 -0.6435 3.6493c 17.3326,3.0562 34.6652,6.1124 51.9978 9.1686c 0.2145,-1.2164 0.4290,-2.4329 0.6435 -3.6493c 1.0084,0.1778 2.0169,0.3556 3.0253 0.5334c 0.7657,-4.3426 1.5314,-8.6852 2.2972 -13.0277c -1.0084,-0.1778 -2.0169,-0.3557 -3.0253 -0.5335c 1.0958,-6.2145 2.1916,-12.4291 3.2874 -18.6437c 1.0084,0.1778 2.0169,0.3557 3.0253 0.5334c 0.7657,-4.3426 1.5314,-8.6852 2.2971 -13.0277c -1.0084,-0.1778 -2.0169,-0.3557 -3.0253 -0.5334c 0.2145,-1.2164 0.4290,-2.4329 0.6435 -3.6493c -17.3326,-3.0562 -34.6652,-6.1124 -51.9978 -9.1687c -0.2145,1.2165 -0.4290,2.4329 -0.6435 3.6494c -1.0084,-0.1778 -2.0169,-0.3557 -3.0253 -0.5335c -0.7657,4.3426 -1.5314,8.6852 -2.2972 13.0278c 1.0084,0.1778 2.0169,0.3556 3.0253 0.5334c -1.0958,6.2145 -2.1916,12.4291 -3.2874 18.6437c -1.0084,-0.1778 -2.0169,-0.3556 -3.0253 -0.5334c -0.7657,4.3426 -1.5314,8.6852 -2.2972 13.0277ZM 138.4822,740.1533 c 1.0084,0.1778 2.0169,0.3557 3.0253 0.5334c -0.2145,1.2165 -0.4290,2.4329 -0.6435 3.6493c 17.3326,3.0562 34.6652,6.1124 51.9978 9.1687c 0.2145,-1.2165 0.4290,-2.4329 0.6435 -3.6493c 1.0084,0.1778 2.0169,0.3556 3.0253 0.5334c 0.7657,-4.3426 1.5314,-8.6852 2.2972 -13.0278c -1.0084,-0.1778 -2.0169,-0.3556 -3.0253 -0.5334c 1.0958,-6.2145 2.1916,-12.4291 3.2874 -18.6437c 1.0084,0.1778 2.0169,0.3556 3.0253 0.5334c 0.7657,-4.3426 1.5314,-8.6852 2.2971 -13.0277c -1.0084,-0.1778 -2.0169,-0.3557 -3.0253 -0.5334c 0.2145,-1.2165 0.4290,-2.4329 0.6435 -3.6493c -17.3326,-3.0562 -34.6652,-6.1124 -51.9978 -9.1687c -0.2145,1.2165 -0.4290,2.4329 -0.6435 3.6493c -1.0084,-0.1778 -2.0169,-0.3556 -3.0253 -0.5334c -0.7657,4.3426 -1.5314,8.6852 -2.2972 13.0277c 1.0084,0.1778 2.0169,0.3557 3.0253 0.5335c -1.0958,6.2145 -2.1916,12.4291 -3.2874 18.6437c -1.0084,-0.1778 -2.0169,-0.3557 -3.0253 -0.5334c -0.7657,4.3426 -1.5314,8.6852 -2.2971 13.0277ZM 150.9520,669.4332 c 1.0084,0.1778 2.0169,0.3556 3.0253 0.5334c -0.2145,1.2164 -0.4290,2.4329 -0.6435 3.6493c 17.3326,3.0562 34.6652,6.1124 51.9978 9.1686c 0.2145,-1.2164 0.4290,-2.4329 0.6435 -3.6493c 1.0084,0.1778 2.0169,0.3557 3.0253 0.5334c 0.7657,-4.3426 1.5314,-8.6852 2.2972 -13.0277c -1.0084,-0.1778 -2.0169,-0.3556 -3.0253 -0.5334c 1.0958,-6.2145 2.1916,-12.4291 3.2874 -18.6437c 1.0084,0.1778 2.0169,0.3556 3.0253 0.5334c 0.7657,-4.3426 1.5314,-8.6852 2.2971 -13.0278c -1.0084,-0.1778 -2.0169,-0.3556 -3.0253 -0.5334c 0.2145,-1.2164 0.4290,-2.4329 0.6435 -3.6493c -17.3326,-3.0562 -34.6652,-6.1124 -51.9978 -9.1686c -0.2145,1.2164 -0.4290,2.4329 -0.6435 3.6493c -1.0084,-0.1778 -2.0169,-0.3556 -3.0253 -0.5334c -0.7657,4.3426 -1.5314,8.6852 -2.2972 13.0277c 1.0084,0.1778 2.0169,0.3557 3.0253 0.5334c -1.0958,6.2146 -2.1916,12.4291 -3.2874 18.6437c -1.0084,-0.1778 -2.0169,-0.3557 -3.0253 -0.5335c -0.7657,4.3426 -1.5314,8.6852 -2.2972 13.0278ZM 163.4219,598.7132 c 1.0084,0.1778 2.0169,0.3556 3.0253 0.5334c -0.2145,1.2164 -0.4290,2.4329 -0.6435 3.6493c 17.3326,3.0562 34.6652,6.1124 51.9978 9.1686c 0.2145,-1.2164 0.4290,-2.4329 0.6435 -3.6493c 1.0084,0.1778 2.0169,0.3557 3.0253 0.5334c 0.7657,-4.3426 1.5314,-8.6852 2.2972 -13.0277c -1.0084,-0.1778 -2.0169,-0.3557 -3.0253 -0.5334c 1.0958,-6.2146 2.1916,-12.4291 3.2874 -18.6437c 1.0084,0.1778 2.0169,0.3557 3.0253 0.5335c 0.7657,-4.3426 1.5314,-8.6852 2.2972 -13.0278c -1.0084,-0.1778 -2.0169,-0.3556 -3.0253 -0.5334c 0.2145,-1.2164 0.4290,-2.4329 0.6435 -3.6493c -17.3326,-3.0562 -34.6652,-6.1124 -51.9978 -9.1686c -0.2145,1.2164 -0.4290,2.4329 -0.6435 3.6493c -1.0084,-0.1778 -2.0169,-0.3557 -3.0253 -0.5335c -0.7657,4.3426 -1.5314,8.6852 -2.2972 13.0278c 1.0084,0.1778 2.0169,0.3556 3.0253 0.5334c -1.0958,6.2146 -2.1916,12.4291 -3.2874 18.6437c -1.0084,-0.1778 -2.0169,-0.3556 -3.0253 -0.5334c -0.7657,4.3426 -1.5314,8.6852 -2.2971 13.0278ZM 200.0139,804.7326 c 1.0084,0.1778 2.0169,0.3557 3.0253 0.5334c -0.2145,1.2165 -0.4290,2.4329 -0.6435 3.6493c 17.3326,3.0562 34.6652,6.1124 51.9978 9.1687c 0.2145,-1.2165 0.4290,-2.4329 0.6435 -3.6493c 1.0084,0.1778 2.0169,0.3556 3.0253 0.5334c 0.7657,-4.3426 1.5314,-8.6852 2.2971 -13.0278c -1.0084,-0.1778 -2.0169,-0.3556 -3.0253 -0.5334c 1.0958,-6.2145 2.1916,-12.4291 3.2873 -18.6437c 1.0084,0.1778 2.0169,0.3557 3.0253 0.5334c 0.7657,-4.3426 1.5314,-8.6852 2.2971 -13.0277c -1.0084,-0.1778 -2.0169,-0.3557 -3.0253 -0.5334c 0.2145,-1.2165 0.4290,-2.4329 0.6435 -3.6493c -17.3326,-3.0562 -34.6652,-6.1124 -51.9978 -9.1687c -0.2145,1.2165 -0.4290,2.4329 -0.6435 3.6493c -1.0084,-0.1778 -2.0169,-0.3556 -3.0253 -0.5334c -0.7657,4.3426 -1.5314,8.6852 -2.2971 13.0278c 1.0084,0.1778 2.0169,0.3556 3.0253 0.5334c -1.0958,6.2145 -2.1916,12.4291 -3.2873 18.6437c -1.0084,-0.1778 -2.0169,-0.3556 -3.0253 -0.5334c -0.7657,4.3426 -1.5314,8.6852 -2.2972 13.0277ZM 212.4837,734.0126 c 1.0084,0.1778 2.0169,0.3556 3.0253 0.5334c -0.2145,1.2165 -0.4290,2.4329 -0.6435 3.6493c 17.3326,3.0562 34.6652,6.1124 51.9978 9.1686c 0.2145,-1.2164 0.4290,-2.4329 0.6435 -3.6493c 1.0084,0.1778 2.0169,0.3556 3.0253 0.5334c 0.7657,-4.3426 1.5314,-8.6852 2.2971 -13.0278c -1.0084,-0.1778 -2.0169,-0.3556 -3.0253 -0.5334c 1.0958,-6.2145 2.1916,-12.4291 3.2873 -18.6437c 1.0084,0.1778 2.0169,0.3556 3.0253 0.5334c 0.7657,-4.3426 1.5314,-8.6852 2.2971 -13.0277c -1.0084,-0.1778 -2.0169,-0.3557 -3.0253 -0.5335c 0.2145,-1.2164 0.4290,-2.4329 0.6435 -3.6493c -17.3326,-3.0562 -34.6652,-6.1124 -51.9978 -9.1686c -0.2145,1.2164 -0.4290,2.4329 -0.6435 3.6493c -1.0084,-0.1778 -2.0169,-0.3556 -3.0253 -0.5334c -0.7657,4.3426 -1.5314,8.6852 -2.2971 13.0277c 1.0084,0.1778 2.0169,0.3557 3.0253 0.5335c -1.0958,6.2145 -2.1916,12.4291 -3.2874 18.6437c -1.0084,-0.1778 -2.0169,-0.3557 -3.0253 -0.5334c -0.7657,4.3426 -1.5314,8.6852 -2.2972 13.0277ZM 224.9536,663.2925 c 1.0084,0.1778 2.0169,0.3556 3.0253 0.5334c -0.2145,1.2164 -0.4290,2.4329 -0.6435 3.6493c 17.3326,3.0562 34.6652,6.1124 51.9978 9.1686c 0.2145,-1.2164 0.4290,-2.4329 0.6435 -3.6493c 1.0084,0.1778 2.0169,0.3557 3.0253 0.5334c 0.7657,-4.3426 1.5314,-8.6852 2.2971 -13.0277c -1.0084,-0.1778 -2.0169,-0.3557 -3.0253 -0.5334c 1.0958,-6.2146 2.1916,-12.4291 3.2873 -18.6437c 1.0084,0.1778 2.0169,0.3556 3.0253 0.5334c 0.7657,-4.3426 1.5314,-8.6852 2.2971 -13.0278c -1.0084,-0.1778 -2.0169,-0.3556 -3.0253 -0.5334c 0.2145,-1.2164 0.4290,-2.4329 0.6435 -3.6493c -17.3327,-3.0562 -34.6652,-6.1124 -51.9978 -9.1686c -0.2145,1.2164 -0.4290,2.4329 -0.6435 3.6493c -1.0084,-0.1778 -2.0169,-0.3557 -3.0253 -0.5334c -0.7657,4.3426 -1.5314,8.6852 -2.2971 13.0277c 1.0084,0.1778 2.0169,0.3557 3.0253 0.5334c -1.0958,6.2146 -2.1916,12.4291 -3.2873 18.6437c -1.0084,-0.1778 -2.0169,-0.3556 -3.0253 -0.5334c -0.7657,4.3426 -1.5314,8.6852 -2.2972 13.0278ZM 237.4235,592.5725 c 1.0084,0.1778 2.0169,0.3557 3.0253 0.5335c -0.2145,1.2164 -0.4290,2.4329 -0.6435 3.6493c 17.3326,3.0562 34.6652,6.1124 51.9978 9.1686c 0.2145,-1.2164 0.4290,-2.4329 0.6435 -3.6493c 1.0084,0.1778 2.0169,0.3556 3.0253 0.5334c 0.7657,-4.3426 1.5314,-8.6852 2.2971 -13.0277c -1.0084,-0.1778 -2.0169,-0.3557 -3.0253 -0.5334c 1.0958,-6.2146 2.1916,-12.4291 3.2873 -18.6437c 1.0084,0.1778 2.0169,0.3557 3.0253 0.5334c 0.7657,-4.3426 1.5314,-8.6852 2.2971 -13.0277c -1.0084,-0.1778 -2.0169,-0.3556 -3.0253 -0.5334c 0.2145,-1.2165 0.4290,-2.4329 0.6435 -3.6493c -17.3327,-3.0562 -34.6652,-6.1124 -51.9979 -9.1686c -0.2145,1.2164 -0.4289,2.4329 -0.6434 3.6493c -1.0084,-0.1778 -2.0169,-0.3556 -3.0253 -0.5334c -0.7657,4.3426 -1.5314,8.6852 -2.2971 13.0278c 1.0084,0.1778 2.0169,0.3556 3.0253 0.5334c -1.0958,6.2145 -2.1916,12.4291 -3.2874 18.6437c -1.0084,-0.1778 -2.0169,-0.3556 -3.0253 -0.5334c -0.7657,4.3426 -1.5314,8.6852 -2.2972 13.0277ZM 266.7961,839.5351 c 1.0084,0.1778 2.0169,0.3557 3.0253 0.5335c -0.2145,1.2164 -0.4290,2.4329 -0.6435 3.6493c 17.3326,3.0562 34.6652,6.1124 51.9978 9.1687c 0.2145,-1.2165 0.4290,-2.4329 0.6435 -3.6493c 1.0084,0.1778 2.0169,0.3556 3.0253 0.5334c 0.7657,-4.3426 1.5314,-8.6852 2.2971 -13.0277c -1.0084,-0.1778 -2.0169,-0.3557 -3.0253 -0.5335c 1.0958,-6.2145 2.1916,-12.4291 3.2874 -18.6437c 1.0084,0.1778 2.0169,0.3557 3.0253 0.5334c 0.7657,-4.3426 1.5314,-8.6852 2.2971 -13.0277c -1.0084,-0.1778 -2.0169,-0.3557 -3.0253 -0.5334c 0.2145,-1.2165 0.4289,-2.4329 0.6434 -3.6493c -17.3326,-3.0562 -34.6652,-6.1124 -51.9978 -9.1687c -0.2145,1.2165 -0.4290,2.4329 -0.6434 3.6493c -1.0084,-0.1778 -2.0169,-0.3556 -3.0253 -0.5334c -0.7657,4.3426 -1.5314,8.6852 -2.2971 13.0278c 1.0084,0.1778 2.0169,0.3556 3.0253 0.5334c -1.0958,6.2145 -2.1916,12.4291 -3.2874 18.6437c -1.0084,-0.1778 -2.0169,-0.3556 -3.0253 -0.5334c -0.7657,4.3426 -1.5314,8.6852 -2.2972 13.0277ZM 279.2660,768.8151 c 1.0084,0.1778 2.0169,0.3556 3.0253 0.5334c -0.2145,1.2165 -0.4290,2.4329 -0.6435 3.6493c 17.3326,3.0562 34.6652,6.1124 51.9978 9.1687c 0.2145,-1.2165 0.4290,-2.4329 0.6435 -3.6493c 1.0084,0.1778 2.0169,0.3556 3.0253 0.5334c 0.7657,-4.3426 1.5314,-8.6852 2.2972 -13.0278c -1.0084,-0.1778 -2.0169,-0.3556 -3.0253 -0.5334c 1.0958,-6.2145 2.1916,-12.4291 3.2874 -18.6437c 1.0084,0.1778 2.0169,0.3556 3.0253 0.5334c 0.7657,-4.3426 1.5314,-8.6852 2.2971 -13.0277c -1.0084,-0.1778 -2.0169,-0.3557 -3.0253 -0.5334c 0.2145,-1.2165 0.4289,-2.4329 0.6434 -3.6494c -17.3326,-3.0562 -34.6652,-6.1124 -51.9978 -9.1686c -0.2145,1.2164 -0.4290,2.4329 -0.6435 3.6493c -1.0084,-0.1778 -2.0169,-0.3556 -3.0253 -0.5334c -0.7657,4.3426 -1.5314,8.6852 -2.2972 13.0277c 1.0084,0.1778 2.0169,0.3557 3.0253 0.5335c -1.0958,6.2145 -2.1916,12.4291 -3.2874 18.6437c -1.0084,-0.1778 -2.0169,-0.3557 -3.0253 -0.5334c -0.7657,4.3426 -1.5314,8.6852 -2.2972 13.0277ZM 291.7358,698.0950 c 1.0084,0.1778 2.0169,0.3556 3.0253 0.5334c -0.2145,1.2164 -0.4290,2.4329 -0.6435 3.6493c 17.3326,3.0562 34.6652,6.1124 51.9978 9.1686c 0.2145,-1.2164 0.4290,-2.4329 0.6435 -3.6493c 1.0084,0.1778 2.0169,0.3557 3.0253 0.5334c 0.7657,-4.3426 1.5314,-8.6852 2.2972 -13.0277c -1.0084,-0.1778 -2.0169,-0.3556 -3.0253 -0.5334c 1.0958,-6.2146 2.1916,-12.4291 3.2874 -18.6437c 1.0084,0.1778 2.0169,0.3556 3.0253 0.5334c 0.7657,-4.3426 1.5314,-8.6852 2.2971 -13.0278c -1.0084,-0.1778 -2.0169,-0.3556 -3.0253 -0.5334c 0.2145,-1.2164 0.4289,-2.4329 0.6434 -3.6493c -17.3326,-3.0562 -34.6652,-6.1124 -51.9978 -9.1686c -0.2145,1.2164 -0.4290,2.4329 -0.6435 3.6493c -1.0084,-0.1778 -2.0169,-0.3557 -3.0253 -0.5334c -0.7657,4.3426 -1.5314,8.6852 -2.2972 13.0277c 1.0084,0.1778 2.0169,0.3557 3.0253 0.5334c -1.0958,6.2146 -2.1916,12.4291 -3.2874 18.6437c -1.0084,-0.1778 -2.0169,-0.3557 -3.0253 -0.5335c -0.7657,4.3426 -1.5314,8.6852 -2.2972 13.0278ZM 304.2057,627.3750 c 1.0084,0.1778 2.0169,0.3557 3.0253 0.5335c -0.2145,1.2164 -0.4290,2.4329 -0.6435 3.6493c 17.3326,3.0562 34.6652,6.1124 51.9978 9.1686c 0.2145,-1.2164 0.4290,-2.4329 0.6435 -3.6493c 1.0084,0.1778 2.0169,0.3556 3.0253 0.5334c 0.7657,-4.3426 1.5314,-8.6852 2.2972 -13.0277c -1.0084,-0.1778 -2.0169,-0.3557 -3.0253 -0.5334c 1.0958,-6.2146 2.1916,-12.4291 3.2874 -18.6437c 1.0084,0.1778 2.0169,0.3557 3.0253 0.5335c 0.7657,-4.3426 1.5314,-8.6852 2.2971 -13.0278c -1.0084,-0.1778 -2.0169,-0.3556 -3.0253 -0.5334c 0.2145,-1.2164 0.4290,-2.4329 0.6435 -3.6493c -17.3326,-3.0562 -34.6652,-6.1124 -51.9978 -9.1686c -0.2145,1.2164 -0.4290,2.4329 -0.6435 3.6493c -1.0084,-0.1778 -2.0169,-0.3557 -3.0253 -0.5335c -0.7657,4.3426 -1.5314,8.6852 -2.2972 13.0278c 1.0084,0.1778 2.0169,0.3556 3.0253 0.5334c -1.0958,6.2145 -2.1916,12.4291 -3.2874 18.6437c -1.0084,-0.1778 -2.0169,-0.3556 -3.0253 -0.5334c -0.7657,4.3426 -1.5314,8.6852 -2.2972 13.0277ZM 334.2346,870.6155 c 1.0084,0.1778 2.0169,0.3557 3.0253 0.5335c -0.2145,1.2164 -0.4290,2.4329 -0.6435 3.6493c 17.3326,3.0562 34.6652,6.1124 51.9978 9.1686c 0.2145,-1.2164 0.4290,-2.4329 0.6435 -3.6493c 1.0084,0.1778 2.0169,0.3556 3.0253 0.5334c 0.7657,-4.3426 1.5314,-8.6852 2.2971 -13.0277c -1.0084,-0.1778 -2.0169,-0.3557 -3.0253 -0.5335c 1.0958,-6.2145 2.1916,-12.4291 3.2873 -18.6437c 1.0084,0.1778 2.0169,0.3557 3.0253 0.5334c 0.7657,-4.3426 1.5314,-8.6852 2.2971 -13.0277c -1.0084,-0.1778 -2.0169,-0.3556 -3.0253 -0.5334c 0.2145,-1.2165 0.4290,-2.4329 0.6435 -3.6493c -17.3326,-3.0562 -34.6652,-6.1124 -51.9978 -9.1686c -0.2145,1.2164 -0.4290,2.4329 -0.6435 3.6493c -1.0084,-0.1778 -2.0169,-0.3556 -3.0253 -0.5334c -0.7657,4.3426 -1.5314,8.6852 -2.2971 13.0278c 1.0084,0.1778 2.0169,0.3556 3.0253 0.5334c -1.0958,6.2145 -2.1916,12.4291 -3.2874 18.6437c -1.0084,-0.1778 -2.0169,-0.3556 -3.0253 -0.5334c -0.7657,4.3426 -1.5314,8.6852 -2.2972 13.0277ZM 346.7045,799.8955 c 1.0084,0.1778 2.0169,0.3557 3.0253 0.5334c -0.2145,1.2165 -0.4290,2.4329 -0.6435 3.6493c 17.3326,3.0562 34.6652,6.1124 51.9978 9.1687c 0.2145,-1.2165 0.4290,-2.4329 0.6435 -3.6493c 1.0084,0.1778 2.0169,0.3556 3.0253 0.5334c 0.7657,-4.3426 1.5314,-8.6852 2.2971 -13.0278c -1.0084,-0.1778 -2.0169,-0.3556 -3.0253 -0.5334c 1.0958,-6.2145 2.1916,-12.4291 3.2874 -18.6437c 1.0084,0.1778 2.0169,0.3556 3.0253 0.5334c 0.7657,-4.3426 1.5314,-8.6852 2.2971 -13.0277c -1.0084,-0.1778 -2.0169,-0.3557 -3.0253 -0.5335c 0.2145,-1.2164 0.4290,-2.4329 0.6435 -3.6493c -17.3327,-3.0562 -34.6652,-6.1124 -51.9978 -9.1687c -0.2145,1.2165 -0.4290,2.4329 -0.6435 3.6493c -1.0084,-0.1778 -2.0169,-0.3556 -3.0253 -0.5334c -0.7657,4.3426 -1.5314,8.6852 -2.2971 13.0277c 1.0084,0.1778 2.0169,0.3557 3.0253 0.5335c -1.0958,6.2145 -2.1916,12.4291 -3.2874 18.6437c -1.0084,-0.1778 -2.0169,-0.3557 -3.0253 -0.5334c -0.7657,4.3426 -1.5314,8.6852 -2.2972 13.0277ZM 359.1743,729.1754 c 1.0084,0.1778 2.0169,0.3556 3.0253 0.5334c -0.2145,1.2164 -0.4290,2.4329 -0.6435 3.6493c 17.3326,3.0562 34.6652,6.1124 51.9978 9.1686c 0.2145,-1.2164 0.4290,-2.4329 0.6435 -3.6493c 1.0084,0.1778 2.0169,0.3557 3.0253 0.5335c 0.7657,-4.3426 1.5314,-8.6852 2.2971 -13.0278c -1.0084,-0.1778 -2.0169,-0.3556 -3.0253 -0.5334c 1.0958,-6.2146 2.1916,-12.4291 3.2874 -18.6437c 1.0084,0.1778 2.0169,0.3556 3.0253 0.5334c 0.7657,-4.3426 1.5314,-8.6852 2.2971 -13.0278c -1.0084,-0.1778 -2.0169,-0.3556 -3.0253 -0.5334c 0.2145,-1.2164 0.4290,-2.4329 0.6435 -3.6493c -17.3327,-3.0562 -34.6652,-6.1124 -51.9979 -9.1686c -0.2145,1.2164 -0.4289,2.4329 -0.6434 3.6493c -1.0084,-0.1778 -2.0169,-0.3557 -3.0253 -0.5334c -0.7657,4.3426 -1.5314,8.6852 -2.2971 13.0277c 1.0084,0.1778 2.0169,0.3557 3.0253 0.5334c -1.0958,6.2146 -2.1916,12.4291 -3.2874 18.6437c -1.0084,-0.1778 -2.0169,-0.3557 -3.0253 -0.5335c -0.7657,4.3426 -1.5314,8.6852 -2.2972 13.0278ZM 371.6442,658.4554 c 1.0084,0.1778 2.0169,0.3557 3.0253 0.5335c -0.2145,1.2164 -0.4290,2.4329 -0.6435 3.6493c 17.3326,3.0562 34.6652,6.1124 51.9978 9.1686c 0.2145,-1.2164 0.4290,-2.4329 0.6435 -3.6493c 1.0084,0.1778 2.0169,0.3556 3.0253 0.5334c 0.7657,-4.3426 1.5314,-8.6852 2.2971 -13.0277c -1.0084,-0.1778 -2.0169,-0.3557 -3.0253 -0.5334c 1.0958,-6.2146 2.1916,-12.4291 3.2874 -18.6437c 1.0084,0.1778 2.0169,0.3557 3.0253 0.5335c 0.7657,-4.3426 1.5314,-8.6852 2.2971 -13.0278c -1.0084,-0.1778 -2.0169,-0.3556 -3.0253 -0.5334c 0.2145,-1.2164 0.4290,-2.4329 0.6434 -3.6493c -17.3326,-3.0562 -34.6652,-6.1124 -51.9978 -9.1686c -0.2145,1.2164 -0.4289,2.4329 -0.6434 3.6493c -1.0084,-0.1778 -2.0169,-0.3557 -3.0253 -0.5335c -0.7657,4.3426 -1.5314,8.6852 -2.2971 13.0278c 1.0084,0.1778 2.0169,0.3556 3.0253 0.5334c -1.0958,6.2145 -2.1916,12.4291 -3.2874 18.6437c -1.0084,-0.1778 -2.0169,-0.3556 -3.0253 -0.5334c -0.7657,4.3426 -1.5314,8.6852 -2.2972 13.0277ZM 398.7197,918.4454 c 1.0084,0.1778 2.0169,0.3556 3.0253 0.5334c -0.2145,1.2164 -0.4290,2.4329 -0.6435 3.6493c 17.3326,3.0562 34.6652,6.1124 51.9978 9.1686c 0.2145,-1.2164 0.4290,-2.4329 0.6435 -3.6493c 1.0084,0.1778 2.0169,0.3556 3.0253 0.5334c 0.7657,-4.3426 1.5314,-8.6852 2.2971 -13.0277c -1.0084,-0.1778 -2.0169,-0.3557 -3.0253 -0.5335c 1.0958,-6.2145 2.1916,-12.4291 3.2874 -18.6437c 1.0084,0.1778 2.0169,0.3557 3.0253 0.5335c 0.7657,-4.3426 1.5314,-8.6852 2.2971 -13.0278c -1.0084,-0.1778 -2.0169,-0.3556 -3.0253 -0.5334c 0.2145,-1.2164 0.4289,-2.4329 0.6434 -3.6493c -17.3326,-3.0562 -34.6652,-6.1124 -51.9978 -9.1686c -0.2145,1.2164 -0.4290,2.4329 -0.6434 3.6493c -1.0084,-0.1778 -2.0169,-0.3557 -3.0253 -0.5335c -0.7657,4.3426 -1.5314,8.6852 -2.2972 13.0278c 1.0084,0.1778 2.0169,0.3556 3.0253 0.5334c -1.0958,6.2145 -2.1916,12.4291 -3.2874 18.6437c -1.0084,-0.1778 -2.0169,-0.3556 -3.0253 -0.5334c -0.7657,4.3426 -1.5314,8.6852 -2.2972 13.0278ZM 411.1896,847.7254 c 1.0084,0.1778 2.0169,0.3557 3.0253 0.5334c -0.2145,1.2165 -0.4290,2.4329 -0.6435 3.6493c 17.3326,3.0562 34.6652,6.1124 51.9978 9.1687c 0.2145,-1.2165 0.4290,-2.4329 0.6435 -3.6493c 1.0084,0.1778 2.0169,0.3556 3.0253 0.5334c 0.7657,-4.3426 1.5314,-8.6852 2.2972 -13.0278c -1.0084,-0.1778 -2.0169,-0.3556 -3.0253 -0.5334c 1.0958,-6.2145 2.1916,-12.4291 3.2874 -18.6437c 1.0084,0.1778 2.0169,0.3556 3.0253 0.5334c 0.7657,-4.3426 1.5314,-8.6852 2.2971 -13.0277c -1.0084,-0.1778 -2.0169,-0.3557 -3.0253 -0.5334c 0.2145,-1.2165 0.4289,-2.4329 0.6434 -3.6493c -17.3326,-3.0562 -34.6652,-6.1124 -51.9978 -9.1687c -0.2145,1.2165 -0.4290,2.4329 -0.6434 3.6493c -1.0084,-0.1778 -2.0169,-0.3556 -3.0253 -0.5334c -0.7657,4.3426 -1.5314,8.6852 -2.2972 13.0278c 1.0084,0.1778 2.0169,0.3556 3.0253 0.5334c -1.0958,6.2145 -2.1916,12.4291 -3.2874 18.6437c -1.0084,-0.1778 -2.0169,-0.3557 -3.0253 -0.5334c -0.7657,4.3426 -1.5314,8.6852 -2.2972 13.0277ZM 426.0155,959.1097 c 0.0000,3.1311 2.5382,5.6693 5.6693 5.6693c 3.1311,-0.0000 5.6693,-2.5382 5.6693 -5.6693c 0.0000,-3.1311 -2.5382,-5.6693 -5.6693 -5.6693c -3.1311,-0.0000 -5.6693,2.5382 -5.6693 5.6693ZM 431.1021,521.2241 c 0.0000,3.1310 2.5382,5.6693 5.6693 5.6693c 3.1311,-0.0000 5.6693,-2.5382 5.6693 -5.6693c 0.0000,-3.1311 -2.5382,-5.6693 -5.6693 -5.6693c -3.1311,-0.0000 -5.6693,2.5382 -5.6693 5.6693ZM 547.6041,813.2617 c 0.7657,4.3426 1.5314,8.6852 2.2971 13.0277c 1.0084,-0.1778 2.0169,-0.3556 3.0253 -0.5334c 1.0958,6.2145 2.1916,12.4291 3.2874 18.6437c -1.0084,0.1778 -2.0169,0.3557 -3.0253 0.5334c 0.7657,4.3426 1.5314,8.6852 2.2972 13.0278c 1.0084,-0.1778 2.0169,-0.3557 3.0253 -0.5334c 0.2145,1.2164 0.4290,2.4329 0.6435 3.6493c 17.3326,-3.0562 34.6652,-6.1124 51.9978 -9.1687c -0.2145,-1.2164 -0.4290,-2.4329 -0.6435 -3.6493c 1.0084,-0.1778 2.0169,-0.3556 3.0253 -0.5334c -0.7657,-4.3426 -1.5314,-8.6852 -2.2972 -13.0277c -1.0084,0.1778 -2.0169,0.3556 -3.0253 0.5334c -1.0958,-6.2146 -2.1916,-12.4291 -3.2874 -18.6437c 1.0084,-0.1778 2.0169,-0.3557 3.0253 -0.5334c -0.7657,-4.3426 -1.5314,-8.6852 -2.2972 -13.0278c -1.0084,0.1778 -2.0169,0.3557 -3.0253 0.5334c -0.2145,-1.2164 -0.4289,-2.4329 -0.6434 -3.6493c -17.3326,3.0562 -34.6652,6.1124 -51.9978 9.1687c 0.2145,1.2164 0.4290,2.4329 0.6434 3.6493c -1.0084,0.1778 -2.0169,0.3556 -3.0253 0.5334ZM 560.0739,883.9818 c 0.7657,4.3426 1.5314,8.6852 2.2971 13.0278c 1.0084,-0.1778 2.0169,-0.3557 3.0253 -0.5335c 1.0958,6.2146 2.1916,12.4291 3.2874 18.6437c -1.0084,0.1778 -2.0169,0.3557 -3.0253 0.5335c 0.7657,4.3426 1.5314,8.6852 2.2971 13.0277c 1.0084,-0.1778 2.0169,-0.3556 3.0253 -0.5334c 0.2145,1.2164 0.4290,2.4329 0.6435 3.6493c 17.3326,-3.0562 34.6652,-6.1124 51.9978 -9.1686c -0.2145,-1.2165 -0.4290,-2.4329 -0.6435 -3.6493c 1.0084,-0.1778 2.0169,-0.3557 3.0253 -0.5334c -0.7657,-4.3426 -1.5314,-8.6852 -2.2972 -13.0278c -1.0084,0.1778 -2.0169,0.3556 -3.0253 0.5334c -1.0958,-6.2145 -2.1916,-12.4291 -3.2874 -18.6437c 1.0084,-0.1778 2.0169,-0.3556 3.0253 -0.5334c -0.7657,-4.3426 -1.5314,-8.6852 -2.2972 -13.0278c -1.0084,0.1778 -2.0169,0.3557 -3.0253 0.5335c -0.2145,-1.2165 -0.4289,-2.4329 -0.6434 -3.6493c -17.3326,3.0562 -34.6652,6.1124 -51.9978 9.1686c 0.2145,1.2164 0.4289,2.4329 0.6434 3.6493c -1.0084,0.1778 -2.0169,0.3556 -3.0253 0.5334ZM 582.2832,521.2241 c 0.0000,3.1310 2.5382,5.6693 5.6693 5.6693c 3.1311,-0.0000 5.6693,-2.5382 5.6693 -5.6693c 0.0000,-3.1311 -2.5382,-5.6693 -5.6693 -5.6693c -3.1311,-0.0000 -5.6693,2.5382 -5.6693 5.6693ZM 587.1495,623.9917 c 0.7657,4.3426 1.5314,8.6852 2.2971 13.0278c 1.0084,-0.1778 2.0169,-0.3557 3.0253 -0.5335c 1.0958,6.2146 2.1916,12.4291 3.2874 18.6437c -1.0084,0.1778 -2.0169,0.3556 -3.0253 0.5334c 0.7657,4.3426 1.5314,8.6852 2.2971 13.0277c 1.0084,-0.1778 2.0169,-0.3556 3.0253 -0.5334c 0.2145,1.2164 0.4290,2.4329 0.6435 3.6493c 17.3326,-3.0562 34.6652,-6.1124 51.9978 -9.1686c -0.2145,-1.2165 -0.4290,-2.4329 -0.6435 -3.6493c 1.0084,-0.1778 2.0169,-0.3557 3.0253 -0.5335c -0.7657,-4.3426 -1.5314,-8.6852 -2.2972 -13.0277c -1.0084,0.1778 -2.0169,0.3557 -3.0253 0.5334c -1.0958,-6.2145 -2.1916,-12.4291 -3.2874 -18.6437c 1.0084,-0.1778 2.0169,-0.3556 3.0253 -0.5334c -0.7657,-4.3426 -1.5314,-8.6852 -2.2971 -13.0278c -1.0084,0.1778 -2.0169,0.3557 -3.0253 0.5335c -0.2145,-1.2165 -0.4290,-2.4329 -0.6434 -3.6493c -17.3327,3.0562 -34.6652,6.1124 -51.9978 9.1686c 0.2145,1.2164 0.4289,2.4329 0.6434 3.6493c -1.0084,0.1778 -2.0169,0.3556 -3.0253 0.5334ZM 587.3697,959.1097 c 0.0000,3.1311 2.5382,5.6693 5.6693 5.6693c 3.1311,-0.0000 5.6693,-2.5382 5.6693 -5.6693c 0.0000,-3.1311 -2.5382,-5.6693 -5.6693 -5.6693c -3.1311,-0.0000 -5.6693,2.5382 -5.6693 5.6693ZM 599.6194,694.7118 c 0.7657,4.3426 1.5314,8.6852 2.2971 13.0278c 1.0084,-0.1778 2.0169,-0.3557 3.0253 -0.5334c 1.0958,6.2145 2.1916,12.4291 3.2874 18.6437c -1.0084,0.1778 -2.0169,0.3556 -3.0253 0.5334c 0.7657,4.3426 1.5314,8.6852 2.2971 13.0278c 1.0084,-0.1778 2.0169,-0.3557 3.0253 -0.5335c 0.2145,1.2165 0.4290,2.4329 0.6435 3.6493c 17.3326,-3.0562 34.6652,-6.1124 51.9978 -9.1686c -0.2145,-1.2164 -0.4290,-2.4329 -0.6435 -3.6493c 1.0084,-0.1778 2.0169,-0.3556 3.0253 -0.5334c -0.7657,-4.3426 -1.5314,-8.6852 -2.2972 -13.0278c -1.0084,0.1778 -2.0169,0.3557 -3.0253 0.5335c -1.0958,-6.2146 -2.1916,-12.4291 -3.2874 -18.6437c 1.0084,-0.1778 2.0169,-0.3556 3.0253 -0.5334c -0.7657,-4.3426 -1.5314,-8.6852 -2.2971 -13.0277c -1.0084,0.1778 -2.0169,0.3556 -3.0253 0.5334c -0.2145,-1.2164 -0.4290,-2.4329 -0.6434 -3.6493c -17.3327,3.0562 -34.6652,6.1124 -51.9979 9.1686c 0.2145,1.2165 0.4290,2.4329 0.6435 3.6493c -1.0084,0.1778 -2.0169,0.3557 -3.0253 0.5334ZM 612.0892,765.4319 c 0.7657,4.3426 1.5314,8.6852 2.2971 13.0277c 1.0084,-0.1778 2.0169,-0.3556 3.0253 -0.5334c 1.0958,6.2145 2.1916,12.4291 3.2874 18.6437c -1.0084,0.1778 -2.0169,0.3557 -3.0253 0.5334c 0.7657,4.3426 1.5314,8.6852 2.2971 13.0278c 1.0084,-0.1778 2.0169,-0.3557 3.0253 -0.5334c 0.2145,1.2164 0.4290,2.4329 0.6435 3.6493c 17.3326,-3.0562 34.6652,-6.1124 51.9978 -9.1687c -0.2145,-1.2164 -0.4290,-2.4329 -0.6435 -3.6493c 1.0084,-0.1778 2.0169,-0.3556 3.0253 -0.5334c -0.7657,-4.3426 -1.5314,-8.6852 -2.2972 -13.0277c -1.0084,0.1778 -2.0169,0.3556 -3.0253 0.5334c -1.0958,-6.2146 -2.1916,-12.4291 -3.2874 -18.6437c 1.0084,-0.1778 2.0169,-0.3557 3.0253 -0.5335c -0.7657,-4.3426 -1.5314,-8.6852 -2.2971 -13.0277c -1.0084,0.1778 -2.0169,0.3557 -3.0253 0.5334c -0.2145,-1.2164 -0.4290,-2.4329 -0.6435 -3.6493c -17.3326,3.0562 -34.6652,6.1124 -51.9978 9.1687c 0.2145,1.2164 0.4290,2.4329 0.6435 3.6493c -1.0084,0.1778 -2.0169,0.3557 -3.0253 0.5335ZM 624.5591,836.1519 c 0.7657,4.3426 1.5314,8.6852 2.2971 13.0277c 1.0084,-0.1778 2.0169,-0.3556 3.0253 -0.5334c 1.0958,6.2146 2.1916,12.4291 3.2873 18.6437c -1.0084,0.1778 -2.0169,0.3557 -3.0253 0.5335c 0.7657,4.3426 1.5314,8.6852 2.2971 13.0277c 1.0084,-0.1778 2.0169,-0.3556 3.0253 -0.5334c 0.2145,1.2164 0.4290,2.4329 0.6435 3.6493c 17.3326,-3.0562 34.6652,-6.1124 51.9978 -9.1686c -0.2145,-1.2165 -0.4290,-2.4329 -0.6435 -3.6493c 1.0084,-0.1778 2.0169,-0.3557 3.0253 -0.5335c -0.7657,-4.3426 -1.5314,-8.6852 -2.2972 -13.0277c -1.0084,0.1778 -2.0169,0.3556 -3.0253 0.5334c -1.0958,-6.2145 -2.1916,-12.4291 -3.2874 -18.6437c 1.0084,-0.1778 2.0169,-0.3557 3.0253 -0.5334c -0.7657,-4.3426 -1.5314,-8.6852 -2.2971 -13.0278c -1.0084,0.1778 -2.0169,0.3557 -3.0253 0.5334c -0.2145,-1.2164 -0.4290,-2.4329 -0.6435 -3.6493c -17.3326,3.0562 -34.6652,6.1124 -51.9978 9.1686c 0.2145,1.2164 0.4290,2.4329 0.6435 3.6493c -1.0084,0.1778 -2.0169,0.3556 -3.0253 0.5334ZM 654.5880,592.9113 c 0.7657,4.3426 1.5314,8.6852 2.2971 13.0278c 1.0084,-0.1778 2.0169,-0.3557 3.0253 -0.5335c 1.0958,6.2146 2.1916,12.4291 3.2874 18.6437c -1.0084,0.1778 -2.0169,0.3556 -3.0253 0.5334c 0.7657,4.3426 1.5314,8.6852 2.2972 13.0277c 1.0084,-0.1778 2.0169,-0.3556 3.0253 -0.5334c 0.2145,1.2164 0.4290,2.4329 0.6435 3.6493c 17.3326,-3.0562 34.6652,-6.1124 51.9978 -9.1686c -0.2145,-1.2165 -0.4290,-2.4329 -0.6435 -3.6493c 1.0084,-0.1778 2.0169,-0.3557 3.0253 -0.5335c -0.7657,-4.3426 -1.5314,-8.6851 -2.2972 -13.0277c -1.0084,0.1778 -2.0169,0.3556 -3.0253 0.5334c -1.0958,-6.2145 -2.1916,-12.4291 -3.2874 -18.6437c 1.0084,-0.1778 2.0169,-0.3556 3.0253 -0.5334c -0.7657,-4.3426 -1.5314,-8.6852 -2.2972 -13.0278c -1.0084,0.1778 -2.0169,0.3557 -3.0253 0.5335c -0.2145,-1.2165 -0.4290,-2.4329 -0.6435 -3.6493c -17.3326,3.0562 -34.6652,6.1124 -51.9978 9.1686c 0.2145,1.2164 0.4290,2.4329 0.6435 3.6493c -1.0084,0.1778 -2.0169,0.3556 -3.0253 0.5334ZM 667.0579,663.6314 c 0.7657,4.3426 1.5314,8.6852 2.2971 13.0278c 1.0084,-0.1778 2.0169,-0.3557 3.0253 -0.5334c 1.0958,6.2145 2.1916,12.4291 3.2874 18.6437c -1.0084,0.1778 -2.0169,0.3556 -3.0253 0.5334c 0.7657,4.3426 1.5314,8.6852 2.2972 13.0277c 1.0084,-0.1778 2.0169,-0.3556 3.0253 -0.5334c 0.2145,1.2165 0.4290,2.4329 0.6435 3.6493c 17.3326,-3.0562 34.6652,-6.1124 51.9978 -9.1686c -0.2145,-1.2164 -0.4290,-2.4329 -0.6435 -3.6493c 1.0084,-0.1778 2.0169,-0.3557 3.0253 -0.5334c -0.7657,-4.3426 -1.5314,-8.6852 -2.2972 -13.0278c -1.0084,0.1778 -2.0169,0.3557 -3.0253 0.5335c -1.0958,-6.2146 -2.1916,-12.4291 -3.2874 -18.6437c 1.0084,-0.1778 2.0169,-0.3556 3.0253 -0.5334c -0.7657,-4.3426 -1.5314,-8.6852 -2.2972 -13.0277c -1.0084,0.1778 -2.0169,0.3556 -3.0253 0.5334c -0.2145,-1.2165 -0.4290,-2.4329 -0.6435 -3.6493c -17.3326,3.0562 -34.6652,6.1124 -51.9978 9.1686c 0.2145,1.2164 0.4290,2.4329 0.6434 3.6493c -1.0084,0.1778 -2.0169,0.3557 -3.0253 0.5334ZM 679.5277,734.3515 c 0.7657,4.3426 1.5314,8.6852 2.2971 13.0277c 1.0084,-0.1778 2.0169,-0.3556 3.0253 -0.5334c 1.0958,6.2145 2.1916,12.4291 3.2874 18.6437c -1.0084,0.1778 -2.0169,0.3557 -3.0253 0.5334c 0.7657,4.3426 1.5314,8.6852 2.2972 13.0278c 1.0084,-0.1778 2.0169,-0.3557 3.0253 -0.5334c 0.2145,1.2164 0.4290,2.4329 0.6435 3.6493c 17.3326,-3.0562 34.6652,-6.1124 51.9978 -9.1687c -0.2145,-1.2164 -0.4290,-2.4329 -0.6435 -3.6493c 1.0084,-0.1778 2.0169,-0.3556 3.0253 -0.5334c -0.7657,-4.3426 -1.5314,-8.6852 -2.2972 -13.0277c -1.0084,0.1778 -2.0169,0.3556 -3.0253 0.5334c -1.0958,-6.2146 -2.1916,-12.4291 -3.2874 -18.6437c 1.0084,-0.1778 2.0169,-0.3557 3.0253 -0.5335c -0.7657,-4.3426 -1.5314,-8.6852 -2.2972 -13.0277c -1.0084,0.1778 -2.0169,0.3556 -3.0253 0.5334c -0.2145,-1.2164 -0.4290,-2.4329 -0.6435 -3.6493c -17.3326,3.0562 -34.6652,6.1124 -51.9978 9.1686c 0.2145,1.2165 0.4290,2.4329 0.6434 3.6494c -1.0084,0.1778 -2.0169,0.3556 -3.0253 0.5334ZM 691.9976,805.0715 c 0.7657,4.3426 1.5314,8.6852 2.2971 13.0277c 1.0084,-0.1778 2.0169,-0.3556 3.0253 -0.5334c 1.0958,6.2146 2.1916,12.4291 3.2874 18.6437c -1.0084,0.1778 -2.0169,0.3557 -3.0253 0.5335c 0.7657,4.3426 1.5314,8.6852 2.2971 13.0277c 1.0084,-0.1778 2.0169,-0.3556 3.0253 -0.5334c 0.2145,1.2164 0.4290,2.4329 0.6435 3.6493c 17.3326,-3.0562 34.6652,-6.1124 51.9978 -9.1687c -0.2145,-1.2164 -0.4290,-2.4329 -0.6435 -3.6493c 1.0084,-0.1778 2.0169,-0.3557 3.0253 -0.5335c -0.7657,-4.3426 -1.5314,-8.6852 -2.2972 -13.0277c -1.0084,0.1778 -2.0169,0.3556 -3.0253 0.5334c -1.0958,-6.2145 -2.1916,-12.4291 -3.2874 -18.6437c 1.0084,-0.1778 2.0169,-0.3557 3.0253 -0.5334c -0.7657,-4.3426 -1.5314,-8.6852 -2.2971 -13.0278c -1.0084,0.1778 -2.0169,0.3557 -3.0253 0.5334c -0.2145,-1.2164 -0.4289,-2.4329 -0.6434 -3.6493c -17.3326,3.0562 -34.6652,6.1124 -51.9978 9.1687c 0.2145,1.2164 0.4289,2.4329 0.6434 3.6493c -1.0084,0.1778 -2.0169,0.3556 -3.0253 0.5334ZM 721.3702,558.1088 c 0.7657,4.3426 1.5314,8.6852 2.2971 13.0277c 1.0084,-0.1778 2.0169,-0.3556 3.0253 -0.5334c 1.0958,6.2146 2.1916,12.4291 3.2873 18.6437c -1.0084,0.1778 -2.0169,0.3556 -3.0253 0.5334c 0.7657,4.3426 1.5314,8.6852 2.2971 13.0277c 1.0084,-0.1778 2.0169,-0.3556 3.0253 -0.5334c 0.2145,1.2164 0.4290,2.4329 0.6435 3.6493c 17.3326,-3.0562 34.6652,-6.1124 51.9978 -9.1686c -0.2145,-1.2165 -0.4290,-2.4329 -0.6435 -3.6493c 1.0084,-0.1778 2.0169,-0.3557 3.0253 -0.5335c -0.7657,-4.3426 -1.5314,-8.6852 -2.2972 -13.0277c -1.0084,0.1778 -2.0169,0.3556 -3.0253 0.5334c -1.0958,-6.2145 -2.1916,-12.4291 -3.2874 -18.6437c 1.0084,-0.1778 2.0169,-0.3556 3.0253 -0.5334c -0.7657,-4.3426 -1.5314,-8.6852 -2.2971 -13.0278c -1.0084,0.1778 -2.0169,0.3557 -3.0253 0.5334c -0.2145,-1.2164 -0.4290,-2.4329 -0.6434 -3.6493c -17.3327,3.0562 -34.6652,6.1124 -51.9979 9.1686c 0.2145,1.2164 0.4290,2.4329 0.6435 3.6493c -1.0084,0.1778 -2.0169,0.3556 -3.0253 0.5334ZM 733.8401,628.8289 c 0.7657,4.3426 1.5314,8.6852 2.2971 13.0278c 1.0084,-0.1778 2.0169,-0.3557 3.0253 -0.5334c 1.0958,6.2145 2.1916,12.4291 3.2873 18.6437c -1.0084,0.1778 -2.0169,0.3556 -3.0253 0.5334c 0.7657,4.3426 1.5314,8.6852 2.2971 13.0277c 1.0084,-0.1778 2.0169,-0.3556 3.0253 -0.5334c 0.2145,1.2165 0.4290,2.4329 0.6435 3.6493c 17.3326,-3.0562 34.6652,-6.1124 51.9978 -9.1686c -0.2145,-1.2164 -0.4290,-2.4329 -0.6435 -3.6493c 1.0084,-0.1778 2.0169,-0.3557 3.0253 -0.5334c -0.7657,-4.3426 -1.5314,-8.6852 -2.2972 -13.0278c -1.0084,0.1778 -2.0169,0.3557 -3.0253 0.5334c -1.0958,-6.2145 -2.1916,-12.4291 -3.2873 -18.6437c 1.0084,-0.1778 2.0169,-0.3556 3.0253 -0.5334c -0.7657,-4.3426 -1.5314,-8.6852 -2.2971 -13.0277c -1.0084,0.1778 -2.0169,0.3556 -3.0253 0.5334c -0.2145,-1.2165 -0.4290,-2.4329 -0.6435 -3.6493c -17.3326,3.0562 -34.6652,6.1124 -51.9978 9.1686c 0.2145,1.2164 0.4290,2.4329 0.6435 3.6493c -1.0084,0.1778 -2.0169,0.3557 -3.0253 0.5334ZM 746.3099,699.5490 c 0.7657,4.3426 1.5314,8.6852 2.2971 13.0277c 1.0084,-0.1778 2.0169,-0.3556 3.0253 -0.5334c 1.0958,6.2145 2.1916,12.4291 3.2873 18.6437c -1.0084,0.1778 -2.0169,0.3557 -3.0253 0.5334c 0.7657,4.3426 1.5314,8.6852 2.2971 13.0278c 1.0084,-0.1778 2.0169,-0.3557 3.0253 -0.5334c 0.2145,1.2164 0.4290,2.4329 0.6435 3.6493c 17.3326,-3.0562 34.6652,-6.1124 51.9978 -9.1686c -0.2145,-1.2164 -0.4290,-2.4329 -0.6435 -3.6493c 1.0084,-0.1778 2.0169,-0.3556 3.0253 -0.5334c -0.7657,-4.3426 -1.5314,-8.6852 -2.2972 -13.0277c -1.0084,0.1778 -2.0169,0.3556 -3.0253 0.5334c -1.0958,-6.2146 -2.1916,-12.4291 -3.2874 -18.6437c 1.0084,-0.1778 2.0169,-0.3557 3.0253 -0.5335c -0.7657,-4.3426 -1.5314,-8.6852 -2.2971 -13.0277c -1.0084,0.1778 -2.0169,0.3556 -3.0253 0.5334c -0.2145,-1.2164 -0.4290,-2.4329 -0.6435 -3.6493c -17.3326,3.0562 -34.6652,6.1124 -51.9978 9.1686c 0.2145,1.2165 0.4290,2.4329 0.6435 3.6493c -1.0084,0.1778 -2.0169,0.3557 -3.0253 0.5335ZM 758.7798,770.2690 c 0.7657,4.3426 1.5314,8.6852 2.2971 13.0277c 1.0084,-0.1778 2.0169,-0.3556 3.0253 -0.5334c 1.0958,6.2145 2.1916,12.4291 3.2873 18.6437c -1.0084,0.1778 -2.0169,0.3557 -3.0253 0.5334c 0.7657,4.3426 1.5314,8.6852 2.2971 13.0278c 1.0084,-0.1778 2.0169,-0.3556 3.0253 -0.5334c 0.2145,1.2164 0.4290,2.4329 0.6435 3.6493c 17.3326,-3.0562 34.6652,-6.1124 51.9978 -9.1687c -0.2145,-1.2164 -0.4290,-2.4329 -0.6435 -3.6493c 1.0084,-0.1778 2.0169,-0.3556 3.0253 -0.5334c -0.7657,-4.3426 -1.5314,-8.6852 -2.2972 -13.0277c -1.0084,0.1778 -2.0169,0.3556 -3.0253 0.5334c -1.0958,-6.2145 -2.1916,-12.4291 -3.2873 -18.6437c 1.0084,-0.1778 2.0169,-0.3557 3.0253 -0.5334c -0.7657,-4.3426 -1.5314,-8.6852 -2.2971 -13.0278c -1.0084,0.1778 -2.0169,0.3557 -3.0253 0.5334c -0.2145,-1.2164 -0.4290,-2.4329 -0.6435 -3.6493c -17.3326,3.0562 -34.6652,6.1124 -51.9978 9.1687c 0.2145,1.2164 0.4290,2.4329 0.6435 3.6493c -1.0084,0.1778 -2.0169,0.3556 -3.0253 0.5334ZM 795.3718,564.2495 c 0.7657,4.3426 1.5314,8.6852 2.2972 13.0278c 1.0084,-0.1778 2.0169,-0.3557 3.0253 -0.5335c 1.0958,6.2146 2.1916,12.4291 3.2874 18.6437c -1.0084,0.1778 -2.0169,0.3556 -3.0253 0.5334c 0.7657,4.3426 1.5314,8.6852 2.2972 13.0277c 1.0084,-0.1778 2.0169,-0.3556 3.0253 -0.5334c 0.2145,1.2164 0.4290,2.4329 0.6435 3.6493c 17.3326,-3.0562 34.6652,-6.1124 51.9978 -9.1686c -0.2145,-1.2165 -0.4290,-2.4329 -0.6435 -3.6493c 1.0084,-0.1778 2.0169,-0.3557 3.0253 -0.5334c -0.7657,-4.3426 -1.5314,-8.6852 -2.2971 -13.0278c -1.0084,0.1778 -2.0169,0.3557 -3.0253 0.5334c -1.0958,-6.2145 -2.1916,-12.4291 -3.2874 -18.6437c 1.0084,-0.1778 2.0169,-0.3556 3.0253 -0.5334c -0.7657,-4.3426 -1.5314,-8.6852 -2.2972 -13.0278c -1.0084,0.1778 -2.0169,0.3557 -3.0253 0.5335c -0.2145,-1.2165 -0.4290,-2.4329 -0.6435 -3.6493c -17.3326,3.0562 -34.6652,6.1124 -51.9978 9.1686c 0.2145,1.2164 0.4290,2.4329 0.6435 3.6493c -1.0084,0.1778 -2.0169,0.3556 -3.0253 0.5334ZM 807.8417,634.9696 c 0.7657,4.3426 1.5314,8.6852 2.2971 13.0278c 1.0084,-0.1778 2.0169,-0.3557 3.0253 -0.5334c 1.0958,6.2145 2.1916,12.4291 3.2874 18.6437c -1.0084,0.1778 -2.0169,0.3556 -3.0253 0.5334c 0.7657,4.3426 1.5314,8.6852 2.2972 13.0277c 1.0084,-0.1778 2.0169,-0.3556 3.0253 -0.5334c 0.2145,1.2165 0.4290,2.4329 0.6435 3.6493c 17.3326,-3.0562 34.6652,-6.1124 51.9978 -9.1686c -0.2145,-1.2164 -0.4290,-2.4329 -0.6435 -3.6493c 1.0084,-0.1778 2.0169,-0.3556 3.0253 -0.5334c -0.7657,-4.3426 -1.5314,-8.6852 -2.2972 -13.0278c -1.0084,0.1778 -2.0169,0.3557 -3.0253 0.5335c -1.0958,-6.2146 -2.1916,-12.4291 -3.2874 -18.6437c 1.0084,-0.1778 2.0169,-0.3556 3.0253 -0.5334c -0.7657,-4.3426 -1.5314,-8.6852 -2.2972 -13.0277c -1.0084,0.1778 -2.0169,0.3556 -3.0253 0.5334c -0.2145,-1.2164 -0.4290,-2.4329 -0.6435 -3.6493c -17.3326,3.0562 -34.6652,6.1124 -51.9978 9.1686c 0.2145,1.2165 0.4290,2.4329 0.6435 3.6493c -1.0084,0.1778 -2.0169,0.3557 -3.0253 0.5334ZM 820.3115,705.6896 c 0.7657,4.3426 1.5314,8.6852 2.2971 13.0277c 1.0084,-0.1778 2.0169,-0.3556 3.0253 -0.5334c 1.0958,6.2145 2.1916,12.4291 3.2874 18.6437c -1.0084,0.1778 -2.0169,0.3557 -3.0253 0.5334c 0.7657,4.3426 1.5314,8.6852 2.2972 13.0278c 1.0084,-0.1778 2.0169,-0.3557 3.0253 -0.5334c 0.2145,1.2164 0.4290,2.4329 0.6435 3.6493c 17.3326,-3.0562 34.6652,-6.1124 51.9978 -9.1687c -0.2145,-1.2164 -0.4290,-2.4329 -0.6435 -3.6493c 1.0084,-0.1778 2.0169,-0.3556 3.0253 -0.5334c -0.7657,-4.3426 -1.5314,-8.6852 -2.2971 -13.0277c -1.0084,0.1778 -2.0169,0.3556 -3.0253 0.5334c -1.0958,-6.2146 -2.1916,-12.4291 -3.2874 -18.6437c 1.0084,-0.1778 2.0169,-0.3557 3.0253 -0.5335c -0.7657,-4.3426 -1.5314,-8.6851 -2.2972 -13.0277c -1.0084,0.1778 -2.0169,0.3556 -3.0253 0.5334c -0.2145,-1.2164 -0.4290,-2.4329 -0.6435 -3.6493c -17.3326,3.0562 -34.6652,6.1124 -51.9978 9.1687c 0.2145,1.2164 0.4290,2.4329 0.6435 3.6493c -1.0084,0.1778 -2.0169,0.3556 -3.0253 0.5334ZM 832.7814,776.4097 c 0.7657,4.3426 1.5314,8.6852 2.2971 13.0277c 1.0084,-0.1778 2.0169,-0.3556 3.0253 -0.5334c 1.0958,6.2146 2.1916,12.4291 3.2874 18.6437c -1.0084,0.1778 -2.0169,0.3557 -3.0253 0.5335c 0.7657,4.3426 1.5314,8.6852 2.2972 13.0277c 1.0084,-0.1778 2.0169,-0.3556 3.0253 -0.5334c 0.2145,1.2164 0.4290,2.4329 0.6435 3.6493c 17.3326,-3.0562 34.6652,-6.1124 51.9978 -9.1686c -0.2145,-1.2165 -0.4290,-2.4329 -0.6435 -3.6493c 1.0084,-0.1778 2.0169,-0.3557 3.0253 -0.5335c -0.7657,-4.3426 -1.5314,-8.6852 -2.2972 -13.0277c -1.0084,0.1778 -2.0169,0.3556 -3.0253 0.5334c -1.0958,-6.2145 -2.1916,-12.4291 -3.2874 -18.6437c 1.0084,-0.1778 2.0169,-0.3556 3.0253 -0.5334c -0.7657,-4.3426 -1.5314,-8.6852 -2.2972 -13.0278c -1.0084,0.1778 -2.0169,0.3557 -3.0253 0.5335c -0.2145,-1.2165 -0.4290,-2.4329 -0.6435 -3.6494c -17.3326,3.0562 -34.6652,6.1124 -51.9978 9.1687c 0.2145,1.2164 0.4290,2.4329 0.6435 3.6493c -1.0084,0.1778 -2.0169,0.3556 -3.0253 0.5334ZM 868.0608,562.9460 c 0.7657,4.3426 1.5314,8.6852 2.2971 13.0278c 1.0084,-0.1778 2.0169,-0.3557 3.0253 -0.5334c 1.0958,6.2145 2.1916,12.4291 3.2873 18.6437c -1.0084,0.1778 -2.0169,0.3556 -3.0253 0.5334c 0.7657,4.3426 1.5314,8.6852 2.2971 13.0277c 1.0084,-0.1778 2.0169,-0.3556 3.0253 -0.5334c 0.2145,1.2164 0.4290,2.4329 0.6435 3.6493c 17.3326,-3.0562 34.6652,-6.1124 51.9978 -9.1686c -0.2145,-1.2165 -0.4290,-2.4329 -0.6435 -3.6493c 1.0084,-0.1778 2.0169,-0.3557 3.0253 -0.5334c -0.7657,-4.3426 -1.5314,-8.6852 -2.2972 -13.0278c -1.0084,0.1778 -2.0169,0.3557 -3.0253 0.5334c -1.0958,-6.2145 -2.1916,-12.4291 -3.2873 -18.6437c 1.0084,-0.1778 2.0169,-0.3556 3.0253 -0.5334c -0.7657,-4.3426 -1.5314,-8.6852 -2.2971 -13.0277c -1.0084,0.1778 -2.0169,0.3556 -3.0253 0.5334c -0.2145,-1.2165 -0.4290,-2.4329 -0.6435 -3.6493c -17.3326,3.0562 -34.6652,6.1124 -51.9978 9.1686c 0.2145,1.2164 0.4290,2.4329 0.6435 3.6493c -1.0084,0.1778 -2.0169,0.3557 -3.0253 0.5334ZM 880.5307,633.6660 c 0.7657,4.3426 1.5314,8.6852 2.2971 13.0278c 1.0084,-0.1778 2.0169,-0.3557 3.0253 -0.5334c 1.0958,6.2145 2.1916,12.4291 3.2873 18.6437c -1.0084,0.1778 -2.0169,0.3556 -3.0253 0.5334c 0.7657,4.3426 1.5314,8.6852 2.2971 13.0278c 1.0084,-0.1778 2.0169,-0.3557 3.0253 -0.5335c 0.2145,1.2165 0.4290,2.4329 0.6435 3.6493c 17.3326,-3.0562 34.6652,-6.1124 51.9978 -9.1686c -0.2145,-1.2164 -0.4290,-2.4329 -0.6435 -3.6493c 1.0084,-0.1778 2.0169,-0.3556 3.0253 -0.5334c -0.7657,-4.3426 -1.5314,-8.6852 -2.2972 -13.0278c -1.0084,0.1778 -2.0169,0.3557 -3.0253 0.5335c -1.0958,-6.2146 -2.1916,-12.4291 -3.2874 -18.6437c 1.0084,-0.1778 2.0169,-0.3557 3.0253 -0.5335c -0.7657,-4.3426 -1.5314,-8.6852 -2.2971 -13.0277c -1.0084,0.1778 -2.0169,0.3556 -3.0253 0.5334c -0.2145,-1.2164 -0.4290,-2.4329 -0.6435 -3.6493c -17.3326,3.0562 -34.6652,6.1124 -51.9978 9.1686c 0.2145,1.2165 0.4290,2.4329 0.6435 3.6493c -1.0084,0.1778 -2.0169,0.3557 -3.0253 0.5334ZM 893.0005,704.3861 c 0.7657,4.3426 1.5314,8.6852 2.2972 13.0277c 1.0084,-0.1778 2.0169,-0.3556 3.0253 -0.5334c 1.0958,6.2145 2.1916,12.4291 3.2873 18.6437c -1.0084,0.1778 -2.0169,0.3557 -3.0253 0.5334c 0.7657,4.3426 1.5314,8.6852 2.2971 13.0278c 1.0084,-0.1778 2.0169,-0.3557 3.0253 -0.5334c 0.2145,1.2164 0.4290,2.4329 0.6435 3.6493c 17.3326,-3.0562 34.6652,-6.1124 51.9978 -9.1687c -0.2145,-1.2164 -0.4290,-2.4329 -0.6435 -3.6493c 1.0084,-0.1778 2.0169,-0.3556 3.0253 -0.5334c -0.7657,-4.3426 -1.5314,-8.6852 -2.2971 -13.0277c -1.0084,0.1778 -2.0169,0.3556 -3.0253 0.5334c -1.0958,-6.2145 -2.1916,-12.4291 -3.2873 -18.6437c 1.0084,-0.1778 2.0169,-0.3557 3.0253 -0.5334c -0.7657,-4.3426 -1.5314,-8.6852 -2.2971 -13.0278c -1.0084,0.1778 -2.0169,0.3557 -3.0253 0.5334c -0.2145,-1.2164 -0.4290,-2.4329 -0.6435 -3.6493c -17.3326,3.0562 -34.6652,6.1124 -51.9978 9.1687c 0.2145,1.2164 0.4290,2.4329 0.6435 3.6493c -1.0084,0.1778 -2.0169,0.3556 -3.0253 0.5334ZM 905.4703,775.1062 c 0.7657,4.3426 1.5314,8.6852 2.2972 13.0277c 1.0084,-0.1778 2.0169,-0.3556 3.0253 -0.5334c 1.0958,6.2146 2.1916,12.4291 3.2873 18.6437c -1.0084,0.1778 -2.0169,0.3556 -3.0253 0.5334c 0.7657,4.3426 1.5314,8.6852 2.2971 13.0277c 1.0084,-0.1778 2.0169,-0.3556 3.0253 -0.5334c 0.2145,1.2164 0.4290,2.4329 0.6435 3.6493c 17.3326,-3.0562 34.6652,-6.1124 51.9978 -9.1686c -0.2145,-1.2165 -0.4290,-2.4329 -0.6435 -3.6493c 1.0084,-0.1778 2.0169,-0.3557 3.0253 -0.5335c -0.7657,-4.3426 -1.5314,-8.6852 -2.2971 -13.0277c -1.0084,0.1778 -2.0169,0.3556 -3.0253 0.5334c -1.0958,-6.2145 -2.1916,-12.4291 -3.2873 -18.6437c 1.0084,-0.1778 2.0169,-0.3556 3.0253 -0.5334c -0.7657,-4.3426 -1.5314,-8.6852 -2.2971 -13.0278c -1.0084,0.1778 -2.0169,0.3557 -3.0253 0.5335c -0.2145,-1.2165 -0.4290,-2.4329 -0.6435 -3.6493c -17.3326,3.0562 -34.6652,6.1124 -51.9978 9.1686c 0.2145,1.2164 0.4290,2.4329 0.6435 3.6493c -1.0084,0.1778 -2.0169,0.3556 -3.0253 0.5334ZM 939.9443,521.2241 c 0.0000,3.1310 2.5382,5.6693 5.6693 5.6693c 3.1311,-0.0000 5.6693,-2.5382 5.6693 -5.6693c 0.0000,-3.1311 -2.5382,-5.6693 -5.6693 -5.6693c -3.1310,-0.0000 -5.6693,2.5382 -5.6693 5.6693ZM 994.9268,825.4864 c 0.0000,3.1310 2.5382,5.6693 5.6693 5.6693c 3.1311,-0.0000 5.6693,-2.5382 5.6693 -5.6693c 0.0000,-3.1311 -2.5382,-5.6693 -5.6693 -5.6693c -3.1311,-0.0000 -5.6693,2.5382 -5.6693 5.6693Z"/></g><g stroke-linejoin="miter" stroke-opacity="1.0" fill-opacity="0.5" stroke="rgb(0,0,0)" stroke-width="0.37795275590551186" fill="rgb(255,0,0)" stroke-linecap="butt" stroke-miterlimit="10.0"><path d="M 446.2202,211.8111 c 0.0016,-12.9099 3.6924,-24.9414 10.0743 -35.1128c 1.4990,-0.0523 2.9980,-0.1047 4.4970 -0.1570c -6.3614,9.2858 -10.2801,20.3768 -10.8299 32.3468c -1.2471,0.9744 -2.4942,1.9487 -3.7413 2.9231ZM 446.3743,216.3538 c 1.1818,-0.9233 2.3636,-1.8466 3.5453 -2.7699c 0.1608,5.7431 1.0967,11.2923 2.7069 16.5468c 9.5583,-6.9445 19.1166,-13.8890 28.6749 -20.8336c 2.6889,-0.8737 5.3778,-1.7473 8.0667 -2.6210c 1.8335,-0.5957 3.6671,-1.1915 5.5006 -1.7873c 0.0000,1.7655 0.0000,3.5310 0.0000 5.2965c 0.0000,2.8439 0.0000,5.6878 0.0000 8.5317c -0.5919,-0.1923 -1.1838,-0.3847 -1.7757 -0.5770c -0.5840,-1.7973 -1.1679,-3.5945 -1.7519 -5.3917c -4.8841,3.5485 -9.7683,7.0971 -14.6524 10.6456c 4.9124,-0.0000 9.8249,-0.0000 14.7373 -0.0000c 1.1476,0.3729 2.2951,0.7457 3.4427 1.1186c 0.0000,2.5249 0.0000,5.0497 0.0000 7.5746c -13.8690,-0.0000 -27.7380,-0.0000 -41.6070 -0.0000c 1.7148,4.9974 4.0456,9.7087 6.9018 14.0431c -0.4361,1.5208 -0.8721,3.0415 -1.3082 4.5623c -7.1105,-9.7663 -11.6123,-21.5539 -12.4811 -34.3386ZM 458.8414,172.9326 c 7.2452,-9.9588 17.2023,-17.8176 28.7862 -22.4915c 1.2426,0.8381 2.4852,1.6763 3.7278 2.5144c -5.3294,1.9026 -10.3245,4.5086 -14.8737 7.7062c 9.5551,6.9422 19.1102,13.8844 28.6652 20.8265c 1.6618,2.2873 3.3237,4.5746 4.9855 6.8619c 1.1332,1.5597 2.2664,3.1194 3.3996 4.6791c -1.6791,0.5456 -3.3581,1.0911 -5.0372 1.6367c -2.7047,0.8788 -5.4094,1.7576 -8.1141 2.6364c 0.0000,-0.6224 0.0000,-1.2448 0.0000 -1.8671c 1.5288,-1.1108 3.0577,-2.2215 4.5865 -3.3323c -4.8841,-3.5485 -9.7683,-7.0970 -14.6524 -10.6456c 1.5180,4.6720 3.0360,9.3440 4.5541 14.0160c 0.0000,1.2066 0.0000,2.4133 0.0000 3.6199c -2.4013,0.7802 -4.8026,1.5604 -7.2039 2.3407c -4.2843,-13.1857 -8.5686,-26.3714 -12.8529 -39.5571c -4.1795,3.1485 -7.9511,6.8096 -11.2212 10.8899c -1.5832,0.0553 -3.1663,0.1106 -4.7495 0.1659ZM 461.6521,254.2699 c 0.4130,-1.4402 0.8259,-2.8804 1.2389 -4.3205c 7.0206,9.0913 16.4913,16.1939 27.4231 20.3184c 0.5415,1.4878 1.0830,2.9756 1.6245 4.4634c -11.9448,-3.8739 -22.4002,-11.0543 -30.2865 -20.4613ZM 491.8964,148.8882 c 6.4443,-2.0948 13.3227,-3.2271 20.4656 -3.2271c 5.5379,-0.0000 10.9169,0.6806 16.0578 1.9627c 0.5125,1.4080 1.0250,2.8161 1.5374 4.2241c -5.5808,-1.6352 -11.4856,-2.5123 -17.5952 -2.5123c -5.7210,-0.0000 -11.2624,0.7691 -16.5265 2.2095c -1.3130,-0.8857 -2.6261,-1.7713 -3.9391 -2.6570ZM 494.7667,271.7578 c 5.2654,1.5427 10.8192,2.4107 16.5613 2.5039c -3.6492,-11.2310 -7.2983,-22.4619 -10.9475 -33.6929c 0.0000,-2.8273 0.0000,-5.6545 0.0000 -8.4818c 0.0000,-1.9279 0.0000,-3.8558 0.0000 -5.7837c 1.6791,0.5456 3.3581,1.0911 5.0372 1.6367c 2.7047,0.8788 5.4094,1.7576 8.1141 2.6364c -0.3658,0.5035 -0.7316,1.0070 -1.0975 1.5105c -1.8897,-0.0000 -3.7795,-0.0000 -5.6692 -0.0000c 1.8656,5.7416 3.7311,11.4833 5.5967 17.2249c 1.5180,-4.6720 3.0360,-9.3440 4.5541 -14.0160c 0.7092,-0.9762 1.4185,-1.9524 2.1277 -2.9286c 2.4013,0.7802 4.8026,1.5604 7.2039 2.3407c -4.2839,13.1846 -8.5678,26.3691 -12.8518 39.5537c 5.3550,-0.0869 10.5463,-0.8476 15.4926 -2.2011c 1.3130,0.8857 2.6261,1.7713 3.9391 2.6570c -6.4443,2.0948 -13.3227,3.2271 -20.4656 3.2271c -5.5379,-0.0000 -10.9169,-0.6806 -16.0578 -1.9627c -0.5125,-1.4080 -1.0250,-2.8161 -1.5374 -4.2241ZM 500.3806,203.0979 c 2.5586,-0.8313 5.1172,-1.6627 7.6758 -2.4940c -2.5586,1.8589 -5.1172,3.7179 -7.6758 5.5768c 0.0000,-1.0276 0.0000,-2.0552 -0.0000 -3.0828ZM 500.3806,212.4370 c 0.9773,3.0078 1.9546,6.0156 2.9319 9.0234c -0.9773,-0.3175 -1.9546,-0.6351 -2.9319 -0.9526c 0.0000,-2.6903 0.0000,-5.3805 -0.0000 -8.0708ZM 509.2626,223.3938 c 3.1626,-0.0000 6.3252,-0.0000 9.4878 -0.0000c -0.6040,0.8313 -1.2080,1.6627 -1.8120 2.4940c -2.5586,-0.8313 -5.1172,-1.6627 -7.6758 -2.4940ZM 514.0065,198.6705 c 0.9773,-0.3175 1.9546,-0.6351 2.9319 -0.9526c 1.5813,2.1765 3.1626,4.3529 4.7439 6.5294c -2.5586,-1.8589 -5.1172,-3.7179 -7.6758 -5.5768ZM 514.5915,185.1104 c 11.2169,-8.1496 22.4338,-16.2991 33.6507 -24.4487c -4.2517,-2.9885 -8.8929,-5.4602 -13.8325 -7.3239c -0.5415,-1.4878 -1.0830,-2.9756 -1.6245 -4.4634c 11.9448,3.8739 22.4002,11.0543 30.2865 20.4613c -0.4130,1.4402 -0.8259,2.8803 -1.2389 4.3205c -3.4279,-4.4390 -7.4400,-8.4038 -11.9210 -11.7794c -3.6495,11.2321 -7.2991,22.4642 -10.9486 33.6963c -1.6618,2.2873 -3.3237,4.5746 -4.9855 6.8619c -1.1332,1.5597 -2.2664,3.1194 -3.3996 4.6791c -1.0377,-1.4283 -2.0754,-2.8566 -3.1132 -4.2849c -1.6716,-2.3008 -3.3432,-4.6015 -5.0148 -6.9023c 0.5919,-0.1923 1.1838,-0.3846 1.7757 -0.5770c 1.5288,1.1108 3.0577,2.2215 4.5865 3.3323c 1.8656,-5.7416 3.7311,-11.4833 5.5967 -17.2249c -3.9742,2.8874 -7.9485,5.7749 -11.9227 8.6623c -1.1476,0.3729 -2.2952,0.7457 -3.4428 1.1186c -1.4841,-2.0426 -2.9681,-4.0853 -4.4522 -6.1279ZM 522.4278,218.3323 c 0.9773,-3.0078 1.9546,-6.0156 2.9319 -9.0234c 0.6040,0.8313 1.2080,1.6627 1.8120 2.4940c -1.5813,2.1765 -3.1626,4.3529 -4.7439 6.5294ZM 522.4502,227.6787 c 1.0377,-1.4283 2.0754,-2.8566 3.1132 -4.2849c 1.6716,-2.3008 3.3432,-4.6015 5.0148 -6.9023c 0.3658,0.5035 0.7317,1.0070 1.0975 1.5105c -0.5840,1.7973 -1.1679,3.5945 -1.7519 5.3917c 6.0371,-0.0000 12.0742,-0.0000 18.1113 -0.0000c -3.9742,-2.8874 -7.9485,-5.7749 -11.9227 -8.6623c -0.7092,-0.9762 -1.4185,-1.9524 -2.1277 -2.9286c 1.4841,-2.0427 2.9682,-4.0853 4.4522 -6.1280c 11.2201,8.1519 22.4403,16.3038 33.6604 24.4557c 1.5040,-4.9079 2.4197,-10.0729 2.6650 -15.4130c 1.2471,-0.9744 2.4942,-1.9487 3.7413 -2.9231c 0.0000,0.0028 0.0000,0.0055 0.0000 0.0083c 0.0000,12.8965 -3.6910,24.9309 -10.0743 35.1045c -1.4990,0.0523 -2.9980,0.1047 -4.4970 0.1570c 3.1437,-4.5889 5.6909,-9.6186 7.5297 -14.9774c -11.8149,-0.0000 -23.6297,-0.0000 -35.4446 -0.0000c -2.6889,-0.8737 -5.3778,-1.7474 -8.0667 -2.6210c -1.8335,-0.5958 -3.6671,-1.1915 -5.5006 -1.7873ZM 533.3685,270.6501 c 11.0095,-3.9304 20.5929,-10.8627 27.7645 -19.8112c 1.5832,-0.0553 3.1663,-0.1106 4.7495 -0.1659c -7.2452,9.9588 -17.2023,17.8176 -28.7862 22.4915c -1.2426,-0.8381 -2.4852,-1.6763 -3.7278 -2.5144ZM 564.5603,177.4757 c 0.4361,-1.5208 0.8721,-3.0415 1.3082 -4.5623c 7.1105,9.7663 11.6123,21.5539 12.4811 34.3386c -1.1818,0.9233 -2.3636,1.8466 -3.5453 2.7699c -0.3360,-12.0025 -4.0577,-23.1583 -10.2440 -32.5462ZM 3.9685,332.1790 c 0.0000,6.9808 4.4785,13.3431 11.3196 15.5654c 137.1122,44.5411 274.2244,89.0821 411.3366 133.6233c 1.6342,0.5309 3.3418,0.8013 5.0601 0.8013c 26.8924,-0.0000 53.7847,-0.0000 80.6771 0.0000c 26.8924,-0.0000 53.7847,-0.0000 80.6771 0.0000c 1.7183,-0.0000 3.4259,-0.2704 5.0601 -0.8013c 137.1122,-44.5411 274.2244,-89.0822 411.3366 -133.6233c 6.8411,-2.2223 11.3196,-8.5846 11.3196 -15.5654c 0.0000,-0.9433 -0.0818,-1.8980 -0.2505 -2.8553c -18.3275,-103.9404 -36.6550,-207.8809 -54.9825 -311.8213c -1.3801,-7.8274 -8.1810,-13.5339 -16.1291 -13.5339c -145.6771,-0.0000 -291.3541,-0.0000 -437.0312 0.0000c -145.6771,-0.0000 -291.3542,-0.0000 -437.0312 0.0000c -7.9481,-0.0000 -14.7490,5.7066 -16.1291 13.5339c -18.3275,103.9404 -36.6550,207.8809 -54.9825 311.8213c -0.1688,0.9573 -0.2505,1.9119 -0.2505 2.8553ZM 18.4584,328.3883 c 0.0000,-3.1311 2.5382,-5.6693 5.6693 -5.6693c 3.1311,-0.0000 5.6693,2.5382 5.6693 5.6693c 0.0000,3.1310 -2.5382,5.6693 -5.6693 5.6693c -3.1311,-0.0000 -5.6693,-2.5382 -5.6693 -5.6693ZM 39.3371,325.4730 c -0.0000,-0.2179 0.0189,-0.4387 0.0580 -0.6607c 4.1566,-23.5733 8.3133,-47.1467 12.4699 -70.7200c 0.1575,-0.8933 0.3151,-1.7866 0.4726 -2.6799c 3.9991,-22.6800 7.9982,-45.3601 11.9973 -68.0401c 0.1575,-0.8933 0.3151,-1.7866 0.4726 -2.6799c 3.9991,-22.6800 7.9982,-45.3601 11.9973 -68.0402c 0.1575,-0.8933 0.3150,-1.7866 0.4726 -2.6799c 4.1566,-23.5733 8.3133,-47.1467 12.4699 -70.7200c 0.3624,-2.0557 2.3227,-3.4282 4.3784 -3.0658c 22.3326,3.9378 44.6653,7.8757 66.9979 11.8135c 0.4376,-2.4814 0.8751,-4.9628 1.3126 -7.4442c 0.3625,-2.0557 2.3228,-3.4282 4.3784 -3.0658c 22.3326,3.9379 44.6653,7.8757 66.9979 11.8136c 0.8751,-4.9628 1.7501,-9.9256 2.6252 -14.8884c 0.3625,-2.0557 2.3228,-3.4282 4.3784 -3.0658c 24.4667,4.3142 48.9333,8.6283 73.4000 12.9424c 1.8337,0.3233 3.1239,1.9180 3.1239 3.7177c 0.0000,0.2179 -0.0189,0.4387 -0.0580 0.6607c -1.0938,6.2035 -2.1877,12.4071 -3.2815 18.6105c 22.3326,3.9379 44.6653,7.8757 66.9979 11.8136c 1.8337,0.3233 3.1239,1.9180 3.1239 3.7177c 0.0000,0.2179 -0.0189,0.4387 -0.0581 0.6607c -0.8751,4.9628 -1.7501,9.9256 -2.6252 14.8884c 22.3326,3.9379 44.6653,7.8757 66.9979 11.8136c 1.8337,0.3233 3.1239,1.9180 3.1239 3.7177c 0.0000,0.2179 -0.0189,0.4387 -0.0580 0.6607c -4.1566,23.5734 -8.3133,47.1467 -12.4699 70.7201c -0.1575,0.8933 -0.3151,1.7866 -0.4726 2.6799c -3.9991,22.6800 -7.9982,45.3601 -11.9973 68.0401c -0.1575,0.8933 -0.3151,1.7866 -0.4726 2.6799c -1.7020,9.6527 -3.4040,19.3053 -5.1061 28.9580c 22.3326,3.9378 44.6653,7.8757 66.9979 11.8136c 1.8337,0.3233 3.1239,1.9180 3.1239 3.7176c 0.0000,0.2179 -0.0189,0.4388 -0.0580 0.6607c -4.1566,23.5734 -8.3133,47.1467 -12.4699 70.7200c -0.1575,0.8933 -0.3151,1.7866 -0.4726 2.6799c -4.1566,23.5734 -8.3132,47.1467 -12.4699 70.7201c -0.3625,2.0557 -2.3227,3.4282 -4.3784 3.0658c -24.4667,-4.3141 -48.9333,-8.6283 -73.4000 -12.9424c -1.8337,-0.3234 -3.1238,-1.9180 -3.1238 -3.7177c 0.0000,-0.2179 0.0189,-0.4387 0.0580 -0.6607c 1.8595,-10.5460 3.7191,-21.0919 5.5786 -31.6379c -22.3326,-3.9378 -44.6653,-7.8757 -66.9979 -11.8135c -1.8337,-0.3234 -3.1239,-1.9180 -3.1239 -3.7177c 0.0000,-0.2179 0.0189,-0.4387 0.0580 -0.6607c 0.8751,-4.9628 1.7502,-9.9256 2.6252 -14.8884c -22.3326,-3.9378 -44.6653,-7.8757 -66.9980 -11.8135c -1.8337,-0.3234 -3.1238,-1.9180 -3.1238 -3.7177c 0.0000,-0.2179 0.0189,-0.4387 0.0580 -0.6607c 1.0938,-6.2035 2.1877,-12.4070 3.2815 -18.6105c -20.1986,-3.5615 -40.3973,-7.1231 -60.5959 -10.6847c -0.8751,4.9628 -1.7502,9.9256 -2.6252 14.8885c -0.3625,2.0557 -2.3227,3.4282 -4.3784 3.0658c -22.3326,-3.9378 -44.6653,-7.8757 -66.9980 -11.8135c -0.4375,2.4814 -0.8751,4.9628 -1.3126 7.4442c -0.3625,2.0557 -2.3228,3.4282 -4.3784 3.0658c -24.4667,-4.3141 -48.9333,-8.6283 -73.4000 -12.9424c -1.8337,-0.3233 -3.1239,-1.9180 -3.1239 -3.7177ZM 73.4410,24.1260 c 0.0000,-3.1311 2.5382,-5.6693 5.6693 -5.6693c 3.1310,-0.0000 5.6693,2.5382 5.6693 5.6693c 0.0000,3.1310 -2.5382,5.6693 -5.6693 5.6693c -3.1311,-0.0000 -5.6693,-2.5382 -5.6693 -5.6693ZM 426.0155,462.0115 c 0.0000,-3.1311 2.5382,-5.6693 5.6693 -5.6693c 3.1311,-0.0000 5.6693,2.5382 5.6693 5.6693c 0.0000,3.1311 -2.5382,5.6693 -5.6693 5.6693c -3.1311,-0.0000 -5.6693,-2.5382 -5.6693 -5.6693ZM 431.1021,24.1260 c 0.0000,-3.1311 2.5382,-5.6693 5.6693 -5.6693c 3.1311,-0.0000 5.6693,2.5382 5.6693 5.6693c 0.0000,3.1310 -2.5382,5.6693 -5.6693 5.6693c -3.1311,-0.0000 -5.6693,-2.5382 -5.6693 -5.6693ZM 533.6178,303.1622 c -0.0000,-1.7997 1.2902,-3.3943 3.1239 -3.7176c 22.3326,-3.9379 44.6653,-7.8757 66.9979 -11.8136c -1.7020,-9.6527 -3.4040,-19.3053 -5.1061 -28.9580c -0.1575,-0.8933 -0.3150,-1.7866 -0.4726 -2.6799c -3.9991,-22.6800 -7.9982,-45.3601 -11.9973 -68.0401c -0.1575,-0.8933 -0.3150,-1.7866 -0.4726 -2.6799c -4.1566,-23.5734 -8.3132,-47.1467 -12.4699 -70.7201c -0.0391,-0.2220 -0.0580,-0.4428 -0.0580 -0.6607c 0.0000,-1.7997 1.2902,-3.3944 3.1239 -3.7177c 22.3326,-3.9379 44.6653,-7.8757 66.9979 -11.8136c -0.8751,-4.9628 -1.7501,-9.9256 -2.6252 -14.8884c -0.0392,-0.2220 -0.0581,-0.4428 -0.0581 -0.6607c 0.0000,-1.7997 1.2902,-3.3944 3.1239 -3.7177c 22.3326,-3.9379 44.6653,-7.8757 66.9979 -11.8136c -1.0938,-6.2035 -2.1877,-12.4070 -3.2815 -18.6105c -0.0391,-0.2220 -0.0580,-0.4428 -0.0580 -0.6607c 0.0000,-1.7997 1.2902,-3.3944 3.1239 -3.7177c 24.4667,-4.3142 48.9333,-8.6283 73.4000 -12.9424c 2.0557,-0.3624 4.0160,1.0102 4.3784 3.0658c 0.8751,4.9628 1.7501,9.9256 2.6252 14.8884c 22.3326,-3.9378 44.6653,-7.8757 66.9979 -11.8136c 2.0557,-0.3624 4.0160,1.0102 4.3784 3.0658c 0.4375,2.4814 0.8751,4.9628 1.3126 7.4442c 22.3326,-3.9378 44.6653,-7.8757 66.9979 -11.8135c 2.0557,-0.3625 4.0160,1.0101 4.3784 3.0658c 4.1566,23.5734 8.3133,47.1467 12.4699 70.7200c 0.1575,0.8933 0.3151,1.7866 0.4726 2.6799c 3.9991,22.6800 7.9982,45.3601 11.9973 68.0402c 0.1575,0.8933 0.3150,1.7866 0.4726 2.6799c 3.9991,22.6800 7.9982,45.3601 11.9973 68.0401c 0.1575,0.8933 0.3150,1.7866 0.4726 2.6799c 4.1566,23.5733 8.3132,47.1467 12.4699 70.7200c 0.0391,0.2220 0.0580,0.4429 0.0580 0.6607c 0.0000,1.7997 -1.2902,3.3944 -3.1239 3.7177c -24.4667,4.3141 -48.9333,8.6283 -73.4000 12.9424c -2.0557,0.3625 -4.0160,-1.0101 -4.3784 -3.0658c -0.4375,-2.4814 -0.8751,-4.9628 -1.3126 -7.4442c -22.3327,3.9378 -44.6653,7.8757 -66.9980 11.8135c -2.0557,0.3625 -4.0159,-1.0101 -4.3784 -3.0658c -0.8751,-4.9628 -1.7501,-9.9256 -2.6252 -14.8885c -20.1986,3.5616 -40.3973,7.1232 -60.5959 10.6847c 1.0938,6.2035 2.1877,12.4070 3.2815 18.6105c 0.0392,0.2220 0.0580,0.4429 0.0580 0.6607c 0.0000,1.7997 -1.2902,3.3943 -3.1238 3.7177c -22.3327,3.9378 -44.6653,7.8757 -66.9980 11.8135c 0.8751,4.9628 1.7502,9.9256 2.6252 14.8884c 0.0391,0.2220 0.0580,0.4429 0.0580 0.6607c 0.0000,1.7997 -1.2902,3.3943 -3.1239 3.7177c -22.3326,3.9378 -44.6653,7.8757 -66.9979 11.8135c 1.8595,10.5460 3.7191,21.0920 5.5786 31.6379c 0.0392,0.2220 0.0580,0.4429 0.0580 0.6607c 0.0000,1.7997 -1.2902,3.3943 -3.1238 3.7177c -24.4667,4.3141 -48.9333,8.6283 -73.4000 12.9424c -2.0557,0.3625 -4.0159,-1.0101 -4.3784 -3.0658c -4.1566,-23.5734 -8.3133,-47.1467 -12.4699 -70.7201c -0.1575,-0.8933 -0.3151,-1.7866 -0.4726 -2.6799c -4.1566,-23.5733 -8.3132,-47.1467 -12.4699 -70.7200c -0.0391,-0.2220 -0.0580,-0.4428 -0.0580 -0.6607ZM 582.2832,24.1260 c 0.0000,-3.1311 2.5382,-5.6693 5.6693 -5.6693c 3.1311,-0.0000 5.6693,2.5382 5.6693 5.6693c 0.0000,3.1310 -2.5382,5.6693 -5.6693 5.6693c -3.1311,-0.0000 -5.6693,-2.5382 -5.6693 -5.6693ZM 587.3697,462.0115 c 0.0000,-3.1311 2.5382,-5.6693 5.6693 -5.6693c 3.1311,-0.0000 5.6693,2.5382 5.6693 5.6693c 0.0000,3.1311 -2.5382,5.6693 -5.6693 5.6693c -3.1311,-0.0000 -5.6693,-2.5382 -5.6693 -5.6693ZM 939.9443,24.1260 c 0.0000,-3.1311 2.5382,-5.6693 5.6693 -5.6693c 3.1311,-0.0000 5.6693,2.5382 5.6693 5.6693c 0.0000,3.1310 -2.5382,5.6693 -5.6693 5.6693c -3.1310,-0.0000 -5.6693,-2.5382 -5.6693 -5.6693ZM 994.9268,328.3883 c 0.0000,-3.1311 2.5382,-5.6693 5.6693 -5.6693c 3.1311,-0.0000 5.6693,2.5382 5.6693 5.6693c 0.0000,3.1310 -2.5382,5.6693 -5.6693 5.6693c -3.1311,-0.0000 -5.6693,-2.5382 -5.6693 -5.6693Z"/></g></svg>