<?xml version="1.0" encoding="UTF-8"?>
<!DOCTYPE svg PUBLIC "-//W3C//DTD SVG 1.1//EN"
    "http://www.w3.org/Graphics/SVG/1.1/DTD/svg11.dtd"><svg xmlns="http://www.w3.org/2000/svg" height="2235.3808" stroke-opacity="1" viewBox="0 0 1025 2235" font-size="1" width="1024.7248" xmlns:xlink="http://www.w3.org/1999/xlink" stroke="rgb(0,0,0)" version="1.1"><defs></defs><defs><linearGradient x2="67.2563" y1="0.0000" gradientUnits="userSpaceOnUse" spreadMethod="pad" gradientTransform="matrix(3.7795,-0.0000,0.0000,-3.7795,512.3624,2178.9548)" id="gradient0" y2="0.0000" x1="-67.2563"><stop stop-opacity="1.0000" offset="0.0000" stop-color="rgb(128,128,128)"/><stop stop-opacity="1.0000" offset="0.5000" stop-color="rgb(255,255,255)"/><stop stop-opacity="1.0000" offset="1.0000" stop-color="rgb(128,128,128)"/></linearGradient></defs><g stroke-linejoin="miter" stroke-opacity="1.0" fill-opacity="1" stroke="rgb(0,0,0)" stroke-width="0.37795275590551186" fill="url(#gradient0)" stroke-linecap="butt" stroke-miterlimit="10.0"><path d="M 3.9685,2129.2559 c 0.0000,-0.9436 0.0819,-1.8994 0.2511 -2.8590c 18.3275,-103.9404 36.6550,-207.8809 54.9825 -311.8213c 1.3801,-7.8274 8.1810,-13.5339 16.1291 -13.5339c 145.6771,-0.0000 291.3542,-0.0000 437.0312 -0.0000c 145.6771,-0.0000 291.3542,-0.0000 437.0312 -0.0000c 7.9481,-0.0000 14.7490,5.7066 16.1291 13.5339c 18.3275,103.9404 36.6550,207.8809 54.9825 311.8213c 0.1692,0.9595 0.2511,1.9153 0.2511 2.8590c 0.0000,7.3987 -5.0318,14.0495 -12.4477 15.8839c -115.6172,28.5978 -231.2344,57.1956 -346.8515 85.7934c -1.2866,0.3182 -2.6071,0.4792 -3.9325 0.4792c -48.3874,-0.0000 -96.7748,-0.0000 -145.1622 -0.0000c -48.3874,-0.0000 -96.7748,-0.0000 -145.1622 -0.0000c -1.3254,-0.0000 -2.6459,-0.1609 -3.9325 -0.4792c -115.6172,-28.5978 -231.2344,-57.1956 -346.8515 -85.7934c -7.4159,-1.8343 -12.4477,-8.4851 -12.4477 -15.8839ZM 18.4589,2125.4615 c 0.0000,3.1310 2.5382,5.6693 5.6693 5.6693c 3.1311,-0.0000 5.6693,-2.5382 5.6693 -5.6693c 0.0000,-3.1311 -2.5382,-5.6693 -5.6693 -5.6693c -3.1311,-0.0000 -5.6693,2.5382 -5.6693 5.6693ZM 73.4414,1821.1992 c 0.0000,3.1311 2.5382,5.6693 5.6693 5.6693c 3.1311,-0.0000 5.6693,-2.5382 5.6693 -5.6693c 0.0000,-3.1311 -2.5382,-5.6693 -5.6693 -5.6693c -3.1311,-0.0000 -5.6693,2.5382 -5.6693 5.6693ZM 361.5309,2211.2548 c 0.0000,3.1311 2.5382,5.6693 5.6693 5.6693c 3.1310,-0.0000 5.6693,-2.5382 5.6693 -5.6693c 0.0000,-3.1311 -2.5382,-5.6693 -5.6693 -5.6693c -3.1311,-0.0000 -5.6693,2.5382 -5.6693 5.6693ZM 431.1026,1821.1992 c 0.0000,3.1311 2.5382,5.6693 5.6693 5.6693c 3.1311,-0.0000 5.6693,-2.5382 5.6693 -5.6693c 0.0000,-3.1311 -2.5382,-5.6693 -5.6693 -5.6693c -3.1311,-0.0000 -5.6693,2.5382 -5.6693 5.6693ZM 582.2837,1821.1992 c 0.0000,3.1311 2.5382,5.6693 5.6693 5.6693c 3.1311,-0.0000 5.6693,-2.5382 5.6693 -5.6693c 0.0000,-3.1311 -2.5382,-5.6693 -5.6693 -5.6693c -3.1311,-0.0000 -5.6693,2.5382 -5.6693 5.6693ZM 651.8554,2211.2548 c 0.0000,3.1311 2.5382,5.6693 5.6693 5.6693c 3.1311,-0.0000 5.6693,-2.5382 5.6693 -5.6693c 0.0000,-3.1311 -2.5382,-5.6693 -5.6693 -5.6693c -3.1310,-0.0000 -5.6693,2.5382 -5.6693 5.6693ZM 939.9448,1821.1992 c 0.0000,3.1311 2.5382,5.6693 5.6693 5.6693c 3.1311,-0.0000 5.6693,-2.5382 5.6693 -5.6693c 0.0000,-3.1311 -2.5382,-5.6693 -5.6693 -5.6693c -3.1311,-0.0000 -5.6693,2.5382 -5.6693 5.6693ZM 994.9273,2125.4615 c 0.0000,3.1310 2.5382,5.6693 5.6693 5.6693c 3.1311,-0.0000 5.6693,-2.5382 5.6693 -5.6693c 0.0000,-3.1311 -2.5382,-5.6693 -5.6693 -5.6693c -3.1311,-0.0000 -5.6693,2.5382 -5.6693 5.6693Z"/></g><g stroke-linejoin="miter" stroke-opacity="1.0" fill-opacity="0.5" stroke="rgb(0,0,0)" stroke-width="0.37795275590551186" fill="rgb(255,255,0)" stroke-linecap="butt" stroke-miterlimit="10.0"><path d="M 3.9685,1679.9876 c 0.0000,-0.9436 0.0818,-1.8994 0.2510 -2.8590c 18.3275,-103.9404 36.6550,-207.8808 54.9825 -311.8213c 1.3801,-7.8273 8.1810,-13.5339 16.1291 -13.5339c 133.0786,-0.0000 266.1573,-0.0000 399.2359 -0.0000c 9.4488,-0.0000 18.8976,-0.0000 28.3465 -0.0000c 1.2598,-0.0000 2.5197,-0.0000 3.7795 -0.0000c 0.0000,1.2599 0.0000,2.5197 0.0000 3.7796c -1.2598,-0.0000 -2.5197,-0.0000 -3.7795 -0.0000c 0.0000,0.3376 0.0000,0.6751 0.0000 1.0127c 0.0000,0.9223 0.0000,1.8445 0.0000 2.7668c 1.2598,-0.0000 2.5197,-0.0000 3.7795 -0.0000c 0.0000,1.2598 0.0000,2.5197 0.0000 3.7795c -1.2598,-0.0000 -2.5197,-0.0000 -3.7795 -0.0000c 0.0000,0.3376 0.0000,0.6751 0.0000 1.0127c 0.0000,0.9223 0.0000,1.8445 0.0000 2.7668c 1.2598,-0.0000 2.5197,-0.0000 3.7795 -0.0000c 0.0000,1.2598 0.0000,2.5197 0.0000 3.7795c -1.2598,-0.0000 -2.5197,-0.0000 -3.7795 -0.0000c 0.0000,0.3376 0.0000,0.6751 0.0000 1.0127c 0.0000,0.9223 0.0000,1.8445 0.0000 2.7668c 1.2598,-0.0000 2.5197,-0.0000 3.7795 -0.0000c 0.0000,1.2598 0.0000,2.5197 0.0000 3.7795c -1.2598,-0.0000 -2.5197,-0.0000 -3.7795 -0.0000c 0.0000,0.3376 0.0000,0.6751 0.0000 1.0127c 0.0000,0.9223 0.0000,1.8445 0.0000 2.7668c 1.2598,-0.0000 2.5197,-0.0000 3.7795 -0.0000c 0.0000,0.6299 0.0000,1.2598 0.0000 1.8897c 3.7795,-0.0000 7.5591,-0.0000 11.3386 -0.0000c 0.0000,-0.6299 0.0000,-1.2598 0.0000 -1.8897c 1.2598,-0.0000 2.5197,-0.0000 3.7795 -0.0000c 0.0000,-1.2599 0.0000,-2.5197 0.0000 -3.7795c -1.2598,-0.0000 -2.5197,-0.0000 -3.7795 -0.0000c 0.0000,-1.2598 0.0000,-2.5197 0.0000 -3.7795c 1.2598,-0.0000 2.5197,-0.0000 3.7795 -0.0000c 0.0000,-1.2599 0.0000,-2.5197 0.0000 -3.7795c -1.2598,-0.0000 -2.5197,-0.0000 -3.7795 -0.0000c 0.0000,-1.2598 0.0000,-2.5197 0.0000 -3.7795c 1.2598,-0.0000 2.5197,-0.0000 3.7795 -0.0000c 0.0000,-1.2599 0.0000,-2.5197 0.0000 -3.7795c -1.2598,-0.0000 -2.5197,-0.0000 -3.7795 -0.0000c 0.0000,-1.2598 0.0000,-2.5197 0.0000 -3.7795c 1.2598,-0.0000 2.5197,-0.0000 3.7795 -0.0000c 0.0000,-1.2599 0.0000,-2.5197 0.0000 -3.7795c -1.2598,-0.0000 -2.5197,-0.0000 -3.7795 -0.0000c 0.0000,-1.2599 0.0000,-2.5197 0.0000 -3.7796c 1.2598,-0.0000 2.5197,-0.0000 3.7795 -0.0000c 9.4488,-0.0000 18.8976,-0.0000 28.3465 -0.0000c 133.0786,-0.0000 266.1573,-0.0000 399.2359 -0.0000c 7.9481,-0.0000 14.7490,5.7066 16.1291 13.5339c 18.3275,103.9405 36.6550,207.8809 54.9825 311.8213c 0.1692,0.9596 0.2510,1.9153 0.2510 2.8590c 0.0000,7.3987 -5.0317,14.0496 -12.4476 15.8838c -115.6172,28.5978 -231.2344,57.1957 -346.8515 85.7934c -1.2866,0.3182 -2.6071,0.4792 -3.9326 0.4792c -48.3874,-0.0000 -96.7748,-0.0000 -145.1622 -0.0000c -48.3874,-0.0000 -96.7748,-0.0000 -145.1622 -0.0000c -1.3254,-0.0000 -2.6459,-0.1609 -3.9326 -0.4792c -115.6172,-28.5978 -231.2343,-57.1956 -346.8515 -85.7934c -7.4159,-1.8343 -12.4476,-8.4851 -12.4476 -15.8838ZM 18.4589,1676.1931 c 0.0000,3.1310 2.5383,5.6693 5.6693 5.6693c 3.1310,-0.0000 5.6693,-2.5383 5.6693 -5.6693c 0.0000,-3.1310 -2.5382,-5.6693 -5.6693 -5.6693c -3.1310,-0.0000 -5.6693,2.5382 -5.6693 5.6693ZM 32.6330,1662.1937 c 4.7207,2.8740 7.8732,8.0686 7.8732 13.9995c 0.0000,0.4763 -0.0203,0.9479 -0.0602 1.4139c 1.1209,0.5546 2.3335,0.9895 3.6226 1.2827c 104.0347,23.6624 208.0696,47.3249 312.1042 70.9874c 2.9103,-2.6518 6.7800,-4.2686 11.0274 -4.2686c 6.0622,-0.0000 11.3550,3.2936 14.1868 8.1890c 43.6584,-0.0000 87.3169,-0.0000 130.9753 -0.0000c 43.6584,-0.0000 87.3169,-0.0000 130.9753 -0.0000c 2.8318,-4.8954 8.1247,-8.1890 14.1868 -8.1890c 4.2474,-0.0000 8.1171,1.6168 11.0274 4.2686c 104.0347,-23.6625 208.0695,-47.3249 312.1042 -70.9874c 1.2891,-0.2932 2.5017,-0.7281 3.6226 -1.2827c -0.0398,-0.4660 -0.0602,-0.9376 -0.0602 -1.4139c 0.0000,-5.9309 3.1525,-11.1255 7.8732 -13.9995c -17.2787,-90.1076 -34.5573,-180.2151 -51.8359 -270.3227c -0.3913,-2.0403 -1.2438,-3.9146 -2.4484 -5.5388c -1.9941,-1.0832 -3.7380,-2.5685 -5.1231 -4.3471c -2.2705,-1.1914 -4.8908,-1.8652 -7.6583 -1.8652c -107.6288,-0.0000 -215.2575,-0.0000 -322.8863 -0.0000c -2.8319,4.8954 -8.1247,8.1890 -14.1869 8.1890c -6.0622,-0.0000 -11.3550,-3.2936 -14.1868 -8.1890c -5.3498,-0.0000 -10.6996,-0.0000 -16.0494 -0.0000c 0.0000,3.1496 0.0000,6.2992 0.0000 9.4488c 0.0000,4.1747 -3.3843,7.5591 -7.5590 7.5591c -25.1969,-0.0000 -50.3938,-0.0000 -75.5906 -0.0000c -4.1747,-0.0000 -7.5590,-3.3843 -7.5590 -7.5591c 0.0000,-1.3775 0.0000,-2.7550 0.0000 -4.1325c 0.0000,-1.7721 0.0000,-3.5442 0.0000 -5.3163c -5.3498,-0.0000 -10.6996,-0.0000 -16.0494 -0.0000c -2.8318,4.8954 -8.1247,8.1890 -14.1868 8.1890c -6.0622,-0.0000 -11.3551,-3.2936 -14.1869 -8.1890c -107.6287,-0.0000 -215.2575,-0.0000 -322.8863 -0.0000c -2.7675,-0.0000 -5.3878,0.6738 -7.6583 1.8652c -1.3850,1.7786 -3.1290,3.2638 -5.1230 4.3471c -1.2047,1.6242 -2.0572,3.4985 -2.4485 5.5388c -17.2786,90.1076 -34.5572,180.2151 -51.8359 270.3227ZM 73.4414,1371.9309 c 0.0000,3.1310 2.5382,5.6693 5.6693 5.6693c 3.1311,-0.0000 5.6693,-2.5382 5.6693 -5.6693c 0.0000,-3.1311 -2.5382,-5.6693 -5.6693 -5.6693c -3.1310,-0.0000 -5.6693,2.5382 -5.6693 5.6693ZM 361.5309,1761.9865 c 0.0000,3.1310 2.5382,5.6693 5.6693 5.6693c 3.1311,-0.0000 5.6693,-2.5382 5.6693 -5.6693c 0.0000,-3.1311 -2.5382,-5.6693 -5.6693 -5.6693c -3.1310,-0.0000 -5.6693,2.5382 -5.6693 5.6693ZM 431.1026,1371.9309 c 0.0000,3.1310 2.5382,5.6693 5.6693 5.6693c 3.1310,-0.0000 5.6693,-2.5382 5.6693 -5.6693c 0.0000,-3.1311 -2.5382,-5.6693 -5.6693 -5.6693c -3.1311,-0.0000 -5.6693,2.5382 -5.6693 5.6693ZM 582.2837,1371.9309 c 0.0000,3.1310 2.5382,5.6693 5.6693 5.6693c 3.1311,-0.0000 5.6693,-2.5382 5.6693 -5.6693c 0.0000,-3.1311 -2.5382,-5.6693 -5.6693 -5.6693c -3.1310,-0.0000 -5.6693,2.5382 -5.6693 5.6693ZM 651.8553,1761.9865 c 0.0000,3.1310 2.5382,5.6693 5.6693 5.6693c 3.1310,-0.0000 5.6693,-2.5382 5.6693 -5.6693c 0.0000,-3.1311 -2.5382,-5.6693 -5.6693 -5.6693c -3.1311,-0.0000 -5.6693,2.5382 -5.6693 5.6693ZM 939.9448,1371.9309 c 0.0000,3.1310 2.5382,5.6693 5.6693 5.6693c 3.1310,-0.0000 5.6693,-2.5382 5.6693 -5.6693c 0.0000,-3.1311 -2.5382,-5.6693 -5.6693 -5.6693c -3.1311,-0.0000 -5.6693,2.5382 -5.6693 5.6693ZM 994.9274,1676.1931 c 0.0000,3.1310 2.5382,5.6693 5.6693 5.6693c 3.1310,-0.0000 5.6693,-2.5383 5.6693 -5.6693c 0.0000,-3.1310 -2.5383,-5.6693 -5.6693 -5.6693c -3.1310,-0.0000 -5.6693,2.5382 -5.6693 5.6693Z"/></g><g stroke-linejoin="miter" stroke-opacity="1.0" fill-opacity="0.5" stroke="rgb(0,0,0)" stroke-width="0.37795275590551186" fill="rgb(255,255,0)" stroke-linecap="butt" stroke-miterlimit="10.0"><path d="M 3.9685,1230.7193 c 0.0000,-0.9436 0.0818,-1.8994 0.2510 -2.8590c 18.3275,-103.9404 36.6550,-207.8808 54.9825 -311.8213c 1.3801,-7.8273 8.1810,-13.5339 16.1291 -13.5339c 133.0786,-0.0000 266.1573,-0.0000 399.2359 -0.0000c 12.5984,-0.0000 25.1969,-0.0000 37.7953 -0.0000c 12.5984,-0.0000 25.1969,-0.0000 37.7953 -0.0000c 133.0786,-0.0000 266.1573,-0.0000 399.2359 -0.0000c 7.9481,-0.0000 14.7490,5.7066 16.1291 13.5339c 18.3275,103.9405 36.6550,207.8809 54.9825 311.8213c 0.1692,0.9596 0.2510,1.9153 0.2510 2.8590c 0.0000,7.3987 -5.0317,14.0496 -12.4476 15.8838c -115.6172,28.5978 -231.2344,57.1957 -346.8515 85.7934c -1.2866,0.3182 -2.6071,0.4792 -3.9326 0.4792c -48.3874,-0.0000 -96.7748,-0.0000 -145.1622 -0.0000c -48.3874,-0.0000 -96.7748,-0.0000 -145.1622 -0.0000c -1.3254,-0.0000 -2.6459,-0.1609 -3.9326 -0.4792c -115.6172,-28.5978 -231.2343,-57.1956 -346.8515 -85.7934c -7.4159,-1.8343 -12.4476,-8.4851 -12.4476 -15.8838ZM 18.4589,1226.9248 c 0.0000,3.1310 2.5383,5.6693 5.6693 5.6693c 3.1310,-0.0000 5.6693,-2.5383 5.6693 -5.6693c 0.0000,-3.1310 -2.5382,-5.6693 -5.6693 -5.6693c -3.1310,-0.0000 -5.6693,2.5382 -5.6693 5.6693ZM 32.6330,1212.9254 c 4.7207,2.8740 7.8732,8.0686 7.8732 13.9995c 0.0000,0.4763 -0.0203,0.9479 -0.0602 1.4139c 1.1209,0.5546 2.3335,0.9895 3.6226 1.2827c 104.0347,23.6624 208.0696,47.3249 312.1042 70.9874c 2.9103,-2.6518 6.7800,-4.2686 11.0274 -4.2686c 6.0622,-0.0000 11.3550,3.2936 14.1868 8.1890c 43.6584,-0.0000 87.3169,-0.0000 130.9753 -0.0000c 43.6584,-0.0000 87.3169,-0.0000 130.9753 -0.0000c 2.8318,-4.8954 8.1247,-8.1890 14.1868 -8.1890c 4.2474,-0.0000 8.1171,1.6168 11.0274 4.2686c 104.0347,-23.6625 208.0695,-47.3249 312.1042 -70.9874c 1.2891,-0.2932 2.5017,-0.7281 3.6226 -1.2827c -0.0398,-0.4660 -0.0602,-0.9376 -0.0602 -1.4139c 0.0000,-5.9309 3.1525,-11.1255 7.8732 -13.9995c -17.2787,-90.1076 -34.5573,-180.2151 -51.8359 -270.3227c -0.3913,-2.0403 -1.2438,-3.9146 -2.4484 -5.5388c -1.9941,-1.0832 -3.7380,-2.5685 -5.1231 -4.3471c -2.2705,-1.1914 -4.8908,-1.8652 -7.6583 -1.8652c -107.6288,-0.0000 -215.2575,-0.0000 -322.8863 -0.0000c -2.8319,4.8954 -8.1247,8.1890 -14.1869 8.1890c -6.0622,-0.0000 -11.3550,-3.2936 -14.1868 -8.1890c -5.3498,-0.0000 -10.6996,-0.0000 -16.0494 -0.0000c 0.0000,3.1496 0.0000,6.2992 0.0000 9.4488c 0.0000,4.1747 -3.3843,7.5591 -7.5590 7.5591c -9.4488,-0.0000 -18.8976,-0.0000 -28.3465 -0.0000c -1.2598,-0.0000 -2.5197,-0.0000 -3.7795 -0.0000c 0.0000,-1.2598 0.0000,-2.5197 0.0000 -3.7795c 1.2598,-0.0000 2.5197,-0.0000 3.7795 -0.0000c 0.0000,-1.2599 0.0000,-2.5197 0.0000 -3.7795c -1.2598,-0.0000 -2.5197,-0.0000 -3.7795 -0.0000c 0.0000,-1.2598 0.0000,-2.5197 0.0000 -3.7795c 1.2598,-0.0000 2.5197,-0.0000 3.7795 -0.0000c 0.0000,-1.2599 0.0000,-2.5197 0.0000 -3.7795c -1.2598,-0.0000 -2.5197,-0.0000 -3.7795 -0.0000c 0.0000,-1.2598 0.0000,-2.5197 0.0000 -3.7795c 1.2598,-0.0000 2.5197,-0.0000 3.7795 -0.0000c 0.0000,-1.2599 0.0000,-2.5197 0.0000 -3.7795c -6.2992,-0.0000 -12.5984,-0.0000 -18.8977 -0.0000c 0.0000,0.3376 0.0000,0.6751 0.0000 1.0127c 0.0000,0.9223 0.0000,1.8445 0.0000 2.7668c 1.2598,-0.0000 2.5197,-0.0000 3.7795 -0.0000c 0.0000,1.2598 0.0000,2.5197 0.0000 3.7795c -1.2598,-0.0000 -2.5197,-0.0000 -3.7795 -0.0000c 0.0000,0.3376 0.0000,0.6751 0.0000 1.0127c 0.0000,0.9223 0.0000,1.8445 0.0000 2.7668c 1.2598,-0.0000 2.5197,-0.0000 3.7795 -0.0000c 0.0000,1.2598 0.0000,2.5197 0.0000 3.7795c -1.2598,-0.0000 -2.5197,-0.0000 -3.7795 -0.0000c 0.0000,0.3376 0.0000,0.6751 0.0000 1.0127c 0.0000,0.9223 0.0000,1.8445 0.0000 2.7668c 1.2598,-0.0000 2.5197,-0.0000 3.7795 -0.0000c 0.0000,1.2598 0.0000,2.5197 0.0000 3.7795c -1.2598,-0.0000 -2.5197,-0.0000 -3.7795 -0.0000c -9.4488,-0.0000 -18.8976,-0.0000 -28.3465 -0.0000c -4.1747,-0.0000 -7.5590,-3.3843 -7.5590 -7.5591c 0.0000,-1.3775 0.0000,-2.7550 0.0000 -4.1325c 0.0000,-1.7721 0.0000,-3.5442 0.0000 -5.3163c -5.3498,-0.0000 -10.6996,-0.0000 -16.0494 -0.0000c -2.8318,4.8954 -8.1247,8.1890 -14.1868 8.1890c -6.0622,-0.0000 -11.3551,-3.2936 -14.1869 -8.1890c -107.6287,-0.0000 -215.2575,-0.0000 -322.8863 -0.0000c -2.7675,-0.0000 -5.3878,0.6738 -7.6583 1.8652c -1.3850,1.7786 -3.1290,3.2638 -5.1230 4.3471c -1.2047,1.6242 -2.0572,3.4985 -2.4485 5.5388c -17.2786,90.1076 -34.5572,180.2151 -51.8359 270.3227ZM 73.4414,922.6626 c 0.0000,3.1310 2.5382,5.6693 5.6693 5.6693c 3.1311,-0.0000 5.6693,-2.5382 5.6693 -5.6693c 0.0000,-3.1311 -2.5382,-5.6693 -5.6693 -5.6693c -3.1310,-0.0000 -5.6693,2.5382 -5.6693 5.6693ZM 361.5309,1312.7182 c 0.0000,3.1310 2.5382,5.6693 5.6693 5.6693c 3.1311,-0.0000 5.6693,-2.5382 5.6693 -5.6693c 0.0000,-3.1311 -2.5382,-5.6693 -5.6693 -5.6693c -3.1310,-0.0000 -5.6693,2.5382 -5.6693 5.6693ZM 431.1026,922.6626 c 0.0000,3.1310 2.5382,5.6693 5.6693 5.6693c 3.1310,-0.0000 5.6693,-2.5382 5.6693 -5.6693c 0.0000,-3.1311 -2.5382,-5.6693 -5.6693 -5.6693c -3.1311,-0.0000 -5.6693,2.5382 -5.6693 5.6693ZM 582.2837,922.6626 c 0.0000,3.1310 2.5382,5.6693 5.6693 5.6693c 3.1311,-0.0000 5.6693,-2.5382 5.6693 -5.6693c 0.0000,-3.1311 -2.5382,-5.6693 -5.6693 -5.6693c -3.1310,-0.0000 -5.6693,2.5382 -5.6693 5.6693ZM 651.8553,1312.7182 c 0.0000,3.1310 2.5382,5.6693 5.6693 5.6693c 3.1310,-0.0000 5.6693,-2.5382 5.6693 -5.6693c 0.0000,-3.1311 -2.5382,-5.6693 -5.6693 -5.6693c -3.1311,-0.0000 -5.6693,2.5382 -5.6693 5.6693ZM 939.9448,922.6626 c 0.0000,3.1310 2.5382,5.6693 5.6693 5.6693c 3.1310,-0.0000 5.6693,-2.5382 5.6693 -5.6693c 0.0000,-3.1311 -2.5382,-5.6693 -5.6693 -5.6693c -3.1311,-0.0000 -5.6693,2.5382 -5.6693 5.6693ZM 994.9274,1226.9248 c 0.0000,3.1310 2.5382,5.6693 5.6693 5.6693c 3.1310,-0.0000 5.6693,-2.5383 5.6693 -5.6693c 0.0000,-3.1310 -2.5383,-5.6693 -5.6693 -5.6693c -3.1310,-0.0000 -5.6693,2.5382 -5.6693 5.6693Z"/></g><g stroke-linejoin="miter" stroke-opacity="1.0" fill-opacity="0.5" stroke="rgb(0,0,0)" stroke-width="0.37795275590551186" fill="rgb(0,0,0)" stroke-linecap="butt" stroke-miterlimit="10.0"><path d="M 3.9685,781.4510 c 0.0000,-0.9436 0.0819,-1.8994 0.2511 -2.8590c 18.3275,-103.9404 36.6550,-207.8809 54.9825 -311.8213c 1.3801,-7.8274 8.1810,-13.5339 16.1291 -13.5339c 145.6771,-0.0000 291.3542,-0.0000 437.0312 -0.0000c 145.6771,-0.0000 291.3542,-0.0000 437.0312 -0.0000c 7.9481,-0.0000 14.7490,5.7066 16.1291 13.5339c 18.3275,103.9404 36.6550,207.8809 54.9825 311.8213c 0.1692,0.9595 0.2511,1.9153 0.2511 2.8590c 0.0000,7.3987 -5.0318,14.0495 -12.4477 15.8839c -115.6172,28.5978 -231.2344,57.1956 -346.8515 85.7934c -1.2866,0.3182 -2.6071,0.4792 -3.9325 0.4792c -48.3874,-0.0000 -96.7748,-0.0000 -145.1622 -0.0000c -48.3874,-0.0000 -96.7748,-0.0000 -145.1622 -0.0000c -1.3254,-0.0000 -2.6459,-0.1609 -3.9325 -0.4792c -115.6172,-28.5978 -231.2344,-57.1956 -346.8515 -85.7934c -7.4159,-1.8343 -12.4477,-8.4851 -12.4477 -15.8839ZM 18.4589,777.6566 c 0.0000,3.1310 2.5382,5.6693 5.6693 5.6693c 3.1311,-0.0000 5.6693,-2.5382 5.6693 -5.6693c 0.0000,-3.1311 -2.5382,-5.6693 -5.6693 -5.6693c -3.1311,-0.0000 -5.6693,2.5382 -5.6693 5.6693ZM 53.3238,761.7400 c 1.0084,0.1778 2.0169,0.3556 3.0253 0.5334c -0.2145,1.2164 -0.4290,2.4329 -0.6435 3.6493c 17.3326,3.0562 34.6652,6.1124 51.9978 9.1686c 0.2145,-1.2164 0.4290,-2.4329 0.6435 -3.6493c 1.0084,0.1778 2.0169,0.3556 3.0253 0.5334c 0.7657,-4.3426 1.5314,-8.6852 2.2972 -13.0277c -1.0084,-0.1778 -2.0169,-0.3557 -3.0253 -0.5334c 1.0958,-6.2146 2.1916,-12.4291 3.2874 -18.6437c 1.0084,0.1778 2.0169,0.3557 3.0253 0.5335c 0.7657,-4.3426 1.5314,-8.6852 2.2972 -13.0278c -1.0084,-0.1778 -2.0169,-0.3556 -3.0253 -0.5334c 0.2145,-1.2164 0.4290,-2.4329 0.6435 -3.6493c -17.3326,-3.0562 -34.6652,-6.1124 -51.9978 -9.1686c -0.2145,1.2164 -0.4290,2.4329 -0.6435 3.6493c -1.0084,-0.1778 -2.0169,-0.3557 -3.0253 -0.5335c -0.7657,4.3426 -1.5314,8.6852 -2.2972 13.0278c 1.0084,0.1778 2.0169,0.3556 3.0253 0.5334c -1.0958,6.2146 -2.1916,12.4291 -3.2874 18.6437c -1.0084,-0.1778 -2.0169,-0.3556 -3.0253 -0.5334c -0.7657,4.3426 -1.5314,8.6852 -2.2971 13.0278ZM 65.7937,691.0199 c 1.0084,0.1778 2.0169,0.3557 3.0253 0.5335c -0.2145,1.2164 -0.4290,2.4329 -0.6435 3.6493c 17.3326,3.0562 34.6652,6.1124 51.9978 9.1687c 0.2145,-1.2165 0.4290,-2.4329 0.6435 -3.6493c 1.0084,0.1778 2.0169,0.3556 3.0253 0.5334c 0.7657,-4.3426 1.5314,-8.6852 2.2972 -13.0277c -1.0084,-0.1778 -2.0169,-0.3557 -3.0253 -0.5335c 1.0958,-6.2145 2.1916,-12.4291 3.2874 -18.6437c 1.0084,0.1778 2.0169,0.3557 3.0253 0.5334c 0.7657,-4.3426 1.5314,-8.6852 2.2972 -13.0277c -1.0084,-0.1778 -2.0169,-0.3557 -3.0253 -0.5334c 0.2145,-1.2165 0.4290,-2.4329 0.6435 -3.6493c -17.3326,-3.0562 -34.6652,-6.1124 -51.9978 -9.1687c -0.2145,1.2165 -0.4290,2.4329 -0.6435 3.6493c -1.0084,-0.1778 -2.0169,-0.3556 -3.0253 -0.5334c -0.7657,4.3426 -1.5314,8.6852 -2.2971 13.0278c 1.0084,0.1778 2.0169,0.3556 3.0253 0.5334c -1.0958,6.2145 -2.1916,12.4291 -3.2874 18.6437c -1.0084,-0.1778 -2.0169,-0.3556 -3.0253 -0.5334c -0.7657,4.3426 -1.5314,8.6852 -2.2971 13.0277ZM 73.4414,473.3943 c 0.0000,3.1311 2.5382,5.6693 5.6693 5.6693c 3.1311,-0.0000 5.6693,-2.5382 5.6693 -5.6693c 0.0000,-3.1311 -2.5382,-5.6693 -5.6693 -5.6693c -3.1311,-0.0000 -5.6693,2.5382 -5.6693 5.6693ZM 78.2635,620.2998 c 1.0084,0.1778 2.0169,0.3556 3.0253 0.5334c -0.2145,1.2165 -0.4289,2.4329 -0.6434 3.6493c 17.3326,3.0562 34.6652,6.1124 51.9978 9.1687c 0.2145,-1.2165 0.4290,-2.4329 0.6434 -3.6493c 1.0084,0.1778 2.0169,0.3556 3.0253 0.5334c 0.7657,-4.3426 1.5314,-8.6852 2.2972 -13.0278c -1.0084,-0.1778 -2.0169,-0.3556 -3.0253 -0.5334c 1.0958,-6.2145 2.1916,-12.4291 3.2874 -18.6437c 1.0084,0.1778 2.0169,0.3556 3.0253 0.5334c 0.7657,-4.3426 1.5314,-8.6852 2.2972 -13.0277c -1.0084,-0.1778 -2.0169,-0.3557 -3.0253 -0.5334c 0.2145,-1.2165 0.4290,-2.4329 0.6435 -3.6494c -17.3326,-3.0562 -34.6652,-6.1124 -51.9978 -9.1686c -0.2145,1.2164 -0.4290,2.4329 -0.6435 3.6493c -1.0084,-0.1778 -2.0169,-0.3556 -3.0253 -0.5334c -0.7657,4.3426 -1.5314,8.6852 -2.2971 13.0277c 1.0084,0.1778 2.0169,0.3557 3.0253 0.5335c -1.0958,6.2145 -2.1916,12.4291 -3.2874 18.6437c -1.0084,-0.1778 -2.0169,-0.3557 -3.0253 -0.5334c -0.7657,4.3426 -1.5314,8.6852 -2.2971 13.0277ZM 90.7334,549.5798 c 1.0084,0.1778 2.0169,0.3556 3.0253 0.5334c -0.2145,1.2164 -0.4290,2.4329 -0.6434 3.6493c 17.3326,3.0562 34.6652,6.1124 51.9978 9.1686c 0.2145,-1.2164 0.4290,-2.4329 0.6434 -3.6493c 1.0084,0.1778 2.0169,0.3557 3.0253 0.5334c 0.7657,-4.3426 1.5314,-8.6852 2.2971 -13.0277c -1.0084,-0.1778 -2.0169,-0.3556 -3.0253 -0.5334c 1.0958,-6.2145 2.1916,-12.4291 3.2874 -18.6437c 1.0084,0.1778 2.0169,0.3556 3.0253 0.5334c 0.7657,-4.3426 1.5314,-8.6852 2.2972 -13.0278c -1.0084,-0.1778 -2.0169,-0.3556 -3.0253 -0.5334c 0.2145,-1.2164 0.4290,-2.4329 0.6435 -3.6493c -17.3326,-3.0562 -34.6652,-6.1124 -51.9978 -9.1686c -0.2145,1.2164 -0.4290,2.4329 -0.6435 3.6493c -1.0084,-0.1778 -2.0169,-0.3556 -3.0253 -0.5334c -0.7657,4.3426 -1.5314,8.6852 -2.2971 13.0277c 1.0084,0.1778 2.0169,0.3557 3.0253 0.5334c -1.0958,6.2146 -2.1916,12.4291 -3.2874 18.6437c -1.0084,-0.1778 -2.0169,-0.3557 -3.0253 -0.5335c -0.7657,4.3426 -1.5314,8.6852 -2.2971 13.0278ZM 126.0128,763.0435 c 1.0084,0.1778 2.0169,0.3557 3.0253 0.5335c -0.2145,1.2164 -0.4290,2.4329 -0.6435 3.6493c 17.3326,3.0562 34.6652,6.1124 51.9978 9.1686c 0.2145,-1.2164 0.4290,-2.4329 0.6435 -3.6493c 1.0084,0.1778 2.0169,0.3556 3.0253 0.5334c 0.7657,-4.3426 1.5314,-8.6852 2.2971 -13.0277c -1.0084,-0.1778 -2.0169,-0.3557 -3.0253 -0.5335c 1.0958,-6.2145 2.1916,-12.4291 3.2873 -18.6437c 1.0084,0.1778 2.0169,0.3557 3.0253 0.5334c 0.7657,-4.3426 1.5314,-8.6851 2.2971 -13.0277c -1.0084,-0.1778 -2.0169,-0.3556 -3.0253 -0.5334c 0.2145,-1.2164 0.4290,-2.4329 0.6434 -3.6493c -17.3326,-3.0562 -34.6652,-6.1124 -51.9978 -9.1686c -0.2145,1.2164 -0.4289,2.4329 -0.6434 3.6493c -1.0084,-0.1778 -2.0169,-0.3557 -3.0253 -0.5335c -0.7657,4.3426 -1.5314,8.6852 -2.2971 13.0278c 1.0084,0.1778 2.0169,0.3556 3.0253 0.5334c -1.0958,6.2145 -2.1916,12.4291 -3.2874 18.6437c -1.0084,-0.1778 -2.0169,-0.3556 -3.0253 -0.5334c -0.7657,4.3426 -1.5314,8.6852 -2.2972 13.0277ZM 138.4827,692.3234 c 1.0084,0.1778 2.0169,0.3557 3.0253 0.5334c -0.2145,1.2165 -0.4290,2.4329 -0.6435 3.6493c 17.3326,3.0562 34.6652,6.1124 51.9978 9.1687c 0.2145,-1.2165 0.4290,-2.4329 0.6435 -3.6493c 1.0084,0.1778 2.0169,0.3556 3.0253 0.5334c 0.7657,-4.3426 1.5314,-8.6852 2.2971 -13.0278c -1.0084,-0.1778 -2.0169,-0.3556 -3.0253 -0.5334c 1.0958,-6.2145 2.1916,-12.4291 3.2874 -18.6437c 1.0084,0.1778 2.0169,0.3557 3.0253 0.5334c 0.7657,-4.3426 1.5314,-8.6852 2.2971 -13.0277c -1.0084,-0.1778 -2.0169,-0.3557 -3.0253 -0.5334c 0.2145,-1.2165 0.4290,-2.4329 0.6434 -3.6493c -17.3326,-3.0562 -34.6652,-6.1124 -51.9978 -9.1687c -0.2145,1.2165 -0.4289,2.4329 -0.6434 3.6493c -1.0084,-0.1778 -2.0169,-0.3556 -3.0253 -0.5334c -0.7657,4.3426 -1.5314,8.6852 -2.2971 13.0278c 1.0084,0.1778 2.0169,0.3556 3.0253 0.5334c -1.0958,6.2145 -2.1916,12.4291 -3.2874 18.6437c -1.0084,-0.1778 -2.0169,-0.3556 -3.0253 -0.5334c -0.7657,4.3426 -1.5314,8.6852 -2.2972 13.0277ZM 150.9525,621.6034 c 1.0084,0.1778 2.0169,0.3557 3.0253 0.5334c -0.2145,1.2164 -0.4290,2.4329 -0.6435 3.6493c 17.3326,3.0562 34.6652,6.1124 51.9978 9.1687c 0.2145,-1.2165 0.4290,-2.4329 0.6435 -3.6494c 1.0084,0.1778 2.0169,0.3557 3.0253 0.5335c 0.7657,-4.3426 1.5314,-8.6852 2.2971 -13.0278c -1.0084,-0.1778 -2.0169,-0.3556 -3.0253 -0.5334c 1.0958,-6.2145 2.1916,-12.4291 3.2874 -18.6437c 1.0084,0.1778 2.0169,0.3556 3.0253 0.5334c 0.7657,-4.3426 1.5314,-8.6852 2.2971 -13.0277c -1.0084,-0.1778 -2.0169,-0.3557 -3.0253 -0.5335c 0.2145,-1.2164 0.4289,-2.4329 0.6434 -3.6493c -17.3326,-3.0562 -34.6652,-6.1124 -51.9978 -9.1687c -0.2145,1.2165 -0.4289,2.4329 -0.6434 3.6493c -1.0084,-0.1778 -2.0169,-0.3556 -3.0253 -0.5334c -0.7657,4.3426 -1.5314,8.6852 -2.2971 13.0277c 1.0084,0.1778 2.0169,0.3557 3.0253 0.5335c -1.0958,6.2145 -2.1916,12.4291 -3.2874 18.6437c -1.0084,-0.1778 -2.0169,-0.3557 -3.0253 -0.5334c -0.7657,4.3426 -1.5314,8.6852 -2.2972 13.0277ZM 163.4224,550.8833 c 1.0084,0.1778 2.0169,0.3556 3.0253 0.5334c -0.2145,1.2164 -0.4290,2.4329 -0.6435 3.6493c 17.3326,3.0562 34.6652,6.1124 51.9978 9.1686c 0.2145,-1.2164 0.4290,-2.4329 0.6435 -3.6493c 1.0084,0.1778 2.0169,0.3557 3.0253 0.5334c 0.7657,-4.3426 1.5314,-8.6852 2.2972 -13.0277c -1.0084,-0.1778 -2.0169,-0.3557 -3.0253 -0.5334c 1.0958,-6.2146 2.1916,-12.4291 3.2874 -18.6437c 1.0084,0.1778 2.0169,0.3556 3.0253 0.5334c 0.7657,-4.3426 1.5314,-8.6852 2.2971 -13.0278c -1.0084,-0.1778 -2.0169,-0.3556 -3.0253 -0.5334c 0.2145,-1.2164 0.4289,-2.4329 0.6434 -3.6493c -17.3326,-3.0562 -34.6652,-6.1124 -51.9978 -9.1686c -0.2145,1.2164 -0.4290,2.4329 -0.6434 3.6493c -1.0084,-0.1778 -2.0169,-0.3557 -3.0253 -0.5334c -0.7657,4.3426 -1.5314,8.6852 -2.2971 13.0277c 1.0084,0.1778 2.0169,0.3557 3.0253 0.5334c -1.0958,6.2146 -2.1916,12.4291 -3.2874 18.6437c -1.0084,-0.1778 -2.0169,-0.3557 -3.0253 -0.5335c -0.7657,4.3426 -1.5314,8.6852 -2.2972 13.0278ZM 200.0144,756.9028 c 1.0084,0.1778 2.0169,0.3557 3.0253 0.5334c -0.2145,1.2165 -0.4290,2.4329 -0.6434 3.6494c 17.3326,3.0562 34.6652,6.1124 51.9978 9.1686c 0.2145,-1.2164 0.4289,-2.4329 0.6434 -3.6493c 1.0084,0.1778 2.0169,0.3556 3.0253 0.5334c 0.7657,-4.3426 1.5314,-8.6852 2.2971 -13.0277c -1.0084,-0.1778 -2.0169,-0.3557 -3.0253 -0.5335c 1.0958,-6.2145 2.1916,-12.4291 3.2874 -18.6437c 1.0084,0.1778 2.0169,0.3557 3.0253 0.5334c 0.7657,-4.3426 1.5314,-8.6852 2.2972 -13.0277c -1.0084,-0.1778 -2.0169,-0.3556 -3.0253 -0.5334c 0.2145,-1.2165 0.4290,-2.4329 0.6435 -3.6493c -17.3326,-3.0562 -34.6652,-6.1124 -51.9978 -9.1687c -0.2145,1.2165 -0.4290,2.4329 -0.6435 3.6493c -1.0084,-0.1778 -2.0169,-0.3556 -3.0253 -0.5334c -0.7657,4.3426 -1.5314,8.6852 -2.2971 13.0278c 1.0084,0.1778 2.0169,0.3556 3.0253 0.5334c -1.0958,6.2145 -2.1916,12.4291 -3.2874 18.6437c -1.0084,-0.1778 -2.0169,-0.3556 -3.0253 -0.5334c -0.7657,4.3426 -1.5314,8.6852 -2.2971 13.0277ZM 212.4843,686.1827 c 1.0084,0.1778 2.0169,0.3557 3.0253 0.5334c -0.2145,1.2165 -0.4290,2.4329 -0.6435 3.6493c 17.3327,3.0562 34.6652,6.1124 51.9978 9.1687c 0.2145,-1.2165 0.4290,-2.4329 0.6435 -3.6493c 1.0084,0.1778 2.0169,0.3556 3.0253 0.5334c 0.7657,-4.3426 1.5314,-8.6852 2.2971 -13.0278c -1.0084,-0.1778 -2.0169,-0.3556 -3.0253 -0.5334c 1.0958,-6.2145 2.1916,-12.4291 3.2874 -18.6437c 1.0084,0.1778 2.0169,0.3557 3.0253 0.5334c 0.7657,-4.3426 1.5314,-8.6852 2.2972 -13.0277c -1.0084,-0.1778 -2.0169,-0.3557 -3.0253 -0.5334c 0.2145,-1.2165 0.4290,-2.4329 0.6435 -3.6493c -17.3326,-3.0562 -34.6652,-6.1124 -51.9978 -9.1687c -0.2145,1.2165 -0.4290,2.4329 -0.6435 3.6493c -1.0084,-0.1778 -2.0169,-0.3556 -3.0253 -0.5334c -0.7657,4.3426 -1.5314,8.6852 -2.2971 13.0278c 1.0084,0.1778 2.0169,0.3556 3.0253 0.5334c -1.0958,6.2145 -2.1916,12.4291 -3.2874 18.6437c -1.0084,-0.1778 -2.0169,-0.3557 -3.0253 -0.5334c -0.7657,4.3426 -1.5314,8.6852 -2.2971 13.0277ZM 224.9541,615.4627 c 1.0084,0.1778 2.0169,0.3556 3.0253 0.5334c -0.2145,1.2164 -0.4290,2.4329 -0.6435 3.6493c 17.3326,3.0562 34.6652,6.1124 51.9978 9.1686c 0.2145,-1.2164 0.4290,-2.4329 0.6435 -3.6493c 1.0084,0.1778 2.0169,0.3557 3.0253 0.5335c 0.7657,-4.3426 1.5314,-8.6852 2.2971 -13.0278c -1.0084,-0.1778 -2.0169,-0.3556 -3.0253 -0.5334c 1.0958,-6.2145 2.1916,-12.4291 3.2874 -18.6437c 1.0084,0.1778 2.0169,0.3556 3.0253 0.5334c 0.7657,-4.3426 1.5314,-8.6852 2.2972 -13.0278c -1.0084,-0.1778 -2.0169,-0.3556 -3.0253 -0.5334c 0.2145,-1.2164 0.4290,-2.4329 0.6435 -3.6493c -17.3326,-3.0562 -34.6652,-6.1124 -51.9978 -9.1686c -0.2145,1.2164 -0.4290,2.4329 -0.6435 3.6493c -1.0084,-0.1778 -2.0169,-0.3556 -3.0253 -0.5334c -0.7657,4.3426 -1.5314,8.6852 -2.2971 13.0277c 1.0084,0.1778 2.0169,0.3557 3.0253 0.5334c -1.0958,6.2146 -2.1916,12.4291 -3.2873 18.6437c -1.0084,-0.1778 -2.0169,-0.3557 -3.0253 -0.5335c -0.7657,4.3426 -1.5314,8.6852 -2.2971 13.0278ZM 237.4240,544.7427 c 1.0084,0.1778 2.0169,0.3556 3.0253 0.5334c -0.2145,1.2164 -0.4290,2.4329 -0.6435 3.6493c 17.3326,3.0562 34.6652,6.1124 51.9978 9.1686c 0.2145,-1.2164 0.4290,-2.4329 0.6435 -3.6493c 1.0084,0.1778 2.0169,0.3557 3.0253 0.5334c 0.7657,-4.3426 1.5314,-8.6852 2.2971 -13.0277c -1.0084,-0.1778 -2.0169,-0.3557 -3.0253 -0.5334c 1.0958,-6.2146 2.1916,-12.4291 3.2873 -18.6437c 1.0084,0.1778 2.0169,0.3557 3.0253 0.5335c 0.7657,-4.3426 1.5314,-8.6852 2.2971 -13.0278c -1.0084,-0.1778 -2.0169,-0.3556 -3.0253 -0.5334c 0.2145,-1.2164 0.4290,-2.4329 0.6435 -3.6493c -17.3326,-3.0562 -34.6652,-6.1124 -51.9978 -9.1686c -0.2145,1.2164 -0.4290,2.4329 -0.6435 3.6493c -1.0084,-0.1778 -2.0169,-0.3557 -3.0253 -0.5334c -0.7657,4.3426 -1.5314,8.6852 -2.2971 13.0277c 1.0084,0.1778 2.0169,0.3557 3.0253 0.5334c -1.0958,6.2146 -2.1916,12.4291 -3.2873 18.6437c -1.0084,-0.1778 -2.0169,-0.3556 -3.0253 -0.5334c -0.7657,4.3426 -1.5314,8.6852 -2.2971 13.0278ZM 266.7966,791.7053 c 1.0084,0.1778 2.0169,0.3557 3.0253 0.5335c -0.2145,1.2164 -0.4290,2.4329 -0.6435 3.6493c 17.3326,3.0562 34.6652,6.1124 51.9978 9.1686c 0.2145,-1.2164 0.4290,-2.4329 0.6435 -3.6493c 1.0084,0.1778 2.0169,0.3556 3.0253 0.5334c 0.7657,-4.3426 1.5314,-8.6852 2.2971 -13.0277c -1.0084,-0.1778 -2.0169,-0.3557 -3.0253 -0.5335c 1.0958,-6.2145 2.1916,-12.4291 3.2873 -18.6437c 1.0084,0.1778 2.0169,0.3557 3.0253 0.5334c 0.7657,-4.3426 1.5314,-8.6852 2.2971 -13.0277c -1.0084,-0.1778 -2.0169,-0.3556 -3.0253 -0.5334c 0.2145,-1.2164 0.4290,-2.4329 0.6435 -3.6493c -17.3326,-3.0562 -34.6652,-6.1124 -51.9978 -9.1687c -0.2145,1.2165 -0.4290,2.4329 -0.6435 3.6494c -1.0084,-0.1778 -2.0169,-0.3557 -3.0253 -0.5335c -0.7657,4.3426 -1.5314,8.6852 -2.2971 13.0278c 1.0084,0.1778 2.0169,0.3556 3.0253 0.5334c -1.0958,6.2145 -2.1916,12.4291 -3.2874 18.6437c -1.0084,-0.1778 -2.0169,-0.3556 -3.0253 -0.5334c -0.7657,4.3426 -1.5314,8.6852 -2.2972 13.0277ZM 279.2664,720.9852 c 1.0084,0.1778 2.0169,0.3557 3.0253 0.5334c -0.2145,1.2165 -0.4290,2.4329 -0.6435 3.6493c 17.3326,3.0562 34.6652,6.1124 51.9978 9.1687c 0.2145,-1.2165 0.4290,-2.4329 0.6435 -3.6493c 1.0084,0.1778 2.0169,0.3556 3.0253 0.5334c 0.7657,-4.3426 1.5314,-8.6852 2.2971 -13.0278c -1.0084,-0.1778 -2.0169,-0.3556 -3.0253 -0.5334c 1.0958,-6.2145 2.1916,-12.4291 3.2874 -18.6437c 1.0084,0.1778 2.0169,0.3557 3.0253 0.5334c 0.7657,-4.3426 1.5314,-8.6852 2.2971 -13.0277c -1.0084,-0.1778 -2.0169,-0.3557 -3.0253 -0.5334c 0.2145,-1.2165 0.4290,-2.4329 0.6435 -3.6493c -17.3327,-3.0562 -34.6652,-6.1124 -51.9978 -9.1687c -0.2145,1.2165 -0.4290,2.4329 -0.6435 3.6493c -1.0084,-0.1778 -2.0169,-0.3556 -3.0253 -0.5334c -0.7657,4.3426 -1.5314,8.6852 -2.2971 13.0278c 1.0084,0.1778 2.0169,0.3556 3.0253 0.5334c -1.0958,6.2145 -2.1916,12.4291 -3.2874 18.6437c -1.0084,-0.1778 -2.0169,-0.3557 -3.0253 -0.5334c -0.7657,4.3426 -1.5314,8.6852 -2.2972 13.0277ZM 291.7363,650.2652 c 1.0084,0.1778 2.0169,0.3556 3.0253 0.5334c -0.2145,1.2164 -0.4290,2.4329 -0.6435 3.6493c 17.3326,3.0562 34.6652,6.1124 51.9978 9.1686c 0.2145,-1.2164 0.4290,-2.4329 0.6435 -3.6493c 1.0084,0.1778 2.0169,0.3557 3.0253 0.5335c 0.7657,-4.3426 1.5314,-8.6852 2.2971 -13.0278c -1.0084,-0.1778 -2.0169,-0.3556 -3.0253 -0.5334c 1.0958,-6.2145 2.1916,-12.4291 3.2874 -18.6437c 1.0084,0.1778 2.0169,0.3556 3.0253 0.5334c 0.7657,-4.3426 1.5314,-8.6852 2.2971 -13.0278c -1.0084,-0.1778 -2.0169,-0.3556 -3.0253 -0.5334c 0.2145,-1.2164 0.4290,-2.4329 0.6434 -3.6493c -17.3326,-3.0562 -34.6652,-6.1124 -51.9978 -9.1686c -0.2145,1.2164 -0.4289,2.4329 -0.6434 3.6493c -1.0084,-0.1778 -2.0169,-0.3556 -3.0253 -0.5334c -0.7657,4.3426 -1.5314,8.6852 -2.2971 13.0277c 1.0084,0.1778 2.0169,0.3557 3.0253 0.5335c -1.0958,6.2145 -2.1916,12.4291 -3.2874 18.6437c -1.0084,-0.1778 -2.0169,-0.3557 -3.0253 -0.5335c -0.7657,4.3426 -1.5314,8.6852 -2.2972 13.0278ZM 304.2062,579.5452 c 1.0084,0.1778 2.0169,0.3556 3.0253 0.5334c -0.2145,1.2164 -0.4290,2.4329 -0.6435 3.6493c 17.3326,3.0562 34.6652,6.1124 51.9978 9.1686c 0.2145,-1.2164 0.4290,-2.4329 0.6435 -3.6493c 1.0084,0.1778 2.0169,0.3557 3.0253 0.5334c 0.7657,-4.3426 1.5314,-8.6852 2.2972 -13.0277c -1.0084,-0.1778 -2.0169,-0.3557 -3.0253 -0.5334c 1.0958,-6.2146 2.1916,-12.4291 3.2874 -18.6437c 1.0084,0.1778 2.0169,0.3556 3.0253 0.5334c 0.7657,-4.3426 1.5314,-8.6852 2.2971 -13.0278c -1.0084,-0.1778 -2.0169,-0.3556 -3.0253 -0.5334c 0.2145,-1.2164 0.4290,-2.4329 0.6434 -3.6493c -17.3326,-3.0562 -34.6652,-6.1124 -51.9978 -9.1686c -0.2145,1.2164 -0.4290,2.4329 -0.6434 3.6493c -1.0084,-0.1778 -2.0169,-0.3557 -3.0253 -0.5334c -0.7657,4.3426 -1.5314,8.6852 -2.2971 13.0277c 1.0084,0.1778 2.0169,0.3557 3.0253 0.5334c -1.0958,6.2146 -2.1916,12.4291 -3.2874 18.6437c -1.0084,-0.1778 -2.0169,-0.3556 -3.0253 -0.5334c -0.7657,4.3426 -1.5314,8.6852 -2.2972 13.0278ZM 334.2351,822.7857 c 1.0084,0.1778 2.0169,0.3557 3.0253 0.5335c -0.2145,1.2164 -0.4290,2.4329 -0.6435 3.6493c 17.3326,3.0562 34.6652,6.1124 51.9978 9.1686c 0.2145,-1.2164 0.4290,-2.4329 0.6435 -3.6493c 1.0084,0.1778 2.0169,0.3556 3.0253 0.5334c 0.7657,-4.3426 1.5314,-8.6852 2.2971 -13.0277c -1.0084,-0.1778 -2.0169,-0.3557 -3.0253 -0.5335c 1.0958,-6.2145 2.1916,-12.4291 3.2873 -18.6437c 1.0084,0.1778 2.0169,0.3557 3.0253 0.5334c 0.7657,-4.3426 1.5314,-8.6852 2.2972 -13.0277c -1.0084,-0.1778 -2.0169,-0.3556 -3.0253 -0.5334c 0.2145,-1.2165 0.4290,-2.4329 0.6435 -3.6493c -17.3326,-3.0562 -34.6652,-6.1124 -51.9978 -9.1686c -0.2145,1.2164 -0.4290,2.4329 -0.6435 3.6493c -1.0084,-0.1778 -2.0169,-0.3556 -3.0253 -0.5334c -0.7657,4.3426 -1.5314,8.6852 -2.2971 13.0278c 1.0084,0.1778 2.0169,0.3556 3.0253 0.5334c -1.0958,6.2145 -2.1916,12.4291 -3.2873 18.6437c -1.0084,-0.1778 -2.0169,-0.3556 -3.0253 -0.5334c -0.7657,4.3426 -1.5314,8.6852 -2.2971 13.0277ZM 346.7050,752.0656 c 1.0084,0.1778 2.0169,0.3557 3.0253 0.5334c -0.2145,1.2165 -0.4290,2.4329 -0.6435 3.6493c 17.3326,3.0562 34.6652,6.1124 51.9978 9.1687c 0.2145,-1.2165 0.4290,-2.4329 0.6435 -3.6493c 1.0084,0.1778 2.0169,0.3556 3.0253 0.5334c 0.7657,-4.3426 1.5314,-8.6852 2.2971 -13.0278c -1.0084,-0.1778 -2.0169,-0.3556 -3.0253 -0.5334c 1.0958,-6.2145 2.1916,-12.4291 3.2873 -18.6437c 1.0084,0.1778 2.0169,0.3556 3.0253 0.5334c 0.7657,-4.3426 1.5314,-8.6852 2.2971 -13.0277c -1.0084,-0.1778 -2.0169,-0.3557 -3.0253 -0.5334c 0.2145,-1.2165 0.4290,-2.4329 0.6435 -3.6493c -17.3326,-3.0562 -34.6652,-6.1124 -51.9978 -9.1687c -0.2145,1.2165 -0.4290,2.4329 -0.6435 3.6493c -1.0084,-0.1778 -2.0169,-0.3556 -3.0253 -0.5334c -0.7657,4.3426 -1.5314,8.6852 -2.2971 13.0277c 1.0084,0.1778 2.0169,0.3557 3.0253 0.5335c -1.0958,6.2145 -2.1916,12.4291 -3.2873 18.6437c -1.0084,-0.1778 -2.0169,-0.3557 -3.0253 -0.5334c -0.7657,4.3426 -1.5314,8.6852 -2.2971 13.0277ZM 359.1748,681.3456 c 1.0084,0.1778 2.0169,0.3556 3.0253 0.5334c -0.2145,1.2164 -0.4290,2.4329 -0.6435 3.6493c 17.3326,3.0562 34.6652,6.1124 51.9978 9.1686c 0.2145,-1.2164 0.4290,-2.4329 0.6435 -3.6493c 1.0084,0.1778 2.0169,0.3557 3.0253 0.5335c 0.7657,-4.3426 1.5314,-8.6852 2.2971 -13.0278c -1.0084,-0.1778 -2.0169,-0.3556 -3.0253 -0.5334c 1.0958,-6.2145 2.1916,-12.4291 3.2873 -18.6437c 1.0084,0.1778 2.0169,0.3556 3.0253 0.5334c 0.7657,-4.3426 1.5314,-8.6852 2.2971 -13.0277c -1.0084,-0.1778 -2.0169,-0.3557 -3.0253 -0.5335c 0.2145,-1.2164 0.4290,-2.4329 0.6435 -3.6493c -17.3326,-3.0562 -34.6652,-6.1124 -51.9978 -9.1686c -0.2145,1.2164 -0.4290,2.4329 -0.6435 3.6493c -1.0084,-0.1778 -2.0169,-0.3556 -3.0253 -0.5334c -0.7657,4.3426 -1.5314,8.6852 -2.2971 13.0277c 1.0084,0.1778 2.0169,0.3557 3.0253 0.5334c -1.0958,6.2146 -2.1916,12.4291 -3.2874 18.6437c -1.0084,-0.1778 -2.0169,-0.3557 -3.0253 -0.5334c -0.7657,4.3426 -1.5314,8.6851 -2.2972 13.0277ZM 361.5309,863.4499 c 0.0000,3.1311 2.5382,5.6693 5.6693 5.6693c 3.1310,-0.0000 5.6693,-2.5382 5.6693 -5.6693c 0.0000,-3.1311 -2.5382,-5.6693 -5.6693 -5.6693c -3.1311,-0.0000 -5.6693,2.5382 -5.6693 5.6693ZM 371.6447,610.6255 c 1.0084,0.1778 2.0169,0.3556 3.0253 0.5334c -0.2145,1.2164 -0.4290,2.4329 -0.6435 3.6493c 17.3326,3.0562 34.6652,6.1124 51.9978 9.1686c 0.2145,-1.2164 0.4290,-2.4329 0.6435 -3.6493c 1.0084,0.1778 2.0169,0.3557 3.0253 0.5334c 0.7657,-4.3426 1.5314,-8.6852 2.2971 -13.0277c -1.0084,-0.1778 -2.0169,-0.3557 -3.0253 -0.5334c 1.0958,-6.2146 2.1916,-12.4291 3.2873 -18.6437c 1.0084,0.1778 2.0169,0.3556 3.0253 0.5334c 0.7657,-4.3426 1.5314,-8.6852 2.2971 -13.0278c -1.0084,-0.1778 -2.0169,-0.3556 -3.0253 -0.5334c 0.2145,-1.2164 0.4290,-2.4329 0.6435 -3.6493c -17.3327,-3.0562 -34.6652,-6.1124 -51.9978 -9.1686c -0.2145,1.2164 -0.4290,2.4329 -0.6435 3.6493c -1.0084,-0.1778 -2.0169,-0.3557 -3.0253 -0.5334c -0.7657,4.3426 -1.5314,8.6852 -2.2971 13.0277c 1.0084,0.1778 2.0169,0.3557 3.0253 0.5334c -1.0958,6.2146 -2.1916,12.4291 -3.2873 18.6437c -1.0084,-0.1778 -2.0169,-0.3556 -3.0253 -0.5334c -0.7657,4.3426 -1.5314,8.6852 -2.2972 13.0278ZM 411.1901,799.8955 c 1.0084,0.1778 2.0169,0.3557 3.0253 0.5334c -0.2145,1.2165 -0.4290,2.4329 -0.6435 3.6493c 17.3326,3.0562 34.6652,6.1124 51.9978 9.1687c 0.2145,-1.2165 0.4290,-2.4329 0.6435 -3.6493c 1.0084,0.1778 2.0169,0.3556 3.0253 0.5334c 0.7657,-4.3426 1.5314,-8.6852 2.2971 -13.0278c -1.0084,-0.1778 -2.0169,-0.3556 -3.0253 -0.5334c 1.0958,-6.2145 2.1916,-12.4291 3.2874 -18.6437c 1.0084,0.1778 2.0169,0.3557 3.0253 0.5334c 0.7657,-4.3426 1.5314,-8.6852 2.2971 -13.0277c -1.0084,-0.1778 -2.0169,-0.3557 -3.0253 -0.5334c 0.2145,-1.2165 0.4289,-2.4329 0.6434 -3.6493c -17.3326,-3.0562 -34.6652,-6.1124 -51.9978 -9.1687c -0.2145,1.2165 -0.4290,2.4329 -0.6434 3.6493c -1.0084,-0.1778 -2.0169,-0.3556 -3.0253 -0.5334c -0.7657,4.3426 -1.5314,8.6852 -2.2971 13.0278c 1.0084,0.1778 2.0169,0.3556 3.0253 0.5334c -1.0958,6.2145 -2.1916,12.4291 -3.2874 18.6437c -1.0084,-0.1778 -2.0169,-0.3557 -3.0253 -0.5334c -0.7657,4.3426 -1.5314,8.6852 -2.2972 13.0277ZM 431.1026,473.3943 c 0.0000,3.1311 2.5382,5.6693 5.6693 5.6693c 3.1311,-0.0000 5.6693,-2.5382 5.6693 -5.6693c 0.0000,-3.1311 -2.5382,-5.6693 -5.6693 -5.6693c -3.1311,-0.0000 -5.6693,2.5382 -5.6693 5.6693ZM 547.6046,765.4319 c 0.7657,4.3426 1.5314,8.6852 2.2971 13.0277c 1.0084,-0.1778 2.0169,-0.3556 3.0253 -0.5334c 1.0958,6.2145 2.1916,12.4291 3.2874 18.6437c -1.0084,0.1778 -2.0169,0.3557 -3.0253 0.5334c 0.7657,4.3426 1.5314,8.6852 2.2971 13.0278c 1.0084,-0.1778 2.0169,-0.3557 3.0253 -0.5334c 0.2145,1.2164 0.4290,2.4329 0.6435 3.6493c 17.3326,-3.0562 34.6652,-6.1124 51.9978 -9.1687c -0.2145,-1.2164 -0.4290,-2.4329 -0.6435 -3.6493c 1.0084,-0.1778 2.0169,-0.3556 3.0253 -0.5334c -0.7657,-4.3426 -1.5314,-8.6852 -2.2972 -13.0277c -1.0084,0.1778 -2.0169,0.3556 -3.0253 0.5334c -1.0958,-6.2145 -2.1916,-12.4291 -3.2874 -18.6437c 1.0084,-0.1778 2.0169,-0.3557 3.0253 -0.5334c -0.7657,-4.3426 -1.5314,-8.6852 -2.2971 -13.0278c -1.0084,0.1778 -2.0169,0.3557 -3.0253 0.5334c -0.2145,-1.2164 -0.4289,-2.4329 -0.6434 -3.6493c -17.3326,3.0562 -34.6652,6.1124 -51.9978 9.1687c 0.2145,1.2164 0.4289,2.4329 0.6434 3.6493c -1.0084,0.1778 -2.0169,0.3556 -3.0253 0.5334ZM 582.2837,473.3943 c 0.0000,3.1311 2.5382,5.6693 5.6693 5.6693c 3.1311,-0.0000 5.6693,-2.5382 5.6693 -5.6693c 0.0000,-3.1311 -2.5382,-5.6693 -5.6693 -5.6693c -3.1311,-0.0000 -5.6693,2.5382 -5.6693 5.6693ZM 587.1500,576.1619 c 0.7657,4.3426 1.5314,8.6852 2.2971 13.0278c 1.0084,-0.1778 2.0169,-0.3557 3.0253 -0.5334c 1.0958,6.2145 2.1916,12.4291 3.2873 18.6437c -1.0084,0.1778 -2.0169,0.3556 -3.0253 0.5334c 0.7657,4.3426 1.5314,8.6852 2.2971 13.0277c 1.0084,-0.1778 2.0169,-0.3556 3.0253 -0.5334c 0.2145,1.2164 0.4290,2.4329 0.6435 3.6493c 17.3326,-3.0562 34.6652,-6.1124 51.9978 -9.1686c -0.2145,-1.2165 -0.4290,-2.4329 -0.6435 -3.6493c 1.0084,-0.1778 2.0169,-0.3557 3.0253 -0.5334c -0.7657,-4.3426 -1.5314,-8.6852 -2.2972 -13.0278c -1.0084,0.1778 -2.0169,0.3557 -3.0253 0.5334c -1.0958,-6.2145 -2.1916,-12.4291 -3.2873 -18.6437c 1.0084,-0.1778 2.0169,-0.3556 3.0253 -0.5334c -0.7657,-4.3426 -1.5314,-8.6852 -2.2971 -13.0277c -1.0084,0.1778 -2.0169,0.3556 -3.0253 0.5334c -0.2145,-1.2165 -0.4290,-2.4329 -0.6435 -3.6493c -17.3326,3.0562 -34.6652,6.1124 -51.9978 9.1686c 0.2145,1.2164 0.4290,2.4329 0.6435 3.6493c -1.0084,0.1778 -2.0169,0.3557 -3.0253 0.5334ZM 599.6199,646.8820 c 0.7657,4.3426 1.5314,8.6852 2.2971 13.0277c 1.0084,-0.1778 2.0169,-0.3556 3.0253 -0.5334c 1.0958,6.2145 2.1916,12.4291 3.2873 18.6437c -1.0084,0.1778 -2.0169,0.3556 -3.0253 0.5334c 0.7657,4.3426 1.5314,8.6852 2.2971 13.0278c 1.0084,-0.1778 2.0169,-0.3557 3.0253 -0.5335c 0.2145,1.2165 0.4290,2.4329 0.6435 3.6493c 17.3326,-3.0562 34.6652,-6.1124 51.9978 -9.1686c -0.2145,-1.2164 -0.4290,-2.4329 -0.6435 -3.6493c 1.0084,-0.1778 2.0169,-0.3556 3.0253 -0.5334c -0.7657,-4.3426 -1.5314,-8.6852 -2.2972 -13.0277c -1.0084,0.1778 -2.0169,0.3556 -3.0253 0.5334c -1.0958,-6.2146 -2.1916,-12.4291 -3.2874 -18.6437c 1.0084,-0.1778 2.0169,-0.3556 3.0253 -0.5334c -0.7657,-4.3426 -1.5314,-8.6852 -2.2971 -13.0277c -1.0084,0.1778 -2.0169,0.3556 -3.0253 0.5334c -0.2145,-1.2164 -0.4290,-2.4329 -0.6435 -3.6493c -17.3326,3.0562 -34.6652,6.1124 -51.9978 9.1686c 0.2145,1.2165 0.4290,2.4329 0.6435 3.6493c -1.0084,0.1778 -2.0169,0.3557 -3.0253 0.5335ZM 612.0897,717.6020 c 0.7657,4.3426 1.5314,8.6852 2.2971 13.0277c 1.0084,-0.1778 2.0169,-0.3556 3.0253 -0.5334c 1.0958,6.2145 2.1916,12.4291 3.2873 18.6437c -1.0084,0.1778 -2.0169,0.3557 -3.0253 0.5334c 0.7657,4.3426 1.5314,8.6852 2.2971 13.0278c 1.0084,-0.1778 2.0169,-0.3557 3.0253 -0.5334c 0.2145,1.2164 0.4290,2.4329 0.6435 3.6493c 17.3326,-3.0562 34.6652,-6.1124 51.9978 -9.1687c -0.2145,-1.2164 -0.4290,-2.4329 -0.6435 -3.6493c 1.0084,-0.1778 2.0169,-0.3556 3.0253 -0.5334c -0.7657,-4.3426 -1.5314,-8.6852 -2.2971 -13.0277c -1.0084,0.1778 -2.0169,0.3556 -3.0253 0.5334c -1.0958,-6.2146 -2.1916,-12.4291 -3.2873 -18.6437c 1.0084,-0.1778 2.0169,-0.3557 3.0253 -0.5335c -0.7657,-4.3426 -1.5314,-8.6851 -2.2971 -13.0277c -1.0084,0.1778 -2.0169,0.3557 -3.0253 0.5334c -0.2145,-1.2164 -0.4290,-2.4329 -0.6435 -3.6493c -17.3326,3.0562 -34.6652,6.1124 -51.9978 9.1687c 0.2145,1.2164 0.4290,2.4329 0.6435 3.6493c -1.0084,0.1778 -2.0169,0.3556 -3.0253 0.5334ZM 624.5595,788.3220 c 0.7657,4.3426 1.5314,8.6852 2.2972 13.0277c 1.0084,-0.1778 2.0169,-0.3556 3.0253 -0.5334c 1.0958,6.2146 2.1916,12.4291 3.2873 18.6437c -1.0084,0.1778 -2.0169,0.3557 -3.0253 0.5335c 0.7657,4.3426 1.5314,8.6852 2.2971 13.0277c 1.0084,-0.1778 2.0169,-0.3556 3.0253 -0.5334c 0.2145,1.2164 0.4290,2.4329 0.6435 3.6493c 17.3326,-3.0562 34.6652,-6.1124 51.9978 -9.1686c -0.2145,-1.2165 -0.4290,-2.4329 -0.6435 -3.6493c 1.0084,-0.1778 2.0169,-0.3557 3.0253 -0.5335c -0.7657,-4.3426 -1.5314,-8.6852 -2.2971 -13.0277c -1.0084,0.1778 -2.0169,0.3556 -3.0253 0.5334c -1.0958,-6.2145 -2.1916,-12.4291 -3.2873 -18.6437c 1.0084,-0.1778 2.0169,-0.3557 3.0253 -0.5334c -0.7657,-4.3426 -1.5314,-8.6852 -2.2971 -13.0278c -1.0084,0.1778 -2.0169,0.3557 -3.0253 0.5334c -0.2145,-1.2164 -0.4290,-2.4329 -0.6435 -3.6493c -17.3326,3.0562 -34.6652,6.1124 -51.9978 9.1686c 0.2145,1.2164 0.4290,2.4329 0.6435 3.6493c -1.0084,0.1778 -2.0169,0.3556 -3.0253 0.5334ZM 651.8554,863.4499 c 0.0000,3.1311 2.5382,5.6693 5.6693 5.6693c 3.1311,-0.0000 5.6693,-2.5382 5.6693 -5.6693c 0.0000,-3.1311 -2.5382,-5.6693 -5.6693 -5.6693c -3.1310,-0.0000 -5.6693,2.5382 -5.6693 5.6693ZM 654.5885,545.0815 c 0.7657,4.3426 1.5314,8.6852 2.2971 13.0278c 1.0084,-0.1778 2.0169,-0.3557 3.0253 -0.5334c 1.0958,6.2145 2.1916,12.4291 3.2874 18.6437c -1.0084,0.1778 -2.0169,0.3556 -3.0253 0.5334c 0.7657,4.3426 1.5314,8.6852 2.2972 13.0277c 1.0084,-0.1778 2.0169,-0.3556 3.0253 -0.5334c 0.2145,1.2165 0.4290,2.4329 0.6435 3.6493c 17.3326,-3.0562 34.6652,-6.1124 51.9978 -9.1686c -0.2145,-1.2164 -0.4290,-2.4329 -0.6435 -3.6493c 1.0084,-0.1778 2.0169,-0.3557 3.0253 -0.5334c -0.7657,-4.3426 -1.5314,-8.6852 -2.2972 -13.0278c -1.0084,0.1778 -2.0169,0.3557 -3.0253 0.5334c -1.0958,-6.2145 -2.1916,-12.4291 -3.2874 -18.6437c 1.0084,-0.1778 2.0169,-0.3556 3.0253 -0.5334c -0.7657,-4.3426 -1.5314,-8.6852 -2.2971 -13.0277c -1.0084,0.1778 -2.0169,0.3556 -3.0253 0.5334c -0.2145,-1.2164 -0.4289,-2.4329 -0.6434 -3.6493c -17.3326,3.0562 -34.6652,6.1124 -51.9978 9.1686c 0.2145,1.2164 0.4290,2.4329 0.6434 3.6493c -1.0084,0.1778 -2.0169,0.3557 -3.0253 0.5334ZM 667.0584,615.8015 c 0.7657,4.3426 1.5314,8.6852 2.2971 13.0278c 1.0084,-0.1778 2.0169,-0.3556 3.0253 -0.5334c 1.0958,6.2145 2.1916,12.4291 3.2874 18.6437c -1.0084,0.1778 -2.0169,0.3556 -3.0253 0.5334c 0.7657,4.3426 1.5314,8.6852 2.2971 13.0278c 1.0084,-0.1778 2.0169,-0.3557 3.0253 -0.5335c 0.2145,1.2165 0.4290,2.4329 0.6435 3.6493c 17.3326,-3.0562 34.6652,-6.1124 51.9978 -9.1686c -0.2145,-1.2164 -0.4290,-2.4329 -0.6435 -3.6493c 1.0084,-0.1778 2.0169,-0.3556 3.0253 -0.5334c -0.7657,-4.3426 -1.5314,-8.6852 -2.2972 -13.0278c -1.0084,0.1778 -2.0169,0.3557 -3.0253 0.5335c -1.0958,-6.2146 -2.1916,-12.4291 -3.2874 -18.6437c 1.0084,-0.1778 2.0169,-0.3557 3.0253 -0.5335c -0.7657,-4.3426 -1.5314,-8.6852 -2.2971 -13.0277c -1.0084,0.1778 -2.0169,0.3556 -3.0253 0.5334c -0.2145,-1.2164 -0.4290,-2.4329 -0.6434 -3.6493c -17.3326,3.0562 -34.6652,6.1124 -51.9978 9.1686c 0.2145,1.2165 0.4289,2.4329 0.6434 3.6493c -1.0084,0.1778 -2.0169,0.3557 -3.0253 0.5334ZM 679.5282,686.5216 c 0.7657,4.3426 1.5314,8.6852 2.2971 13.0277c 1.0084,-0.1778 2.0169,-0.3556 3.0253 -0.5334c 1.0958,6.2145 2.1916,12.4291 3.2874 18.6437c -1.0084,0.1778 -2.0169,0.3557 -3.0253 0.5334c 0.7657,4.3426 1.5314,8.6852 2.2971 13.0278c 1.0084,-0.1778 2.0169,-0.3557 3.0253 -0.5334c 0.2145,1.2164 0.4290,2.4329 0.6435 3.6493c 17.3326,-3.0562 34.6652,-6.1124 51.9978 -9.1687c -0.2145,-1.2164 -0.4290,-2.4329 -0.6435 -3.6493c 1.0084,-0.1778 2.0169,-0.3556 3.0253 -0.5334c -0.7657,-4.3426 -1.5314,-8.6852 -2.2972 -13.0277c -1.0084,0.1778 -2.0169,0.3556 -3.0253 0.5334c -1.0958,-6.2145 -2.1916,-12.4291 -3.2874 -18.6437c 1.0084,-0.1778 2.0169,-0.3557 3.0253 -0.5334c -0.7657,-4.3426 -1.5314,-8.6852 -2.2971 -13.0278c -1.0084,0.1778 -2.0169,0.3557 -3.0253 0.5334c -0.2145,-1.2164 -0.4289,-2.4329 -0.6435 -3.6493c -17.3326,3.0562 -34.6652,6.1124 -51.9978 9.1687c 0.2145,1.2164 0.4290,2.4329 0.6435 3.6493c -1.0084,0.1778 -2.0169,0.3556 -3.0253 0.5334ZM 691.9981,757.2417 c 0.7657,4.3426 1.5314,8.6852 2.2971 13.0277c 1.0084,-0.1778 2.0169,-0.3556 3.0253 -0.5334c 1.0958,6.2146 2.1916,12.4291 3.2873 18.6437c -1.0084,0.1778 -2.0169,0.3557 -3.0253 0.5335c 0.7657,4.3426 1.5314,8.6852 2.2971 13.0277c 1.0084,-0.1778 2.0169,-0.3556 3.0253 -0.5334c 0.2145,1.2164 0.4290,2.4329 0.6435 3.6493c 17.3326,-3.0562 34.6652,-6.1124 51.9978 -9.1686c -0.2145,-1.2165 -0.4290,-2.4329 -0.6435 -3.6493c 1.0084,-0.1778 2.0169,-0.3557 3.0253 -0.5335c -0.7657,-4.3426 -1.5314,-8.6852 -2.2972 -13.0277c -1.0084,0.1778 -2.0169,0.3556 -3.0253 0.5334c -1.0958,-6.2145 -2.1916,-12.4291 -3.2874 -18.6437c 1.0084,-0.1778 2.0169,-0.3557 3.0253 -0.5334c -0.7657,-4.3426 -1.5314,-8.6852 -2.2971 -13.0278c -1.0084,0.1778 -2.0169,0.3557 -3.0253 0.5335c -0.2145,-1.2165 -0.4290,-2.4329 -0.6435 -3.6494c -17.3326,3.0562 -34.6652,6.1124 -51.9978 9.1687c 0.2145,1.2164 0.4290,2.4329 0.6435 3.6493c -1.0084,0.1778 -2.0169,0.3556 -3.0253 0.5334ZM 721.3707,510.2790 c 0.7657,4.3426 1.5314,8.6852 2.2971 13.0278c 1.0084,-0.1778 2.0169,-0.3557 3.0253 -0.5335c 1.0958,6.2146 2.1916,12.4291 3.2873 18.6437c -1.0084,0.1778 -2.0169,0.3556 -3.0253 0.5334c 0.7657,4.3426 1.5314,8.6852 2.2971 13.0277c 1.0084,-0.1778 2.0169,-0.3556 3.0253 -0.5334c 0.2145,1.2165 0.4290,2.4329 0.6435 3.6493c 17.3326,-3.0562 34.6652,-6.1124 51.9978 -9.1686c -0.2145,-1.2164 -0.4290,-2.4329 -0.6435 -3.6493c 1.0084,-0.1778 2.0169,-0.3557 3.0253 -0.5334c -0.7657,-4.3426 -1.5314,-8.6852 -2.2971 -13.0278c -1.0084,0.1778 -2.0169,0.3557 -3.0253 0.5334c -1.0958,-6.2145 -2.1916,-12.4291 -3.2873 -18.6437c 1.0084,-0.1778 2.0169,-0.3556 3.0253 -0.5334c -0.7657,-4.3426 -1.5314,-8.6852 -2.2971 -13.0277c -1.0084,0.1778 -2.0169,0.3556 -3.0253 0.5334c -0.2145,-1.2165 -0.4290,-2.4329 -0.6435 -3.6493c -17.3326,3.0562 -34.6652,6.1124 -51.9978 9.1686c 0.2145,1.2164 0.4290,2.4329 0.6435 3.6493c -1.0084,0.1778 -2.0169,0.3557 -3.0253 0.5334ZM 733.8405,580.9990 c 0.7657,4.3426 1.5314,8.6852 2.2972 13.0278c 1.0084,-0.1778 2.0169,-0.3557 3.0253 -0.5334c 1.0958,6.2145 2.1916,12.4291 3.2874 18.6437c -1.0084,0.1778 -2.0169,0.3556 -3.0253 0.5334c 0.7657,4.3426 1.5314,8.6852 2.2971 13.0278c 1.0084,-0.1778 2.0169,-0.3557 3.0253 -0.5335c 0.2145,1.2165 0.4290,2.4329 0.6435 3.6493c 17.3326,-3.0562 34.6652,-6.1124 51.9978 -9.1686c -0.2145,-1.2164 -0.4290,-2.4329 -0.6435 -3.6493c 1.0084,-0.1778 2.0169,-0.3556 3.0253 -0.5334c -0.7657,-4.3426 -1.5314,-8.6852 -2.2971 -13.0278c -1.0084,0.1778 -2.0169,0.3557 -3.0253 0.5335c -1.0958,-6.2146 -2.1916,-12.4291 -3.2873 -18.6437c 1.0084,-0.1778 2.0169,-0.3556 3.0253 -0.5334c -0.7657,-4.3426 -1.5314,-8.6852 -2.2971 -13.0277c -1.0084,0.1778 -2.0169,0.3556 -3.0253 0.5334c -0.2145,-1.2164 -0.4290,-2.4329 -0.6435 -3.6493c -17.3326,3.0562 -34.6652,6.1124 -51.9978 9.1686c 0.2145,1.2165 0.4290,2.4329 0.6435 3.6493c -1.0084,0.1778 -2.0169,0.3557 -3.0253 0.5334ZM 746.3104,651.7191 c 0.7657,4.3426 1.5314,8.6852 2.2972 13.0277c 1.0084,-0.1778 2.0169,-0.3556 3.0253 -0.5334c 1.0958,6.2145 2.1916,12.4291 3.2874 18.6437c -1.0084,0.1778 -2.0169,0.3557 -3.0253 0.5334c 0.7657,4.3426 1.5314,8.6852 2.2971 13.0278c 1.0084,-0.1778 2.0169,-0.3557 3.0253 -0.5334c 0.2145,1.2164 0.4290,2.4329 0.6435 3.6493c 17.3326,-3.0562 34.6652,-6.1124 51.9978 -9.1687c -0.2145,-1.2164 -0.4290,-2.4329 -0.6435 -3.6493c 1.0084,-0.1778 2.0169,-0.3556 3.0253 -0.5334c -0.7657,-4.3426 -1.5314,-8.6852 -2.2971 -13.0277c -1.0084,0.1778 -2.0169,0.3556 -3.0253 0.5334c -1.0958,-6.2145 -2.1916,-12.4291 -3.2874 -18.6437c 1.0084,-0.1778 2.0169,-0.3557 3.0253 -0.5334c -0.7657,-4.3426 -1.5314,-8.6852 -2.2971 -13.0278c -1.0084,0.1778 -2.0169,0.3557 -3.0253 0.5334c -0.2145,-1.2164 -0.4290,-2.4329 -0.6435 -3.6493c -17.3326,3.0562 -34.6652,6.1124 -51.9978 9.1687c 0.2145,1.2164 0.4290,2.4329 0.6435 3.6493c -1.0084,0.1778 -2.0169,0.3556 -3.0253 0.5334ZM 758.7803,722.4392 c 0.7657,4.3426 1.5314,8.6852 2.2972 13.0277c 1.0084,-0.1778 2.0169,-0.3556 3.0253 -0.5334c 1.0958,6.2146 2.1916,12.4291 3.2874 18.6437c -1.0084,0.1778 -2.0169,0.3557 -3.0253 0.5335c 0.7657,4.3426 1.5314,8.6852 2.2971 13.0277c 1.0084,-0.1778 2.0169,-0.3556 3.0253 -0.5334c 0.2145,1.2164 0.4290,2.4329 0.6434 3.6493c 17.3327,-3.0562 34.6652,-6.1124 51.9978 -9.1686c -0.2145,-1.2165 -0.4289,-2.4329 -0.6434 -3.6494c 1.0084,-0.1778 2.0169,-0.3556 3.0253 -0.5334c -0.7657,-4.3426 -1.5314,-8.6852 -2.2971 -13.0277c -1.0084,0.1778 -2.0169,0.3556 -3.0253 0.5334c -1.0958,-6.2145 -2.1916,-12.4291 -3.2874 -18.6437c 1.0084,-0.1778 2.0169,-0.3557 3.0253 -0.5334c -0.7657,-4.3426 -1.5314,-8.6852 -2.2971 -13.0278c -1.0084,0.1778 -2.0169,0.3557 -3.0253 0.5334c -0.2145,-1.2164 -0.4290,-2.4329 -0.6435 -3.6493c -17.3326,3.0562 -34.6652,6.1124 -51.9978 9.1687c 0.2145,1.2164 0.4290,2.4329 0.6435 3.6493c -1.0084,0.1778 -2.0169,0.3556 -3.0253 0.5334ZM 795.3723,516.4197 c 0.7657,4.3426 1.5314,8.6852 2.2971 13.0278c 1.0084,-0.1778 2.0169,-0.3557 3.0253 -0.5334c 1.0958,6.2145 2.1916,12.4291 3.2874 18.6437c -1.0084,0.1778 -2.0169,0.3556 -3.0253 0.5334c 0.7657,4.3426 1.5314,8.6852 2.2972 13.0277c 1.0084,-0.1778 2.0169,-0.3556 3.0253 -0.5334c 0.2145,1.2165 0.4290,2.4329 0.6435 3.6493c 17.3326,-3.0562 34.6652,-6.1124 51.9978 -9.1686c -0.2145,-1.2164 -0.4290,-2.4329 -0.6435 -3.6493c 1.0084,-0.1778 2.0169,-0.3556 3.0253 -0.5334c -0.7657,-4.3426 -1.5314,-8.6852 -2.2972 -13.0278c -1.0084,0.1778 -2.0169,0.3557 -3.0253 0.5335c -1.0958,-6.2146 -2.1916,-12.4291 -3.2874 -18.6437c 1.0084,-0.1778 2.0169,-0.3556 3.0253 -0.5334c -0.7657,-4.3426 -1.5314,-8.6852 -2.2971 -13.0277c -1.0084,0.1778 -2.0169,0.3556 -3.0253 0.5334c -0.2145,-1.2164 -0.4289,-2.4329 -0.6434 -3.6493c -17.3326,3.0562 -34.6652,6.1124 -51.9978 9.1686c 0.2145,1.2165 0.4290,2.4329 0.6434 3.6493c -1.0084,0.1778 -2.0169,0.3557 -3.0253 0.5334ZM 807.8422,587.1397 c 0.7657,4.3426 1.5314,8.6852 2.2971 13.0277c 1.0084,-0.1778 2.0169,-0.3556 3.0253 -0.5334c 1.0958,6.2145 2.1916,12.4291 3.2874 18.6437c -1.0084,0.1778 -2.0169,0.3556 -3.0253 0.5334c 0.7657,4.3426 1.5314,8.6852 2.2971 13.0278c 1.0084,-0.1778 2.0169,-0.3557 3.0253 -0.5335c 0.2145,1.2165 0.4290,2.4329 0.6435 3.6494c 17.3326,-3.0562 34.6652,-6.1124 51.9978 -9.1687c -0.2145,-1.2164 -0.4290,-2.4329 -0.6435 -3.6493c 1.0084,-0.1778 2.0169,-0.3556 3.0253 -0.5334c -0.7657,-4.3426 -1.5314,-8.6852 -2.2972 -13.0277c -1.0084,0.1778 -2.0169,0.3556 -3.0253 0.5334c -1.0958,-6.2146 -2.1916,-12.4291 -3.2874 -18.6437c 1.0084,-0.1778 2.0169,-0.3557 3.0253 -0.5335c -0.7657,-4.3426 -1.5314,-8.6852 -2.2971 -13.0277c -1.0084,0.1778 -2.0169,0.3556 -3.0253 0.5334c -0.2145,-1.2164 -0.4289,-2.4329 -0.6434 -3.6493c -17.3326,3.0562 -34.6652,6.1124 -51.9978 9.1687c 0.2145,1.2164 0.4289,2.4329 0.6434 3.6493c -1.0084,0.1778 -2.0169,0.3557 -3.0253 0.5335ZM 820.3120,657.8598 c 0.7657,4.3426 1.5314,8.6852 2.2971 13.0277c 1.0084,-0.1778 2.0169,-0.3556 3.0253 -0.5334c 1.0958,6.2146 2.1916,12.4291 3.2874 18.6437c -1.0084,0.1778 -2.0169,0.3557 -3.0253 0.5334c 0.7657,4.3426 1.5314,8.6852 2.2971 13.0278c 1.0084,-0.1778 2.0169,-0.3557 3.0253 -0.5334c 0.2145,1.2164 0.4290,2.4329 0.6435 3.6493c 17.3326,-3.0562 34.6652,-6.1124 51.9978 -9.1687c -0.2145,-1.2164 -0.4290,-2.4329 -0.6435 -3.6493c 1.0084,-0.1778 2.0169,-0.3556 3.0253 -0.5334c -0.7657,-4.3426 -1.5314,-8.6852 -2.2972 -13.0277c -1.0084,0.1778 -2.0169,0.3556 -3.0253 0.5334c -1.0958,-6.2145 -2.1916,-12.4291 -3.2874 -18.6437c 1.0084,-0.1778 2.0169,-0.3557 3.0253 -0.5334c -0.7657,-4.3426 -1.5314,-8.6852 -2.2971 -13.0278c -1.0084,0.1778 -2.0169,0.3557 -3.0253 0.5334c -0.2145,-1.2164 -0.4289,-2.4329 -0.6434 -3.6493c -17.3326,3.0562 -34.6652,6.1124 -51.9978 9.1687c 0.2145,1.2164 0.4289,2.4329 0.6434 3.6493c -1.0084,0.1778 -2.0169,0.3556 -3.0253 0.5334ZM 832.7819,728.5798 c 0.7657,4.3426 1.5314,8.6852 2.2971 13.0277c 1.0084,-0.1778 2.0169,-0.3556 3.0253 -0.5334c 1.0958,6.2146 2.1916,12.4291 3.2873 18.6437c -1.0084,0.1778 -2.0169,0.3557 -3.0253 0.5335c 0.7657,4.3426 1.5314,8.6852 2.2971 13.0277c 1.0084,-0.1778 2.0169,-0.3556 3.0253 -0.5334c 0.2145,1.2164 0.4290,2.4329 0.6435 3.6493c 17.3326,-3.0562 34.6652,-6.1124 51.9978 -9.1686c -0.2145,-1.2165 -0.4290,-2.4329 -0.6435 -3.6493c 1.0084,-0.1778 2.0169,-0.3557 3.0253 -0.5335c -0.7657,-4.3426 -1.5314,-8.6852 -2.2972 -13.0277c -1.0084,0.1778 -2.0169,0.3557 -3.0253 0.5334c -1.0958,-6.2145 -2.1916,-12.4291 -3.2874 -18.6437c 1.0084,-0.1778 2.0169,-0.3556 3.0253 -0.5334c -0.7657,-4.3426 -1.5314,-8.6852 -2.2971 -13.0278c -1.0084,0.1778 -2.0169,0.3557 -3.0253 0.5335c -0.2145,-1.2165 -0.4290,-2.4329 -0.6434 -3.6493c -17.3327,3.0562 -34.6653,6.1124 -51.9978 9.1686c 0.2145,1.2164 0.4289,2.4329 0.6434 3.6493c -1.0084,0.1778 -2.0169,0.3556 -3.0253 0.5334ZM 868.0613,515.1161 c 0.7657,4.3426 1.5314,8.6852 2.2972 13.0278c 1.0084,-0.1778 2.0169,-0.3557 3.0253 -0.5334c 1.0958,6.2145 2.1916,12.4291 3.2874 18.6437c -1.0084,0.1778 -2.0169,0.3556 -3.0253 0.5334c 0.7657,4.3426 1.5314,8.6852 2.2971 13.0277c 1.0084,-0.1778 2.0169,-0.3556 3.0253 -0.5334c 0.2145,1.2165 0.4290,2.4329 0.6434 3.6493c 17.3327,-3.0562 34.6652,-6.1124 51.9978 -9.1686c -0.2145,-1.2164 -0.4289,-2.4329 -0.6434 -3.6493c 1.0084,-0.1778 2.0169,-0.3556 3.0253 -0.5334c -0.7657,-4.3426 -1.5314,-8.6852 -2.2971 -13.0278c -1.0084,0.1778 -2.0169,0.3557 -3.0253 0.5335c -1.0958,-6.2146 -2.1916,-12.4291 -3.2874 -18.6437c 1.0084,-0.1778 2.0169,-0.3556 3.0253 -0.5334c -0.7657,-4.3426 -1.5314,-8.6852 -2.2971 -13.0277c -1.0084,0.1778 -2.0169,0.3556 -3.0253 0.5334c -0.2145,-1.2164 -0.4290,-2.4329 -0.6435 -3.6493c -17.3326,3.0562 -34.6652,6.1124 -51.9978 9.1686c 0.2145,1.2165 0.4290,2.4329 0.6435 3.6493c -1.0084,0.1778 -2.0169,0.3557 -3.0253 0.5334ZM 880.5311,585.8362 c 0.7657,4.3426 1.5314,8.6852 2.2972 13.0277c 1.0084,-0.1778 2.0169,-0.3556 3.0253 -0.5334c 1.0958,6.2145 2.1916,12.4291 3.2874 18.6437c -1.0084,0.1778 -2.0169,0.3557 -3.0253 0.5334c 0.7657,4.3426 1.5314,8.6852 2.2972 13.0278c 1.0084,-0.1778 2.0169,-0.3557 3.0253 -0.5334c 0.2145,1.2164 0.4289,2.4329 0.6434 3.6493c 17.3326,-3.0562 34.6652,-6.1124 51.9978 -9.1687c -0.2145,-1.2164 -0.4290,-2.4329 -0.6434 -3.6493c 1.0084,-0.1778 2.0169,-0.3556 3.0253 -0.5334c -0.7657,-4.3426 -1.5314,-8.6852 -2.2971 -13.0277c -1.0084,0.1778 -2.0169,0.3556 -3.0253 0.5334c -1.0958,-6.2146 -2.1916,-12.4291 -3.2874 -18.6437c 1.0084,-0.1778 2.0169,-0.3557 3.0253 -0.5335c -0.7657,-4.3426 -1.5314,-8.6852 -2.2971 -13.0277c -1.0084,0.1778 -2.0169,0.3556 -3.0253 0.5334c -0.2145,-1.2164 -0.4290,-2.4329 -0.6435 -3.6493c -17.3326,3.0562 -34.6652,6.1124 -51.9978 9.1686c 0.2145,1.2165 0.4290,2.4329 0.6435 3.6494c -1.0084,0.1778 -2.0169,0.3556 -3.0253 0.5334ZM 893.0010,656.5563 c 0.7657,4.3426 1.5314,8.6852 2.2972 13.0277c 1.0084,-0.1778 2.0169,-0.3556 3.0253 -0.5334c 1.0958,6.2146 2.1916,12.4291 3.2874 18.6437c -1.0084,0.1778 -2.0169,0.3557 -3.0253 0.5335c 0.7657,4.3426 1.5314,8.6852 2.2972 13.0277c 1.0084,-0.1778 2.0169,-0.3557 3.0253 -0.5334c 0.2145,1.2164 0.4290,2.4329 0.6435 3.6493c 17.3326,-3.0562 34.6652,-6.1124 51.9978 -9.1687c -0.2145,-1.2164 -0.4289,-2.4329 -0.6435 -3.6493c 1.0084,-0.1778 2.0169,-0.3557 3.0253 -0.5335c -0.7657,-4.3426 -1.5314,-8.6852 -2.2971 -13.0277c -1.0084,0.1778 -2.0169,0.3556 -3.0253 0.5334c -1.0958,-6.2145 -2.1916,-12.4291 -3.2874 -18.6437c 1.0084,-0.1778 2.0169,-0.3557 3.0253 -0.5334c -0.7657,-4.3426 -1.5314,-8.6852 -2.2971 -13.0278c -1.0084,0.1778 -2.0169,0.3557 -3.0253 0.5334c -0.2145,-1.2164 -0.4290,-2.4329 -0.6435 -3.6493c -17.3326,3.0562 -34.6652,6.1124 -51.9978 9.1687c 0.2145,1.2164 0.4290,2.4329 0.6435 3.6493c -1.0084,0.1778 -2.0169,0.3556 -3.0253 0.5334ZM 905.4708,727.2763 c 0.7657,4.3426 1.5314,8.6852 2.2972 13.0278c 1.0084,-0.1778 2.0169,-0.3557 3.0253 -0.5335c 1.0958,6.2146 2.1916,12.4291 3.2874 18.6437c -1.0084,0.1778 -2.0169,0.3556 -3.0253 0.5334c 0.7657,4.3426 1.5314,8.6852 2.2972 13.0277c 1.0084,-0.1778 2.0169,-0.3556 3.0253 -0.5334c 0.2145,1.2164 0.4290,2.4329 0.6435 3.6493c 17.3326,-3.0562 34.6652,-6.1124 51.9978 -9.1686c -0.2145,-1.2165 -0.4290,-2.4329 -0.6435 -3.6493c 1.0084,-0.1778 2.0169,-0.3557 3.0253 -0.5334c -0.7657,-4.3426 -1.5314,-8.6852 -2.2971 -13.0278c -1.0084,0.1778 -2.0169,0.3557 -3.0253 0.5334c -1.0958,-6.2145 -2.1916,-12.4291 -3.2874 -18.6437c 1.0084,-0.1778 2.0169,-0.3556 3.0253 -0.5334c -0.7657,-4.3426 -1.5314,-8.6852 -2.2972 -13.0278c -1.0084,0.1778 -2.0169,0.3557 -3.0253 0.5335c -0.2145,-1.2165 -0.4290,-2.4329 -0.6435 -3.6493c -17.3326,3.0562 -34.6652,6.1124 -51.9978 9.1686c 0.2145,1.2164 0.4290,2.4329 0.6435 3.6493c -1.0084,0.1778 -2.0169,0.3556 -3.0253 0.5334ZM 939.9448,473.3943 c 0.0000,3.1311 2.5382,5.6693 5.6693 5.6693c 3.1311,-0.0000 5.6693,-2.5382 5.6693 -5.6693c 0.0000,-3.1311 -2.5382,-5.6693 -5.6693 -5.6693c -3.1311,-0.0000 -5.6693,2.5382 -5.6693 5.6693ZM 994.9273,777.6566 c 0.0000,3.1310 2.5382,5.6693 5.6693 5.6693c 3.1311,-0.0000 5.6693,-2.5382 5.6693 -5.6693c 0.0000,-3.1311 -2.5382,-5.6693 -5.6693 -5.6693c -3.1311,-0.0000 -5.6693,2.5382 -5.6693 5.6693Z"/></g><g stroke-linejoin="miter" stroke-opacity="1.0" fill-opacity="0.5" stroke="rgb(0,0,0)" stroke-width="0.37795275590551186" fill="rgb(255,0,0)" stroke-linecap="butt" stroke-miterlimit="10.0"><path d="M 446.2207,211.8111 c 0.0016,-12.9099 3.6924,-24.9414 10.0743 -35.1128c 1.4990,-0.0523 2.9980,-0.1047 4.4970 -0.1570c -6.3614,9.2858 -10.2801,20.3768 -10.8299 32.3468c -1.2471,0.9744 -2.4942,1.9487 -3.7413 2.9231ZM 446.3748,216.3538 c 1.1818,-0.9233 2.3636,-1.8466 3.5453 -2.7699c 0.1608,5.7431 1.0967,11.2923 2.7069 16.5468c 9.5583,-6.9445 19.1166,-13.8890 28.6749 -20.8336c 2.6889,-0.8737 5.3778,-1.7473 8.0667 -2.6210c 1.8335,-0.5957 3.6671,-1.1915 5.5006 -1.7873c 0.0000,1.7655 0.0000,3.5310 0.0000 5.2965c 0.0000,2.8439 0.0000,5.6878 0.0000 8.5317c -0.5919,-0.1923 -1.1838,-0.3847 -1.7757 -0.5770c -0.5840,-1.7973 -1.1679,-3.5945 -1.7519 -5.3917c -4.8841,3.5485 -9.7683,7.0971 -14.6524 10.6456c 4.9124,-0.0000 9.8249,-0.0000 14.7373 -0.0000c 1.1476,0.3729 2.2951,0.7457 3.4427 1.1186c 0.0000,2.5249 0.0000,5.0497 0.0000 7.5746c -13.8690,-0.0000 -27.7380,-0.0000 -41.6070 -0.0000c 1.7148,4.9974 4.0456,9.7087 6.9018 14.0431c -0.4361,1.5208 -0.8721,3.0415 -1.3082 4.5623c -7.1105,-9.7663 -11.6123,-21.5539 -12.4811 -34.3386ZM 458.8419,172.9326 c 7.2452,-9.9588 17.2023,-17.8176 28.7862 -22.4915c 1.2426,0.8381 2.4852,1.6763 3.7278 2.5144c -5.3294,1.9026 -10.3245,4.5086 -14.8737 7.7062c 9.5551,6.9422 19.1102,13.8844 28.6652 20.8265c 1.6618,2.2873 3.3237,4.5746 4.9855 6.8619c 1.1332,1.5597 2.2664,3.1194 3.3996 4.6791c -1.6791,0.5456 -3.3581,1.0911 -5.0372 1.6367c -2.7047,0.8788 -5.4094,1.7576 -8.1141 2.6364c 0.0000,-0.6224 0.0000,-1.2448 0.0000 -1.8671c 1.5288,-1.1108 3.0577,-2.2215 4.5865 -3.3323c -4.8841,-3.5485 -9.7683,-7.0970 -14.6524 -10.6456c 1.5180,4.6720 3.0360,9.3440 4.5541 14.0160c 0.0000,1.2066 0.0000,2.4133 0.0000 3.6199c -2.4013,0.7802 -4.8026,1.5604 -7.2039 2.3407c -4.2843,-13.1857 -8.5686,-26.3714 -12.8529 -39.5571c -4.1795,3.1485 -7.9511,6.8096 -11.2212 10.8899c -1.5832,0.0553 -3.1663,0.1106 -4.7495 0.1659ZM 461.6526,254.2699 c 0.4130,-1.4402 0.8259,-2.8804 1.2389 -4.3205c 7.0206,9.0913 16.4913,16.1939 27.4231 20.3184c 0.5415,1.4878 1.0830,2.9756 1.6245 4.4634c -11.9448,-3.8739 -22.4002,-11.0543 -30.2865 -20.4613ZM 491.8969,148.8882 c 6.4443,-2.0948 13.3227,-3.2271 20.4656 -3.2271c 5.5379,-0.0000 10.9169,0.6806 16.0578 1.9627c 0.5125,1.4080 1.0250,2.8161 1.5374 4.2241c -5.5808,-1.6352 -11.4856,-2.5123 -17.5952 -2.5123c -5.7210,-0.0000 -11.2624,0.7691 -16.5265 2.2095c -1.3130,-0.8857 -2.6261,-1.7713 -3.9391 -2.6570ZM 494.7672,271.7578 c 5.2654,1.5427 10.8192,2.4107 16.5613 2.5039c -3.6492,-11.2310 -7.2983,-22.4619 -10.9475 -33.6929c 0.0000,-2.8273 0.0000,-5.6545 0.0000 -8.4818c 0.0000,-1.9279 0.0000,-3.8558 0.0000 -5.7837c 1.6791,0.5456 3.3581,1.0911 5.0372 1.6367c 2.7047,0.8788 5.4094,1.7576 8.1141 2.6364c -0.3658,0.5035 -0.7316,1.0070 -1.0975 1.5105c -1.8897,-0.0000 -3.7795,-0.0000 -5.6692 -0.0000c 1.8656,5.7416 3.7311,11.4833 5.5967 17.2249c 1.5180,-4.6720 3.0360,-9.3440 4.5541 -14.0160c 0.7092,-0.9762 1.4185,-1.9524 2.1277 -2.9286c 2.4013,0.7802 4.8026,1.5604 7.2039 2.3407c -4.2839,13.1846 -8.5678,26.3691 -12.8518 39.5537c 5.3550,-0.0869 10.5463,-0.8476 15.4926 -2.2011c 1.3130,0.8857 2.6261,1.7713 3.9391 2.6570c -6.4443,2.0948 -13.3227,3.2271 -20.4656 3.2271c -5.5379,-0.0000 -10.9169,-0.6806 -16.0578 -1.9627c -0.5125,-1.4080 -1.0250,-2.8161 -1.5374 -4.2241ZM 500.3811,203.0979 c 2.5586,-0.8313 5.1172,-1.6627 7.6758 -2.4940c -2.5586,1.8589 -5.1172,3.7179 -7.6758 5.5768c 0.0000,-1.0276 0.0000,-2.0552 -0.0000 -3.0828ZM 500.3811,212.4370 c 0.9773,3.0078 1.9546,6.0156 2.9319 9.0234c -0.9773,-0.3175 -1.9546,-0.6351 -2.9319 -0.9526c 0.0000,-2.6903 0.0000,-5.3805 -0.0000 -8.0708ZM 509.2631,223.3938 c 3.1626,-0.0000 6.3252,-0.0000 9.4878 -0.0000c -0.6040,0.8313 -1.2080,1.6627 -1.8120 2.4940c -2.5586,-0.8313 -5.1172,-1.6627 -7.6758 -2.4940ZM 514.0070,198.6705 c 0.9773,-0.3175 1.9546,-0.6351 2.9319 -0.9526c 1.5813,2.1765 3.1626,4.3529 4.7439 6.5294c -2.5586,-1.8589 -5.1172,-3.7179 -7.6758 -5.5768ZM 514.5920,185.1104 c 11.2169,-8.1496 22.4338,-16.2991 33.6507 -24.4487c -4.2517,-2.9885 -8.8929,-5.4602 -13.8325 -7.3239c -0.5415,-1.4878 -1.0830,-2.9756 -1.6245 -4.4634c 11.9448,3.8739 22.4002,11.0543 30.2865 20.4613c -0.4130,1.4402 -0.8259,2.8803 -1.2389 4.3205c -3.4279,-4.4390 -7.4400,-8.4038 -11.9210 -11.7794c -3.6495,11.2321 -7.2991,22.4642 -10.9486 33.6963c -1.6618,2.2873 -3.3237,4.5746 -4.9855 6.8619c -1.1332,1.5597 -2.2664,3.1194 -3.3996 4.6791c -1.0377,-1.4283 -2.0754,-2.8566 -3.1132 -4.2849c -1.6716,-2.3008 -3.3432,-4.6015 -5.0148 -6.9023c 0.5919,-0.1923 1.1838,-0.3846 1.7757 -0.5770c 1.5288,1.1108 3.0577,2.2215 4.5865 3.3323c 1.8656,-5.7416 3.7311,-11.4833 5.5967 -17.2249c -3.9742,2.8874 -7.9485,5.7749 -11.9227 8.6623c -1.1476,0.3729 -2.2952,0.7457 -3.4428 1.1186c -1.4841,-2.0426 -2.9681,-4.0853 -4.4522 -6.1279ZM 522.4283,218.3323 c 0.9773,-3.0078 1.9546,-6.0156 2.9319 -9.0234c 0.6040,0.8313 1.2080,1.6627 1.8120 2.4940c -1.5813,2.1765 -3.1626,4.3529 -4.7439 6.5294ZM 522.4507,227.6787 c 1.0377,-1.4283 2.0754,-2.8566 3.1132 -4.2849c 1.6716,-2.3008 3.3432,-4.6015 5.0148 -6.9023c 0.3658,0.5035 0.7317,1.0070 1.0975 1.5105c -0.5840,1.7973 -1.1679,3.5945 -1.7519 5.3917c 6.0371,-0.0000 12.0742,-0.0000 18.1113 -0.0000c -3.9742,-2.8874 -7.9485,-5.7749 -11.9227 -8.6623c -0.7092,-0.9762 -1.4185,-1.9524 -2.1277 -2.9286c 1.4841,-2.0427 2.9682,-4.0853 4.4522 -6.1280c 11.2201,8.1519 22.4403,16.3038 33.6604 24.4557c 1.5040,-4.9079 2.4197,-10.0729 2.6650 -15.4130c 1.2471,-0.9744 2.4942,-1.9487 3.7413 -2.9231c 0.0000,0.0028 0.0000,0.0055 0.0000 0.0083c 0.0000,12.8965 -3.6910,24.9309 -10.0743 35.1045c -1.4990,0.0523 -2.9980,0.1047 -4.4970 0.1570c 3.1437,-4.5889 5.6909,-9.6186 7.5297 -14.9774c -11.8149,-0.0000 -23.6297,-0.0000 -35.4446 -0.0000c -2.6889,-0.8737 -5.3778,-1.7474 -8.0667 -2.6210c -1.8335,-0.5958 -3.6671,-1.1915 -5.5006 -1.7873ZM 533.3690,270.6501 c 11.0095,-3.9304 20.5929,-10.8627 27.7645 -19.8112c 1.5832,-0.0553 3.1663,-0.1106 4.7495 -0.1659c -7.2452,9.9588 -17.2023,17.8176 -28.7862 22.4915c -1.2426,-0.8381 -2.4852,-1.6763 -3.7278 -2.5144ZM 564.5608,177.4757 c 0.4361,-1.5208 0.8721,-3.0415 1.3082 -4.5623c 7.1105,9.7663 11.6123,21.5539 12.4811 34.3386c -1.1818,0.9233 -2.3636,1.8466 -3.5453 2.7699c -0.3360,-12.0025 -4.0577,-23.1583 -10.2440 -32.5462ZM 3.9685,332.1827 c 0.0000,7.3987 5.0318,14.0495 12.4477 15.8839c 115.6172,28.5978 231.2344,57.1956 346.8515 85.7934c 1.2866,0.3182 2.6071,0.4792 3.9325 0.4792c 48.3874,-0.0000 96.7748,-0.0000 145.1622 0.0000c 48.3874,-0.0000 96.7748,-0.0000 145.1622 0.0000c 1.3254,-0.0000 2.6459,-0.1609 3.9325 -0.4792c 115.6172,-28.5978 231.2344,-57.1956 346.8515 -85.7934c 7.4159,-1.8343 12.4477,-8.4851 12.4477 -15.8839c 0.0000,-0.9436 -0.0819,-1.8994 -0.2511 -2.8590c -18.3275,-103.9404 -36.6550,-207.8809 -54.9825 -311.8213c -1.3801,-7.8274 -8.1810,-13.5339 -16.1291 -13.5339c -145.6771,-0.0000 -291.3542,-0.0000 -437.0312 0.0000c -145.6771,-0.0000 -291.3542,-0.0000 -437.0312 0.0000c -7.9481,-0.0000 -14.7490,5.7066 -16.1291 13.5339c -18.3275,103.9404 -36.6550,207.8809 -54.9825 311.8213c -0.1692,0.9595 -0.2511,1.9153 -0.2511 2.8590ZM 18.4589,328.3883 c 0.0000,-3.1311 2.5382,-5.6693 5.6693 -5.6693c 3.1311,-0.0000 5.6693,2.5382 5.6693 5.6693c 0.0000,3.1310 -2.5382,5.6693 -5.6693 5.6693c -3.1311,-0.0000 -5.6693,-2.5382 -5.6693 -5.6693ZM 39.3376,325.4731 c 0.0000,-0.2179 0.0189,-0.4387 0.0581 -0.6607c 4.1566,-23.5733 8.3132,-47.1467 12.4699 -70.7200c 0.1575,-0.8933 0.3150,-1.7866 0.4725 -2.6799c 3.9991,-22.6800 7.9982,-45.3601 11.9973 -68.0401c 0.1575,-0.8933 0.3150,-1.7866 0.4725 -2.6799c 3.9991,-22.6800 7.9982,-45.3601 11.9973 -68.0401c 0.1575,-0.8933 0.3150,-1.7866 0.4725 -2.6799c 4.1566,-23.5734 8.3133,-47.1467 12.4699 -70.7200c 0.3625,-2.0557 2.3227,-3.4283 4.3784 -3.0658c 22.3326,3.9378 44.6653,7.8757 66.9980 11.8135c 0.4375,-2.4814 0.8751,-4.9628 1.3126 -7.4442c 0.3624,-2.0557 2.3227,-3.4282 4.3784 -3.0658c 22.3326,3.9378 44.6653,7.8757 66.9979 11.8135c 0.8751,-4.9628 1.7501,-9.9256 2.6252 -14.8884c 0.3625,-2.0557 2.3227,-3.4282 4.3784 -3.0658c 24.4667,4.3141 48.9333,8.6283 73.4000 12.9424c 1.8337,0.3233 3.1239,1.9180 3.1239 3.7177c 0.0000,0.2179 -0.0189,0.4387 -0.0580 0.6607c -1.0938,6.2035 -2.1877,12.4071 -3.2815 18.6106c 22.3326,3.9378 44.6653,7.8757 66.9979 11.8135c 1.8337,0.3233 3.1239,1.9180 3.1239 3.7177c 0.0000,0.2179 -0.0189,0.4387 -0.0580 0.6607c -0.8751,4.9628 -1.7502,9.9256 -2.6252 14.8884c 22.3326,3.9378 44.6653,7.8757 66.9979 11.8135c 1.8337,0.3233 3.1239,1.9180 3.1239 3.7177c 0.0000,0.2179 -0.0189,0.4387 -0.0580 0.6607c -4.1566,23.5733 -8.3133,47.1467 -12.4699 70.7200c -0.1575,0.8933 -0.3151,1.7866 -0.4726 2.6799c -3.9991,22.6800 -7.9982,45.3601 -11.9973 68.0401c -0.1575,0.8933 -0.3151,1.7866 -0.4726 2.6799c -1.7020,9.6527 -3.4040,19.3053 -5.1061 28.9580c 22.3326,3.9379 44.6653,7.8757 66.9979 11.8136c 1.8337,0.3233 3.1239,1.9180 3.1239 3.7176c 0.0000,0.2179 -0.0189,0.4388 -0.0580 0.6607c -4.3142,24.4667 -8.6283,48.9333 -12.9424 73.4000c -0.3625,2.0557 -2.3227,3.4283 -4.3784 3.0658c -22.3326,-3.9378 -44.6653,-7.8757 -66.9979 -11.8136c -1.8596,10.5460 -3.7191,21.0920 -5.5786 31.6380c -0.3625,2.0557 -2.3228,3.4282 -4.3784 3.0658c -24.4667,-4.3141 -48.9333,-8.6283 -73.4000 -12.9424c -1.8337,-0.3234 -3.1239,-1.9180 -3.1239 -3.7177c 0.0000,-0.2179 0.0189,-0.4387 0.0580 -0.6607c 0.8751,-4.9628 1.7502,-9.9256 2.6252 -14.8884c -22.3326,-3.9378 -44.6653,-7.8757 -66.9979 -11.8135c -1.8337,-0.3234 -3.1239,-1.9180 -3.1239 -3.7177c 0.0000,-0.2179 0.0189,-0.4387 0.0580 -0.6607c 1.0938,-6.2035 2.1877,-12.4070 3.2815 -18.6105c -20.1986,-3.5615 -40.3973,-7.1231 -60.5959 -10.6847c -0.8751,4.9628 -1.7501,9.9256 -2.6252 14.8885c -0.3625,2.0557 -2.3227,3.4282 -4.3784 3.0658c -22.3326,-3.9378 -44.6653,-7.8757 -66.9979 -11.8135c -0.4376,2.4814 -0.8751,4.9628 -1.3126 7.4442c -0.3625,2.0557 -2.3228,3.4282 -4.3784 3.0658c -24.4667,-4.3141 -48.9333,-8.6283 -73.4000 -12.9424c -1.8337,-0.3233 -3.1239,-1.9180 -3.1239 -3.7177ZM 73.4414,24.1260 c 0.0000,-3.1311 2.5382,-5.6693 5.6693 -5.6693c 3.1311,-0.0000 5.6693,2.5382 5.6693 5.6693c 0.0000,3.1311 -2.5382,5.6693 -5.6693 5.6693c -3.1311,-0.0000 -5.6693,-2.5382 -5.6693 -5.6693ZM 361.5309,414.1817 c 0.0000,-3.1311 2.5382,-5.6693 5.6693 -5.6693c 3.1310,-0.0000 5.6693,2.5382 5.6693 5.6693c 0.0000,3.1311 -2.5382,5.6693 -5.6693 5.6693c -3.1311,-0.0000 -5.6693,-2.5382 -5.6693 -5.6693ZM 431.1026,24.1260 c 0.0000,-3.1311 2.5382,-5.6693 5.6693 -5.6693c 3.1311,-0.0000 5.6693,2.5382 5.6693 5.6693c 0.0000,3.1311 -2.5382,5.6693 -5.6693 5.6693c -3.1311,-0.0000 -5.6693,-2.5382 -5.6693 -5.6693ZM 533.6183,303.1622 c -0.0000,-1.7997 1.2902,-3.3943 3.1239 -3.7176c 22.3326,-3.9379 44.6653,-7.8757 66.9979 -11.8136c -1.7020,-9.6527 -3.4040,-19.3053 -5.1061 -28.9580c -0.1575,-0.8933 -0.3150,-1.7866 -0.4726 -2.6799c -3.9991,-22.6800 -7.9982,-45.3601 -11.9973 -68.0401c -0.1575,-0.8933 -0.3150,-1.7866 -0.4726 -2.6799c -4.1566,-23.5734 -8.3132,-47.1467 -12.4699 -70.7200c -0.0391,-0.2220 -0.0580,-0.4429 -0.0580 -0.6607c 0.0000,-1.7997 1.2902,-3.3944 3.1239 -3.7177c 22.3326,-3.9378 44.6653,-7.8757 66.9979 -11.8135c -0.8751,-4.9628 -1.7501,-9.9256 -2.6252 -14.8884c -0.0391,-0.2220 -0.0580,-0.4429 -0.0580 -0.6607c 0.0000,-1.7997 1.2902,-3.3944 3.1239 -3.7177c 22.3326,-3.9378 44.6653,-7.8757 66.9979 -11.8135c -1.0938,-6.2035 -2.1877,-12.4071 -3.2815 -18.6106c -0.0392,-0.2220 -0.0580,-0.4428 -0.0580 -0.6607c 0.0000,-1.7997 1.2902,-3.3944 3.1239 -3.7177c 24.4666,-4.3141 48.9333,-8.6283 73.4000 -12.9424c 2.0557,-0.3625 4.0159,1.0101 4.3784 3.0658c 0.8751,4.9628 1.7502,9.9256 2.6252 14.8884c 22.3326,-3.9378 44.6653,-7.8757 66.9979 -11.8135c 2.0557,-0.3625 4.0160,1.0101 4.3784 3.0658c 0.4376,2.4814 0.8751,4.9628 1.3126 7.4442c 22.3326,-3.9378 44.6653,-7.8757 66.9980 -11.8135c 2.0557,-0.3625 4.0159,1.0102 4.3784 3.0658c 4.1566,23.5733 8.3133,47.1467 12.4699 70.7200c 0.1575,0.8933 0.3150,1.7866 0.4725 2.6799c 3.9991,22.6800 7.9982,45.3601 11.9973 68.0401c 0.1575,0.8933 0.3150,1.7866 0.4725 2.6799c 3.9991,22.6800 7.9982,45.3601 11.9973 68.0401c 0.1575,0.8933 0.3150,1.7866 0.4725 2.6799c 4.1566,23.5734 8.3133,47.1467 12.4699 70.7200c 0.0392,0.2220 0.0581,0.4429 0.0581 0.6607c 0.0000,1.7997 -1.2902,3.3944 -3.1239 3.7177c -24.4667,4.3141 -48.9333,8.6283 -73.4000 12.9424c -2.0556,0.3625 -4.0159,-1.0101 -4.3784 -3.0658c -0.4375,-2.4814 -0.8751,-4.9628 -1.3126 -7.4442c -22.3326,3.9378 -44.6653,7.8757 -66.9979 11.8135c -2.0557,0.3625 -4.0159,-1.0101 -4.3784 -3.0658c -0.8751,-4.9628 -1.7502,-9.9256 -2.6252 -14.8885c -20.1986,3.5616 -40.3973,7.1232 -60.5959 10.6847c 1.0938,6.2035 2.1877,12.4070 3.2815 18.6105c 0.0391,0.2220 0.0580,0.4429 0.0580 0.6607c 0.0000,1.7997 -1.2902,3.3943 -3.1239 3.7177c -22.3326,3.9378 -44.6653,7.8757 -66.9979 11.8135c 0.8751,4.9628 1.7501,9.9256 2.6252 14.8884c 0.0391,0.2220 0.0580,0.4429 0.0580 0.6607c 0.0000,1.7997 -1.2902,3.3943 -3.1239 3.7177c -24.4667,4.3141 -48.9333,8.6283 -73.4000 12.9424c -2.0557,0.3625 -4.0160,-1.0101 -4.3784 -3.0658c -1.8595,-10.5460 -3.7190,-21.0920 -5.5786 -31.6380c -22.3326,3.9379 -44.6653,7.8757 -66.9979 11.8136c -2.0557,0.3625 -4.0159,-1.0102 -4.3784 -3.0658c -4.3142,-24.4666 -8.6283,-48.9333 -12.9424 -73.4000c -0.0391,-0.2220 -0.0580,-0.4428 -0.0580 -0.6607ZM 582.2837,24.1260 c 0.0000,-3.1311 2.5382,-5.6693 5.6693 -5.6693c 3.1311,-0.0000 5.6693,2.5382 5.6693 5.6693c 0.0000,3.1311 -2.5382,5.6693 -5.6693 5.6693c -3.1311,-0.0000 -5.6693,-2.5382 -5.6693 -5.6693ZM 651.8554,414.1817 c 0.0000,-3.1311 2.5382,-5.6693 5.6693 -5.6693c 3.1311,-0.0000 5.6693,2.5382 5.6693 5.6693c 0.0000,3.1311 -2.5382,5.6693 -5.6693 5.6693c -3.1310,-0.0000 -5.6693,-2.5382 -5.6693 -5.6693ZM 939.9448,24.1260 c 0.0000,-3.1311 2.5382,-5.6693 5.6693 -5.6693c 3.1311,-0.0000 5.6693,2.5382 5.6693 5.6693c 0.0000,3.1311 -2.5382,5.6693 -5.6693 5.6693c -3.1311,-0.0000 -5.6693,-2.5382 -5.6693 -5.6693ZM 994.9273,328.3883 c 0.0000,-3.1311 2.5382,-5.6693 5.6693 -5.6693c 3.1311,-0.0000 5.6693,2.5382 5.6693 5.6693c 0.0000,3.1310 -2.5382,5.6693 -5.6693 5.6693c -3.1311,-0.0000 -5.6693,-2.5382 -5.6693 -5.6693Z"/></g></svg>