<?xml version="1.0" encoding="UTF-8"?>
<!DOCTYPE svg PUBLIC "-//W3C//DTD SVG 1.1//EN"
    "http://www.w3.org/Graphics/SVG/1.1/DTD/svg11.dtd"><svg xmlns="http://www.w3.org/2000/svg" height="2254.9333" stroke-opacity="1" viewBox="0 0 1166 2255" font-size="1" width="1166.1650" xmlns:xlink="http://www.w3.org/1999/xlink" stroke="rgb(0,0,0)" version="1.1"><defs></defs><defs><linearGradient x2="76.6120" y1="0.0000" gradientUnits="userSpaceOnUse" spreadMethod="pad" gradientTransform="matrix(3.7795,-0.0000,0.0000,-3.7795,583.0825,2198.5073)" id="gradient0" y2="0.0000" x1="-76.6120"><stop stop-opacity="1.0000" offset="0.0000" stop-color="rgb(128,128,128)"/><stop stop-opacity="1.0000" offset="0.5000" stop-color="rgb(255,255,255)"/><stop stop-opacity="1.0000" offset="1.0000" stop-color="rgb(128,128,128)"/></linearGradient></defs><g stroke-linejoin="miter" stroke-opacity="1.0" fill-opacity="1" stroke="rgb(0,0,0)" stroke-width="0.37795275590551186" fill="url(#gradient0)" stroke-linecap="butt" stroke-miterlimit="10.0"><path d="M 3.9685,2136.3393 c 0.0000,-0.9437 0.0818,-1.8997 0.2511 -2.8596c 17.8244,-101.0874 35.6488,-202.1747 53.4733 -303.2620c 1.3802,-7.8274 8.1810,-13.5340 16.1291 -13.5340c 108.3407,-0.0000 216.6815,-0.0000 325.0223 -0.0000c 3.9059,-0.0000 7.6832,1.3959 10.6505 3.9359c 46.6648,39.9454 107.3449,64.0955 173.5877 64.0955c 66.2428,-0.0000 126.9230,-24.1502 173.5877 -64.0955c 2.9673,-2.5400 6.7446,-3.9359 10.6505 -3.9359c 108.3408,-0.0000 216.6816,-0.0000 325.0223 -0.0000c 7.9481,-0.0000 14.7490,5.7066 16.1291 13.5340c 17.8244,101.0874 35.6488,202.1747 53.4733 303.2620c 0.1693,0.9599 0.2511,1.9159 0.2511 2.8596c 0.0000,7.4653 -5.1229,14.1606 -12.6287 15.9269c -139.1905,32.7544 -278.3810,65.5088 -417.5716 98.2632c -1.2295,0.2893 -2.4884,0.4354 -3.7516 0.4354c -48.3874,-0.0000 -96.7748,-0.0000 -145.1622 -0.0000c -48.3874,-0.0000 -96.7748,-0.0000 -145.1622 -0.0000c -1.2632,-0.0000 -2.5220,-0.1461 -3.7516 -0.4354c -139.1906,-32.7544 -278.3811,-65.5088 -417.5716 -98.2632c -7.5057,-1.7663 -12.6287,-8.4615 -12.6287 -15.9269ZM 18.4590,2132.5441 c 0.0000,3.1311 2.5382,5.6693 5.6693 5.6693c 3.1310,-0.0000 5.6693,-2.5382 5.6693 -5.6693c 0.0000,-3.1311 -2.5383,-5.6693 -5.6693 -5.6693c -3.1311,-0.0000 -5.6693,2.5382 -5.6693 5.6693ZM 71.9322,1836.8411 c 0.0000,3.1311 2.5383,5.6693 5.6693 5.6693c 3.1311,-0.0000 5.6693,-2.5383 5.6693 -5.6693c 0.0000,-3.1310 -2.5382,-5.6693 -5.6693 -5.6693c -3.1310,-0.0000 -5.6693,2.5383 -5.6693 5.6693ZM 432.2510,2230.8074 c 0.0000,3.1311 2.5382,5.6693 5.6693 5.6693c 3.1310,-0.0000 5.6693,-2.5382 5.6693 -5.6693c 0.0000,-3.1310 -2.5383,-5.6693 -5.6693 -5.6693c -3.1311,-0.0000 -5.6693,2.5383 -5.6693 5.6693ZM 520.7203,1893.5340 c 0.0000,3.1310 2.5382,5.6693 5.6693 5.6693c 3.1310,-0.0000 5.6693,-2.5383 5.6693 -5.6693c 0.0000,-3.1311 -2.5383,-5.6693 -5.6693 -5.6693c -3.1311,-0.0000 -5.6693,2.5382 -5.6693 5.6693ZM 634.1061,1893.5340 c 0.0000,3.1310 2.5383,5.6693 5.6693 5.6693c 3.1311,-0.0000 5.6693,-2.5383 5.6693 -5.6693c 0.0000,-3.1311 -2.5382,-5.6693 -5.6693 -5.6693c -3.1310,-0.0000 -5.6693,2.5382 -5.6693 5.6693ZM 722.5754,2230.8074 c 0.0000,3.1311 2.5383,5.6693 5.6693 5.6693c 3.1311,-0.0000 5.6693,-2.5382 5.6693 -5.6693c 0.0000,-3.1310 -2.5382,-5.6693 -5.6693 -5.6693c -3.1310,-0.0000 -5.6693,2.5383 -5.6693 5.6693ZM 1082.8942,1836.8411 c 0.0000,3.1311 2.5382,5.6693 5.6693 5.6693c 3.1310,-0.0000 5.6693,-2.5383 5.6693 -5.6693c 0.0000,-3.1310 -2.5383,-5.6693 -5.6693 -5.6693c -3.1311,-0.0000 -5.6693,2.5383 -5.6693 5.6693ZM 1136.3675,2132.5441 c 0.0000,3.1311 2.5383,5.6693 5.6693 5.6693c 3.1311,-0.0000 5.6693,-2.5382 5.6693 -5.6693c 0.0000,-3.1311 -2.5382,-5.6693 -5.6693 -5.6693c -3.1310,-0.0000 -5.6693,2.5382 -5.6693 5.6693Z"/></g><g stroke-linejoin="miter" stroke-opacity="1.0" fill-opacity="0.5" stroke="rgb(0,0,0)" stroke-width="0.37795275590551186" fill="rgb(255,255,0)" stroke-linecap="butt" stroke-miterlimit="10.0"><path d="M 3.9685,1683.1605 c 0.0000,-0.9437 0.0818,-1.8997 0.2511 -2.8596c 17.8244,-101.0874 35.6488,-202.1747 53.4733 -303.2620c 1.3802,-7.8274 8.1810,-13.5340 16.1291 -13.5340c 108.3407,-0.0000 216.6815,-0.0000 325.0223 -0.0000c 3.9059,-0.0000 7.6832,1.3959 10.6505 3.9359c 31.8926,27.3003 70.3317,47.2228 112.6188 57.1003c 4.7563,1.1110 9.5613,2.0949 14.4111 2.9479c 12.1100,2.1300 24.4996,3.4441 37.1090 3.8830c 0.0000,0.0547 0.0000,0.1095 0.0000 0.1642c 1.2599,-0.0000 2.5197,-0.0000 3.7795 -0.0000c 0.0000,1.2599 0.0000,2.5197 0.0000 3.7795c -1.2599,-0.0000 -2.5197,-0.0000 -3.7795 -0.0000c 0.0000,0.3376 0.0000,0.6752 0.0000 1.0127c 0.0000,0.9222 0.0000,1.8445 0.0000 2.7668c 1.2599,-0.0000 2.5197,-0.0000 3.7795 -0.0000c 0.0000,1.2599 0.0000,2.5197 0.0000 3.7795c -1.2599,-0.0000 -2.5197,-0.0000 -3.7795 -0.0000c 0.0000,0.3376 0.0000,0.6752 0.0000 1.0127c 0.0000,0.9222 0.0000,1.8445 0.0000 2.7668c 1.2599,-0.0000 2.5197,-0.0000 3.7795 -0.0000c 0.0000,1.2599 0.0000,2.5197 0.0000 3.7795c -1.2599,-0.0000 -2.5197,-0.0000 -3.7795 -0.0000c 0.0000,0.3376 0.0000,0.6752 0.0000 1.0127c 0.0000,0.9223 0.0000,1.8445 0.0000 2.7668c 1.2599,-0.0000 2.5197,-0.0000 3.7795 -0.0000c 0.0000,1.2599 0.0000,2.5197 0.0000 3.7795c -1.2599,-0.0000 -2.5197,-0.0000 -3.7795 -0.0000c 0.0000,0.3376 0.0000,0.6751 0.0000 1.0127c 0.0000,0.9223 0.0000,1.8445 0.0000 2.7668c 1.2599,-0.0000 2.5197,-0.0000 3.7795 -0.0000c 0.0000,0.6299 0.0000,1.2599 0.0000 1.8898c 3.7795,-0.0000 7.5590,-0.0000 11.3386 -0.0000c 0.0000,-0.6299 0.0000,-1.2599 0.0000 -1.8898c 1.2599,-0.0000 2.5197,-0.0000 3.7795 -0.0000c 0.0000,-1.2599 0.0000,-2.5197 0.0000 -3.7795c -1.2599,-0.0000 -2.5197,-0.0000 -3.7795 -0.0000c 0.0000,-1.2599 0.0000,-2.5197 0.0000 -3.7795c 1.2599,-0.0000 2.5197,-0.0000 3.7795 -0.0000c 0.0000,-1.2599 0.0000,-2.5197 0.0000 -3.7796c -1.2599,-0.0000 -2.5197,-0.0000 -3.7795 -0.0000c 0.0000,-1.2599 0.0000,-2.5197 0.0000 -3.7795c 1.2599,-0.0000 2.5197,-0.0000 3.7795 -0.0000c 0.0000,-1.2598 0.0000,-2.5197 0.0000 -3.7795c -1.2599,-0.0000 -2.5197,-0.0000 -3.7795 -0.0000c 0.0000,-1.2599 0.0000,-2.5197 0.0000 -3.7795c 1.2599,-0.0000 2.5197,-0.0000 3.7795 -0.0000c 0.0000,-1.2598 0.0000,-2.5197 0.0000 -3.7795c -1.2599,-0.0000 -2.5197,-0.0000 -3.7795 -0.0000c 0.0000,-1.2599 0.0000,-2.5197 0.0000 -3.7795c 1.2599,-0.0000 2.5197,-0.0000 3.7795 -0.0000c 0.0000,-0.0547 0.0000,-0.1095 0.0000 -0.1642c 12.6094,-0.4390 24.9990,-1.7530 37.1090 -3.8830c 4.8498,-0.8530 9.6548,-1.8369 14.4111 -2.9479c 42.2872,-9.8775 80.7262,-29.8000 112.6188 -57.1003c 2.9673,-2.5400 6.7446,-3.9359 10.6505 -3.9359c 108.3408,-0.0000 216.6816,-0.0000 325.0223 -0.0000c 7.9481,-0.0000 14.7490,5.7066 16.1291 13.5340c 17.8244,101.0874 35.6488,202.1747 53.4733 303.2620c 0.1693,0.9599 0.2511,1.9159 0.2511 2.8596c 0.0000,7.4653 -5.1229,14.1606 -12.6287 15.9269c -139.1905,32.7544 -278.3810,65.5088 -417.5716 98.2632c -1.2295,0.2893 -2.4884,0.4354 -3.7516 0.4354c -48.3874,-0.0000 -96.7748,-0.0000 -145.1622 -0.0000c -48.3874,-0.0000 -96.7748,-0.0000 -145.1622 -0.0000c -1.2632,-0.0000 -2.5220,-0.1461 -3.7516 -0.4354c -139.1906,-32.7544 -278.3811,-65.5088 -417.5716 -98.2632c -7.5057,-1.7663 -12.6287,-8.4615 -12.6287 -15.9269ZM 18.4590,1679.3653 c 0.0000,3.1311 2.5382,5.6693 5.6693 5.6693c 3.1310,-0.0000 5.6693,-2.5382 5.6693 -5.6693c 0.0000,-3.1311 -2.5383,-5.6693 -5.6693 -5.6693c -3.1311,-0.0000 -5.6693,2.5382 -5.6693 5.6693ZM 32.8939,1665.5281 c 4.5756,2.9046 7.6123,8.0163 7.6123 13.8372c 0.0000,0.9607 -0.0827,1.9021 -0.2414 2.8174c 1.2447,0.6386 2.6056,1.1296 4.0607 1.4427c 127.4045,27.4087 254.8089,54.8173 382.2134 82.2260c 2.9468,-2.8483 6.9595,-4.6008 11.3815 -4.6008c 6.0621,-0.0000 11.3550,3.2936 14.1869 8.1890c 43.6584,-0.0000 87.3169,-0.0000 130.9753 -0.0000c 43.6584,-0.0000 87.3169,-0.0000 130.9753 -0.0000c 2.8318,-4.8954 8.1247,-8.1890 14.1869 -8.1890c 4.4220,-0.0000 8.4347,1.7525 11.3815 4.6008c 127.4045,-27.4087 254.8089,-54.8173 382.2134 -82.2260c 1.4551,-0.3131 2.8160,-0.8041 4.0607 -1.4427c -0.1587,-0.9154 -0.2414,-1.8567 -0.2414 -2.8174c 0.0000,-5.8209 3.0367,-10.9326 7.6123 -13.8373c -16.8386,-87.3031 -33.6771,-174.6063 -50.5157 -261.9095c -0.4367,-2.2640 -1.4439,-4.3239 -2.8720 -6.0650c -1.4371,-0.8999 -2.7246,-2.0166 -3.8166 -3.3042c -2.4898,-1.5214 -5.4741,-2.3979 -8.6511 -2.3979c -103.0377,-0.0000 -206.0754,-0.0000 -309.1131 -0.0000c -3.7147,-0.0000 -7.3072,1.2137 -10.1292 3.4221c -26.4996,20.7376 -57.7514,36.5790 -92.0442 45.9778c -0.4652,8.6286 -7.6092,15.4820 -16.3539 15.4820c -4.4006,-0.0000 -8.3959,-1.7356 -11.3386 -4.5595c 0.0000,5.7193 0.0000,11.4386 0.0000 17.1579c 0.0000,4.1748 -3.3843,7.5590 -7.5590 7.5590c -25.1969,-0.0000 -50.3937,-0.0000 -75.5906 -0.0000c -4.1748,-0.0000 -7.5590,-3.3843 -7.5590 -7.5590c 0.0000,-1.3775 0.0000,-2.7550 0.0000 -4.1325c 0.0000,-4.3418 0.0000,-8.6836 0.0000 -13.0254c -2.9427,2.8240 -6.9380,4.5595 -11.3386 4.5595c -8.7447,-0.0000 -15.8887,-6.8534 -16.3539 -15.4820c -34.2928,-9.3987 -65.5446,-25.2401 -92.0442 -45.9778c -2.8220,-2.2084 -6.4144,-3.4221 -10.1292 -3.4221c -103.0377,-0.0000 -206.0754,-0.0000 -309.1131 -0.0000c -3.1771,-0.0000 -6.1614,0.8765 -8.6512 2.3979c -1.0919,1.2877 -2.3794,2.4044 -3.8165 3.3042c -1.4281,1.7411 -2.4354,3.8010 -2.8720 6.0650c -16.8386,87.3032 -33.6771,174.6064 -50.5157 261.9096ZM 71.9322,1383.6623 c 0.0000,3.1311 2.5383,5.6693 5.6693 5.6693c 3.1311,-0.0000 5.6693,-2.5383 5.6693 -5.6693c 0.0000,-3.1310 -2.5382,-5.6693 -5.6693 -5.6693c -3.1310,-0.0000 -5.6693,2.5383 -5.6693 5.6693ZM 432.2510,1777.6286 c 0.0000,3.1311 2.5382,5.6693 5.6693 5.6693c 3.1310,-0.0000 5.6693,-2.5382 5.6693 -5.6693c 0.0000,-3.1310 -2.5383,-5.6693 -5.6693 -5.6693c -3.1311,-0.0000 -5.6693,2.5383 -5.6693 5.6693ZM 520.7203,1440.3553 c 0.0000,3.1310 2.5382,5.6693 5.6693 5.6693c 3.1310,-0.0000 5.6693,-2.5383 5.6693 -5.6693c 0.0000,-3.1311 -2.5383,-5.6693 -5.6693 -5.6693c -3.1311,-0.0000 -5.6693,2.5382 -5.6693 5.6693ZM 634.1061,1440.3553 c 0.0000,3.1310 2.5383,5.6693 5.6693 5.6693c 3.1311,-0.0000 5.6693,-2.5383 5.6693 -5.6693c 0.0000,-3.1311 -2.5382,-5.6693 -5.6693 -5.6693c -3.1310,-0.0000 -5.6693,2.5382 -5.6693 5.6693ZM 722.5754,1777.6286 c 0.0000,3.1311 2.5383,5.6693 5.6693 5.6693c 3.1311,-0.0000 5.6693,-2.5382 5.6693 -5.6693c 0.0000,-3.1310 -2.5382,-5.6693 -5.6693 -5.6693c -3.1310,-0.0000 -5.6693,2.5383 -5.6693 5.6693ZM 1082.8942,1383.6623 c 0.0000,3.1311 2.5382,5.6693 5.6693 5.6693c 3.1310,-0.0000 5.6693,-2.5383 5.6693 -5.6693c 0.0000,-3.1310 -2.5383,-5.6693 -5.6693 -5.6693c -3.1311,-0.0000 -5.6693,2.5383 -5.6693 5.6693ZM 1136.3675,1679.3653 c 0.0000,3.1311 2.5383,5.6693 5.6693 5.6693c 3.1311,-0.0000 5.6693,-2.5382 5.6693 -5.6693c 0.0000,-3.1311 -2.5382,-5.6693 -5.6693 -5.6693c -3.1310,-0.0000 -5.6693,2.5382 -5.6693 5.6693Z"/></g><g stroke-linejoin="miter" stroke-opacity="1.0" fill-opacity="0.5" stroke="rgb(0,0,0)" stroke-width="0.37795275590551186" fill="rgb(255,255,0)" stroke-linecap="butt" stroke-miterlimit="10.0"><path d="M 3.9685,1229.9817 c 0.0000,-0.9437 0.0818,-1.8997 0.2511 -2.8596c 17.8244,-101.0874 35.6488,-202.1747 53.4733 -303.2620c 1.3802,-7.8274 8.1810,-13.5340 16.1291 -13.5340c 108.3407,-0.0000 216.6815,-0.0000 325.0223 -0.0000c 3.9059,-0.0000 7.6832,1.3959 10.6505 3.9359c 31.8926,27.3003 70.3317,47.2228 112.6188 57.1003c 4.7563,1.1110 9.5613,2.0949 14.4111 2.9479c 15.1221,2.6598 30.6802,4.0473 46.5578 4.0473c 15.8777,-0.0000 31.4357,-1.3874 46.5578 -4.0473c 4.8498,-0.8530 9.6548,-1.8369 14.4111 -2.9479c 42.2872,-9.8775 80.7262,-29.8000 112.6188 -57.1003c 2.9673,-2.5400 6.7446,-3.9359 10.6505 -3.9359c 108.3408,-0.0000 216.6816,-0.0000 325.0223 -0.0000c 7.9481,-0.0000 14.7490,5.7066 16.1291 13.5340c 17.8244,101.0874 35.6488,202.1747 53.4733 303.2620c 0.1693,0.9599 0.2511,1.9159 0.2511 2.8596c 0.0000,7.4653 -5.1229,14.1606 -12.6287 15.9269c -139.1905,32.7544 -278.3810,65.5088 -417.5716 98.2632c -1.2295,0.2893 -2.4884,0.4354 -3.7516 0.4354c -48.3874,-0.0000 -96.7748,-0.0000 -145.1622 -0.0000c -48.3874,-0.0000 -96.7748,-0.0000 -145.1622 -0.0000c -1.2632,-0.0000 -2.5220,-0.1461 -3.7516 -0.4354c -139.1906,-32.7544 -278.3811,-65.5088 -417.5716 -98.2632c -7.5057,-1.7663 -12.6287,-8.4615 -12.6287 -15.9269ZM 18.4590,1226.1865 c 0.0000,3.1311 2.5382,5.6693 5.6693 5.6693c 3.1310,-0.0000 5.6693,-2.5382 5.6693 -5.6693c 0.0000,-3.1311 -2.5383,-5.6693 -5.6693 -5.6693c -3.1311,-0.0000 -5.6693,2.5382 -5.6693 5.6693ZM 32.8939,1212.3493 c 4.5756,2.9046 7.6123,8.0163 7.6123 13.8372c 0.0000,0.9607 -0.0827,1.9021 -0.2414 2.8174c 1.2447,0.6386 2.6056,1.1296 4.0607 1.4427c 127.4045,27.4087 254.8089,54.8173 382.2134 82.2260c 2.9468,-2.8483 6.9595,-4.6008 11.3815 -4.6008c 6.0621,-0.0000 11.3550,3.2936 14.1869 8.1890c 43.6584,-0.0000 87.3169,-0.0000 130.9753 -0.0000c 43.6584,-0.0000 87.3169,-0.0000 130.9753 -0.0000c 2.8318,-4.8954 8.1247,-8.1890 14.1869 -8.1890c 4.4220,-0.0000 8.4347,1.7525 11.3815 4.6008c 127.4045,-27.4087 254.8089,-54.8173 382.2134 -82.2260c 1.4551,-0.3131 2.8160,-0.8041 4.0607 -1.4427c -0.1587,-0.9154 -0.2414,-1.8567 -0.2414 -2.8174c 0.0000,-5.8209 3.0367,-10.9326 7.6123 -13.8373c -16.8386,-87.3031 -33.6771,-174.6063 -50.5157 -261.9095c -0.4367,-2.2640 -1.4439,-4.3239 -2.8720 -6.0650c -1.4371,-0.8999 -2.7246,-2.0166 -3.8166 -3.3042c -2.4898,-1.5214 -5.4741,-2.3979 -8.6511 -2.3979c -103.0377,-0.0000 -206.0754,-0.0000 -309.1131 -0.0000c -3.7147,-0.0000 -7.3072,1.2137 -10.1292 3.4221c -26.4996,20.7376 -57.7514,36.5790 -92.0442 45.9778c -0.4652,8.6286 -7.6092,15.4820 -16.3539 15.4820c -4.4006,-0.0000 -8.3959,-1.7356 -11.3386 -4.5595c 0.0000,5.7193 0.0000,11.4386 0.0000 17.1579c 0.0000,4.1748 -3.3843,7.5590 -7.5590 7.5590c -9.4488,-0.0000 -18.8977,-0.0000 -28.3465 -0.0000c -1.2599,-0.0000 -2.5197,-0.0000 -3.7795 -0.0000c 0.0000,-1.2599 0.0000,-2.5197 0.0000 -3.7795c 1.2599,-0.0000 2.5197,-0.0000 3.7795 -0.0000c 0.0000,-1.2599 0.0000,-2.5197 0.0000 -3.7795c -1.2599,-0.0000 -2.5197,-0.0000 -3.7795 -0.0000c 0.0000,-1.2599 0.0000,-2.5197 0.0000 -3.7795c 1.2599,-0.0000 2.5197,-0.0000 3.7795 -0.0000c 0.0000,-1.2599 0.0000,-2.5197 0.0000 -3.7795c -1.2599,-0.0000 -2.5197,-0.0000 -3.7795 -0.0000c 0.0000,-1.2599 0.0000,-2.5197 0.0000 -3.7795c 1.2599,-0.0000 2.5197,-0.0000 3.7795 -0.0000c 0.0000,-1.2599 0.0000,-2.5197 0.0000 -3.7795c -6.2992,-0.0000 -12.5984,-0.0000 -18.8976 -0.0000c 0.0000,0.3376 0.0000,0.6751 0.0000 1.0127c 0.0000,0.9223 0.0000,1.8445 0.0000 2.7668c 1.2599,-0.0000 2.5197,-0.0000 3.7795 -0.0000c 0.0000,1.2599 0.0000,2.5197 0.0000 3.7795c -1.2599,-0.0000 -2.5197,-0.0000 -3.7795 -0.0000c 0.0000,0.3376 0.0000,0.6751 0.0000 1.0127c 0.0000,0.9223 0.0000,1.8445 0.0000 2.7668c 1.2599,-0.0000 2.5197,-0.0000 3.7795 -0.0000c 0.0000,1.2599 0.0000,2.5197 0.0000 3.7795c -1.2599,-0.0000 -2.5197,-0.0000 -3.7795 -0.0000c 0.0000,0.3376 0.0000,0.6751 0.0000 1.0127c 0.0000,0.9222 0.0000,1.8445 0.0000 2.7668c 1.2599,-0.0000 2.5197,-0.0000 3.7795 -0.0000c 0.0000,1.2599 0.0000,2.5197 0.0000 3.7795c -1.2599,-0.0000 -2.5197,-0.0000 -3.7795 -0.0000c -9.4488,-0.0000 -18.8977,-0.0000 -28.3465 -0.0000c -4.1748,-0.0000 -7.5590,-3.3843 -7.5590 -7.5590c 0.0000,-1.3775 0.0000,-2.7550 0.0000 -4.1325c 0.0000,-4.3418 0.0000,-8.6836 0.0000 -13.0254c -2.9427,2.8240 -6.9380,4.5595 -11.3386 4.5595c -8.7447,-0.0000 -15.8887,-6.8534 -16.3539 -15.4820c -34.2928,-9.3987 -65.5446,-25.2401 -92.0442 -45.9778c -2.8220,-2.2084 -6.4144,-3.4221 -10.1292 -3.4221c -103.0377,-0.0000 -206.0754,-0.0000 -309.1131 -0.0000c -3.1771,-0.0000 -6.1614,0.8765 -8.6512 2.3979c -1.0919,1.2877 -2.3794,2.4044 -3.8165 3.3042c -1.4281,1.7411 -2.4354,3.8010 -2.8720 6.0650c -16.8386,87.3032 -33.6771,174.6064 -50.5157 261.9096ZM 71.9322,930.4835 c 0.0000,3.1311 2.5383,5.6693 5.6693 5.6693c 3.1311,-0.0000 5.6693,-2.5383 5.6693 -5.6693c 0.0000,-3.1310 -2.5382,-5.6693 -5.6693 -5.6693c -3.1310,-0.0000 -5.6693,2.5383 -5.6693 5.6693ZM 432.2510,1324.4498 c 0.0000,3.1311 2.5382,5.6693 5.6693 5.6693c 3.1310,-0.0000 5.6693,-2.5382 5.6693 -5.6693c 0.0000,-3.1310 -2.5383,-5.6693 -5.6693 -5.6693c -3.1311,-0.0000 -5.6693,2.5383 -5.6693 5.6693ZM 520.7203,987.1765 c 0.0000,3.1310 2.5382,5.6693 5.6693 5.6693c 3.1310,-0.0000 5.6693,-2.5383 5.6693 -5.6693c 0.0000,-3.1311 -2.5383,-5.6693 -5.6693 -5.6693c -3.1311,-0.0000 -5.6693,2.5382 -5.6693 5.6693ZM 634.1061,987.1765 c 0.0000,3.1310 2.5383,5.6693 5.6693 5.6693c 3.1311,-0.0000 5.6693,-2.5383 5.6693 -5.6693c 0.0000,-3.1311 -2.5382,-5.6693 -5.6693 -5.6693c -3.1310,-0.0000 -5.6693,2.5382 -5.6693 5.6693ZM 722.5754,1324.4498 c 0.0000,3.1311 2.5383,5.6693 5.6693 5.6693c 3.1311,-0.0000 5.6693,-2.5382 5.6693 -5.6693c 0.0000,-3.1310 -2.5382,-5.6693 -5.6693 -5.6693c -3.1310,-0.0000 -5.6693,2.5383 -5.6693 5.6693ZM 1082.8942,930.4835 c 0.0000,3.1311 2.5382,5.6693 5.6693 5.6693c 3.1310,-0.0000 5.6693,-2.5383 5.6693 -5.6693c 0.0000,-3.1310 -2.5383,-5.6693 -5.6693 -5.6693c -3.1311,-0.0000 -5.6693,2.5383 -5.6693 5.6693ZM 1136.3675,1226.1865 c 0.0000,3.1311 2.5383,5.6693 5.6693 5.6693c 3.1311,-0.0000 5.6693,-2.5382 5.6693 -5.6693c 0.0000,-3.1311 -2.5382,-5.6693 -5.6693 -5.6693c -3.1310,-0.0000 -5.6693,2.5382 -5.6693 5.6693Z"/></g><g stroke-linejoin="miter" stroke-opacity="1.0" fill-opacity="0.5" stroke="rgb(0,0,0)" stroke-width="0.37795275590551186" fill="rgb(0,0,0)" stroke-linecap="butt" stroke-miterlimit="10.0"><path d="M 3.9685,776.8029 c 0.0000,-0.9437 0.0818,-1.8997 0.2511 -2.8596c 17.8244,-101.0874 35.6488,-202.1747 53.4733 -303.2620c 1.3802,-7.8274 8.1810,-13.5340 16.1291 -13.5340c 108.3407,-0.0000 216.6815,-0.0000 325.0223 -0.0000c 3.9059,-0.0000 7.6832,1.3959 10.6505 3.9359c 46.6648,39.9454 107.3449,64.0955 173.5877 64.0955c 66.2428,-0.0000 126.9230,-24.1502 173.5877 -64.0955c 2.9673,-2.5400 6.7446,-3.9359 10.6505 -3.9359c 108.3408,-0.0000 216.6816,-0.0000 325.0223 -0.0000c 7.9481,-0.0000 14.7490,5.7066 16.1291 13.5340c 17.8244,101.0874 35.6488,202.1747 53.4733 303.2620c 0.1693,0.9599 0.2511,1.9159 0.2511 2.8596c 0.0000,7.4653 -5.1229,14.1606 -12.6287 15.9269c -139.1905,32.7544 -278.3810,65.5088 -417.5716 98.2632c -1.2295,0.2893 -2.4884,0.4354 -3.7516 0.4354c -48.3874,-0.0000 -96.7748,-0.0000 -145.1622 -0.0000c -48.3874,-0.0000 -96.7748,-0.0000 -145.1622 -0.0000c -1.2632,-0.0000 -2.5220,-0.1461 -3.7516 -0.4354c -139.1906,-32.7544 -278.3811,-65.5088 -417.5716 -98.2632c -7.5057,-1.7663 -12.6287,-8.4615 -12.6287 -15.9269ZM 18.4590,773.0077 c 0.0000,3.1311 2.5382,5.6693 5.6693 5.6693c 3.1310,-0.0000 5.6693,-2.5382 5.6693 -5.6693c 0.0000,-3.1311 -2.5383,-5.6693 -5.6693 -5.6693c -3.1311,-0.0000 -5.6693,2.5382 -5.6693 5.6693ZM 52.6676,760.8133 c 1.0084,0.1778 2.0169,0.3556 3.0253 0.5334c -0.2145,1.2164 -0.4290,2.4329 -0.6435 3.6493c 17.3326,3.0562 34.6652,6.1124 51.9978 9.1686c 0.2145,-1.2164 0.4290,-2.4329 0.6435 -3.6493c 1.0084,0.1778 2.0169,0.3556 3.0253 0.5334c 0.7657,-4.3426 1.5314,-8.6852 2.2971 -13.0277c -1.0084,-0.1778 -2.0169,-0.3556 -3.0253 -0.5334c 1.0958,-6.2146 2.1916,-12.4291 3.2874 -18.6437c 1.0085,0.1778 2.0169,0.3556 3.0253 0.5334c 0.7657,-4.3426 1.5314,-8.6852 2.2971 -13.0277c -1.0084,-0.1778 -2.0169,-0.3556 -3.0253 -0.5334c 0.2145,-1.2165 0.4290,-2.4329 0.6435 -3.6494c -17.3326,-3.0562 -34.6652,-6.1124 -51.9978 -9.1686c -0.2145,1.2165 -0.4290,2.4329 -0.6435 3.6494c -1.0085,-0.1778 -2.0169,-0.3556 -3.0253 -0.5334c -0.7657,4.3426 -1.5314,8.6852 -2.2971 13.0277c 1.0084,0.1778 2.0169,0.3556 3.0253 0.5334c -1.0958,6.2146 -2.1916,12.4291 -3.2874 18.6437c -1.0084,-0.1778 -2.0169,-0.3556 -3.0253 -0.5334c -0.7657,4.3426 -1.5314,8.6852 -2.2971 13.0278ZM 65.1374,690.0932 c 1.0084,0.1778 2.0169,0.3556 3.0253 0.5334c -0.2145,1.2164 -0.4290,2.4329 -0.6435 3.6493c 17.3326,3.0562 34.6652,6.1124 51.9978 9.1686c 0.2145,-1.2164 0.4290,-2.4329 0.6435 -3.6493c 1.0084,0.1778 2.0169,0.3556 3.0253 0.5334c 0.7657,-4.3426 1.5314,-8.6852 2.2971 -13.0278c -1.0084,-0.1778 -2.0169,-0.3556 -3.0253 -0.5334c 1.0958,-6.2146 2.1916,-12.4291 3.2874 -18.6437c 1.0085,0.1778 2.0169,0.3556 3.0253 0.5334c 0.7657,-4.3426 1.5314,-8.6852 2.2971 -13.0277c -1.0084,-0.1778 -2.0169,-0.3556 -3.0253 -0.5334c 0.2145,-1.2165 0.4290,-2.4329 0.6435 -3.6494c -17.3326,-3.0562 -34.6652,-6.1124 -51.9978 -9.1686c -0.2145,1.2165 -0.4290,2.4329 -0.6435 3.6493c -1.0084,-0.1778 -2.0169,-0.3556 -3.0253 -0.5334c -0.7657,4.3426 -1.5314,8.6852 -2.2971 13.0278c 1.0084,0.1778 2.0169,0.3556 3.0253 0.5334c -1.0958,6.2146 -2.1916,12.4291 -3.2874 18.6437c -1.0084,-0.1778 -2.0169,-0.3556 -3.0253 -0.5334c -0.7657,4.3426 -1.5314,8.6852 -2.2971 13.0278ZM 71.9322,477.3047 c 0.0000,3.1311 2.5383,5.6693 5.6693 5.6693c 3.1311,-0.0000 5.6693,-2.5383 5.6693 -5.6693c 0.0000,-3.1310 -2.5382,-5.6693 -5.6693 -5.6693c -3.1310,-0.0000 -5.6693,2.5383 -5.6693 5.6693ZM 77.6073,619.3731 c 1.0084,0.1778 2.0169,0.3556 3.0253 0.5334c -0.2145,1.2165 -0.4290,2.4329 -0.6435 3.6494c 17.3326,3.0562 34.6652,6.1124 51.9978 9.1686c 0.2145,-1.2165 0.4290,-2.4329 0.6435 -3.6494c 1.0084,0.1778 2.0169,0.3556 3.0253 0.5335c 0.7657,-4.3426 1.5314,-8.6852 2.2971 -13.0278c -1.0084,-0.1778 -2.0169,-0.3556 -3.0253 -0.5334c 1.0958,-6.2146 2.1916,-12.4291 3.2874 -18.6437c 1.0085,0.1778 2.0169,0.3556 3.0253 0.5334c 0.7657,-4.3426 1.5314,-8.6852 2.2971 -13.0278c -1.0084,-0.1778 -2.0169,-0.3556 -3.0253 -0.5334c 0.2145,-1.2164 0.4290,-2.4329 0.6435 -3.6493c -17.3326,-3.0562 -34.6652,-6.1124 -51.9978 -9.1686c -0.2145,1.2164 -0.4290,2.4329 -0.6435 3.6493c -1.0084,-0.1778 -2.0169,-0.3556 -3.0253 -0.5334c -0.7657,4.3426 -1.5314,8.6852 -2.2971 13.0278c 1.0084,0.1778 2.0169,0.3556 3.0253 0.5334c -1.0958,6.2146 -2.1916,12.4291 -3.2874 18.6437c -1.0084,-0.1778 -2.0169,-0.3556 -3.0253 -0.5334c -0.7657,4.3426 -1.5314,8.6852 -2.2971 13.0277ZM 90.0771,548.6531 c 1.0084,0.1778 2.0169,0.3556 3.0253 0.5334c -0.2145,1.2165 -0.4290,2.4329 -0.6435 3.6494c 17.3326,3.0562 34.6652,6.1124 51.9978 9.1686c 0.2145,-1.2165 0.4290,-2.4329 0.6435 -3.6494c 1.0084,0.1778 2.0169,0.3556 3.0253 0.5334c 0.7657,-4.3426 1.5314,-8.6852 2.2971 -13.0277c -1.0084,-0.1778 -2.0169,-0.3556 -3.0253 -0.5334c 1.0958,-6.2146 2.1916,-12.4291 3.2874 -18.6437c 1.0084,0.1778 2.0169,0.3556 3.0253 0.5334c 0.7657,-4.3426 1.5314,-8.6852 2.2971 -13.0278c -1.0084,-0.1778 -2.0169,-0.3556 -3.0253 -0.5334c 0.2145,-1.2164 0.4290,-2.4329 0.6435 -3.6493c -17.3326,-3.0562 -34.6652,-6.1124 -51.9978 -9.1686c -0.2145,1.2164 -0.4290,2.4329 -0.6435 3.6493c -1.0084,-0.1778 -2.0169,-0.3556 -3.0253 -0.5334c -0.7657,4.3426 -1.5314,8.6852 -2.2971 13.0277c 1.0084,0.1778 2.0169,0.3556 3.0253 0.5334c -1.0958,6.2146 -2.1916,12.4291 -3.2874 18.6437c -1.0084,-0.1778 -2.0169,-0.3556 -3.0253 -0.5334c -0.7657,4.3426 -1.5314,8.6852 -2.2971 13.0277ZM 124.0439,769.5610 c 1.0084,0.1778 2.0169,0.3556 3.0253 0.5334c -0.2145,1.2164 -0.4290,2.4329 -0.6435 3.6493c 17.3326,3.0562 34.6652,6.1124 51.9978 9.1686c 0.2145,-1.2164 0.4290,-2.4329 0.6435 -3.6493c 1.0084,0.1778 2.0169,0.3556 3.0253 0.5334c 0.7657,-4.3426 1.5314,-8.6852 2.2971 -13.0278c -1.0084,-0.1778 -2.0169,-0.3556 -3.0253 -0.5334c 1.0958,-6.2146 2.1916,-12.4291 3.2874 -18.6437c 1.0084,0.1778 2.0169,0.3556 3.0253 0.5334c 0.7657,-4.3426 1.5314,-8.6852 2.2972 -13.0277c -1.0085,-0.1778 -2.0169,-0.3556 -3.0253 -0.5334c 0.2145,-1.2165 0.4290,-2.4329 0.6435 -3.6494c -17.3326,-3.0562 -34.6652,-6.1124 -51.9978 -9.1686c -0.2145,1.2165 -0.4290,2.4329 -0.6435 3.6494c -1.0084,-0.1778 -2.0169,-0.3556 -3.0253 -0.5335c -0.7657,4.3426 -1.5314,8.6852 -2.2971 13.0278c 1.0085,0.1778 2.0169,0.3556 3.0253 0.5334c -1.0958,6.2146 -2.1916,12.4291 -3.2874 18.6437c -1.0084,-0.1778 -2.0169,-0.3556 -3.0253 -0.5334c -0.7657,4.3426 -1.5314,8.6852 -2.2971 13.0278ZM 136.5138,698.8410 c 1.0084,0.1778 2.0169,0.3556 3.0253 0.5334c -0.2145,1.2165 -0.4290,2.4329 -0.6435 3.6494c 17.3326,3.0562 34.6652,6.1124 51.9978 9.1686c 0.2145,-1.2165 0.4290,-2.4329 0.6435 -3.6493c 1.0084,0.1778 2.0169,0.3556 3.0253 0.5334c 0.7657,-4.3426 1.5314,-8.6852 2.2971 -13.0278c -1.0084,-0.1778 -2.0169,-0.3556 -3.0253 -0.5334c 1.0958,-6.2146 2.1916,-12.4291 3.2874 -18.6437c 1.0084,0.1778 2.0169,0.3556 3.0253 0.5334c 0.7657,-4.3426 1.5314,-8.6852 2.2971 -13.0278c -1.0084,-0.1778 -2.0169,-0.3556 -3.0253 -0.5334c 0.2145,-1.2164 0.4290,-2.4329 0.6435 -3.6493c -17.3326,-3.0562 -34.6652,-6.1124 -51.9978 -9.1686c -0.2145,1.2164 -0.4290,2.4329 -0.6435 3.6493c -1.0084,-0.1778 -2.0169,-0.3556 -3.0253 -0.5334c -0.7657,4.3426 -1.5314,8.6852 -2.2971 13.0278c 1.0084,0.1778 2.0169,0.3556 3.0253 0.5334c -1.0958,6.2146 -2.1916,12.4291 -3.2874 18.6437c -1.0084,-0.1778 -2.0169,-0.3556 -3.0253 -0.5334c -0.7657,4.3426 -1.5314,8.6852 -2.2971 13.0278ZM 148.9836,628.1209 c 1.0084,0.1778 2.0169,0.3556 3.0253 0.5334c -0.2145,1.2165 -0.4290,2.4329 -0.6435 3.6494c 17.3326,3.0562 34.6652,6.1124 51.9978 9.1686c 0.2145,-1.2165 0.4290,-2.4329 0.6435 -3.6494c 1.0084,0.1778 2.0169,0.3556 3.0253 0.5334c 0.7657,-4.3426 1.5314,-8.6852 2.2971 -13.0277c -1.0084,-0.1778 -2.0169,-0.3556 -3.0253 -0.5334c 1.0958,-6.2146 2.1916,-12.4291 3.2874 -18.6437c 1.0084,0.1778 2.0169,0.3556 3.0253 0.5334c 0.7657,-4.3426 1.5314,-8.6852 2.2971 -13.0278c -1.0084,-0.1778 -2.0169,-0.3556 -3.0253 -0.5334c 0.2145,-1.2164 0.4290,-2.4329 0.6435 -3.6493c -17.3326,-3.0562 -34.6652,-6.1124 -51.9978 -9.1686c -0.2145,1.2164 -0.4290,2.4329 -0.6435 3.6493c -1.0084,-0.1778 -2.0169,-0.3556 -3.0253 -0.5334c -0.7657,4.3426 -1.5314,8.6852 -2.2971 13.0277c 1.0084,0.1778 2.0169,0.3556 3.0253 0.5335c -1.0958,6.2146 -2.1916,12.4291 -3.2874 18.6437c -1.0085,-0.1778 -2.0169,-0.3556 -3.0253 -0.5334c -0.7657,4.3426 -1.5314,8.6852 -2.2971 13.0277ZM 161.4535,557.4008 c 1.0084,0.1778 2.0169,0.3556 3.0253 0.5334c -0.2145,1.2165 -0.4290,2.4329 -0.6435 3.6494c 17.3326,3.0562 34.6652,6.1124 51.9978 9.1686c 0.2145,-1.2165 0.4290,-2.4329 0.6435 -3.6494c 1.0084,0.1778 2.0169,0.3556 3.0253 0.5334c 0.7657,-4.3426 1.5314,-8.6852 2.2971 -13.0277c -1.0084,-0.1778 -2.0169,-0.3556 -3.0253 -0.5334c 1.0958,-6.2146 2.1916,-12.4291 3.2874 -18.6437c 1.0084,0.1778 2.0169,0.3556 3.0253 0.5334c 0.7657,-4.3426 1.5314,-8.6852 2.2971 -13.0277c -1.0084,-0.1778 -2.0169,-0.3556 -3.0253 -0.5334c 0.2145,-1.2164 0.4290,-2.4329 0.6435 -3.6493c -17.3326,-3.0562 -34.6652,-6.1124 -51.9978 -9.1686c -0.2145,1.2164 -0.4290,2.4329 -0.6435 3.6493c -1.0084,-0.1778 -2.0169,-0.3556 -3.0253 -0.5334c -0.7657,4.3426 -1.5314,8.6852 -2.2971 13.0277c 1.0084,0.1778 2.0169,0.3556 3.0253 0.5334c -1.0958,6.2146 -2.1916,12.4291 -3.2874 18.6437c -1.0085,-0.1778 -2.0169,-0.3556 -3.0253 -0.5334c -0.7657,4.3426 -1.5314,8.6852 -2.2971 13.0277ZM 196.7329,770.8645 c 1.0084,0.1778 2.0169,0.3556 3.0253 0.5335c -0.2145,1.2164 -0.4290,2.4329 -0.6435 3.6493c 17.3326,3.0562 34.6652,6.1124 51.9978 9.1686c 0.2145,-1.2164 0.4290,-2.4329 0.6435 -3.6493c 1.0084,0.1778 2.0169,0.3556 3.0253 0.5334c 0.7657,-4.3426 1.5314,-8.6852 2.2971 -13.0278c -1.0084,-0.1778 -2.0169,-0.3556 -3.0253 -0.5334c 1.0958,-6.2146 2.1916,-12.4291 3.2874 -18.6437c 1.0084,0.1778 2.0169,0.3556 3.0253 0.5334c 0.7657,-4.3426 1.5314,-8.6852 2.2971 -13.0277c -1.0084,-0.1778 -2.0169,-0.3556 -3.0253 -0.5334c 0.2145,-1.2165 0.4290,-2.4329 0.6435 -3.6494c -17.3326,-3.0562 -34.6652,-6.1124 -51.9978 -9.1686c -0.2145,1.2164 -0.4290,2.4329 -0.6435 3.6493c -1.0084,-0.1778 -2.0169,-0.3556 -3.0253 -0.5334c -0.7657,4.3426 -1.5314,8.6852 -2.2971 13.0278c 1.0085,0.1778 2.0169,0.3556 3.0253 0.5334c -1.0958,6.2146 -2.1916,12.4291 -3.2874 18.6437c -1.0084,-0.1778 -2.0169,-0.3556 -3.0253 -0.5334c -0.7657,4.3426 -1.5314,8.6852 -2.2971 13.0277ZM 209.2028,700.1445 c 1.0084,0.1778 2.0169,0.3556 3.0253 0.5334c -0.2145,1.2165 -0.4290,2.4329 -0.6435 3.6494c 17.3326,3.0562 34.6652,6.1124 51.9978 9.1686c 0.2145,-1.2165 0.4290,-2.4329 0.6435 -3.6493c 1.0084,0.1778 2.0169,0.3556 3.0253 0.5334c 0.7657,-4.3426 1.5314,-8.6852 2.2971 -13.0277c -1.0084,-0.1778 -2.0169,-0.3556 -3.0253 -0.5334c 1.0958,-6.2146 2.1916,-12.4291 3.2874 -18.6437c 1.0084,0.1778 2.0169,0.3556 3.0253 0.5334c 0.7657,-4.3426 1.5314,-8.6852 2.2971 -13.0278c -1.0084,-0.1778 -2.0169,-0.3556 -3.0253 -0.5334c 0.2145,-1.2164 0.4290,-2.4329 0.6435 -3.6493c -17.3326,-3.0562 -34.6652,-6.1124 -51.9978 -9.1686c -0.2145,1.2164 -0.4290,2.4329 -0.6435 3.6493c -1.0084,-0.1778 -2.0169,-0.3556 -3.0253 -0.5334c -0.7657,4.3426 -1.5314,8.6852 -2.2971 13.0278c 1.0084,0.1778 2.0169,0.3556 3.0253 0.5334c -1.0958,6.2146 -2.1916,12.4291 -3.2874 18.6437c -1.0085,-0.1778 -2.0169,-0.3556 -3.0253 -0.5334c -0.7657,4.3426 -1.5314,8.6852 -2.2971 13.0277ZM 221.6726,629.4244 c 1.0084,0.1778 2.0169,0.3556 3.0253 0.5334c -0.2145,1.2165 -0.4290,2.4329 -0.6435 3.6494c 17.3326,3.0562 34.6652,6.1124 51.9978 9.1686c 0.2145,-1.2165 0.4290,-2.4329 0.6435 -3.6494c 1.0084,0.1778 2.0169,0.3556 3.0253 0.5334c 0.7657,-4.3426 1.5314,-8.6852 2.2971 -13.0277c -1.0084,-0.1778 -2.0169,-0.3556 -3.0253 -0.5334c 1.0958,-6.2146 2.1916,-12.4291 3.2874 -18.6437c 1.0084,0.1778 2.0169,0.3556 3.0253 0.5334c 0.7657,-4.3426 1.5314,-8.6852 2.2971 -13.0278c -1.0084,-0.1778 -2.0169,-0.3556 -3.0253 -0.5334c 0.2145,-1.2164 0.4290,-2.4329 0.6435 -3.6493c -17.3326,-3.0562 -34.6652,-6.1124 -51.9978 -9.1686c -0.2145,1.2164 -0.4290,2.4329 -0.6435 3.6493c -1.0084,-0.1778 -2.0169,-0.3556 -3.0253 -0.5334c -0.7657,4.3426 -1.5314,8.6852 -2.2971 13.0277c 1.0084,0.1778 2.0169,0.3556 3.0253 0.5334c -1.0958,6.2146 -2.1916,12.4291 -3.2874 18.6437c -1.0085,-0.1778 -2.0169,-0.3556 -3.0253 -0.5334c -0.7657,4.3426 -1.5314,8.6852 -2.2971 13.0277ZM 234.1425,558.7044 c 1.0084,0.1778 2.0169,0.3556 3.0253 0.5334c -0.2145,1.2164 -0.4290,2.4329 -0.6435 3.6493c 17.3326,3.0562 34.6652,6.1125 51.9978 9.1687c 0.2145,-1.2165 0.4290,-2.4329 0.6435 -3.6494c 1.0085,0.1778 2.0169,0.3556 3.0253 0.5334c 0.7657,-4.3426 1.5314,-8.6852 2.2971 -13.0277c -1.0084,-0.1778 -2.0169,-0.3556 -3.0253 -0.5334c 1.0958,-6.2146 2.1916,-12.4291 3.2874 -18.6437c 1.0084,0.1778 2.0169,0.3556 3.0253 0.5334c 0.7657,-4.3426 1.5314,-8.6852 2.2971 -13.0277c -1.0084,-0.1778 -2.0169,-0.3556 -3.0253 -0.5334c 0.2145,-1.2164 0.4290,-2.4329 0.6435 -3.6493c -17.3326,-3.0562 -34.6652,-6.1124 -51.9978 -9.1686c -0.2145,1.2164 -0.4290,2.4329 -0.6435 3.6493c -1.0084,-0.1778 -2.0169,-0.3556 -3.0253 -0.5334c -0.7657,4.3426 -1.5314,8.6852 -2.2971 13.0277c 1.0084,0.1778 2.0169,0.3556 3.0253 0.5334c -1.0958,6.2146 -2.1916,12.4291 -3.2874 18.6437c -1.0084,-0.1778 -2.0169,-0.3556 -3.0253 -0.5334c -0.7657,4.3426 -1.5314,8.6852 -2.2971 13.0277ZM 270.7345,764.7238 c 1.0084,0.1778 2.0169,0.3556 3.0253 0.5334c -0.2145,1.2165 -0.4290,2.4329 -0.6435 3.6494c 17.3326,3.0562 34.6652,6.1124 51.9978 9.1686c 0.2145,-1.2165 0.4290,-2.4329 0.6435 -3.6494c 1.0084,0.1778 2.0169,0.3556 3.0253 0.5335c 0.7657,-4.3426 1.5314,-8.6852 2.2971 -13.0278c -1.0084,-0.1778 -2.0169,-0.3556 -3.0253 -0.5334c 1.0958,-6.2146 2.1916,-12.4291 3.2874 -18.6437c 1.0084,0.1778 2.0169,0.3556 3.0253 0.5334c 0.7657,-4.3426 1.5314,-8.6852 2.2971 -13.0278c -1.0084,-0.1778 -2.0169,-0.3556 -3.0253 -0.5334c 0.2145,-1.2164 0.4290,-2.4329 0.6435 -3.6493c -17.3326,-3.0562 -34.6652,-6.1124 -51.9978 -9.1686c -0.2145,1.2164 -0.4290,2.4329 -0.6435 3.6493c -1.0084,-0.1778 -2.0169,-0.3556 -3.0253 -0.5334c -0.7657,4.3426 -1.5314,8.6852 -2.2971 13.0278c 1.0084,0.1778 2.0169,0.3556 3.0253 0.5334c -1.0958,6.2146 -2.1916,12.4291 -3.2874 18.6437c -1.0084,-0.1778 -2.0169,-0.3556 -3.0253 -0.5334c -0.7657,4.3426 -1.5314,8.6852 -2.2971 13.0277ZM 283.2043,694.0038 c 1.0085,0.1778 2.0169,0.3556 3.0253 0.5334c -0.2145,1.2165 -0.4290,2.4329 -0.6435 3.6494c 17.3326,3.0562 34.6652,6.1124 51.9978 9.1686c 0.2145,-1.2165 0.4290,-2.4329 0.6435 -3.6494c 1.0084,0.1778 2.0169,0.3556 3.0253 0.5334c 0.7657,-4.3426 1.5314,-8.6852 2.2971 -13.0277c -1.0085,-0.1778 -2.0169,-0.3556 -3.0253 -0.5334c 1.0958,-6.2146 2.1916,-12.4291 3.2874 -18.6437c 1.0084,0.1778 2.0169,0.3556 3.0253 0.5334c 0.7657,-4.3426 1.5314,-8.6852 2.2971 -13.0278c -1.0084,-0.1778 -2.0169,-0.3556 -3.0253 -0.5334c 0.2145,-1.2164 0.4290,-2.4329 0.6435 -3.6493c -17.3326,-3.0562 -34.6652,-6.1124 -51.9978 -9.1686c -0.2145,1.2164 -0.4290,2.4329 -0.6435 3.6493c -1.0084,-0.1778 -2.0169,-0.3556 -3.0253 -0.5334c -0.7657,4.3426 -1.5314,8.6852 -2.2971 13.0277c 1.0084,0.1778 2.0169,0.3556 3.0253 0.5334c -1.0958,6.2146 -2.1916,12.4291 -3.2874 18.6437c -1.0084,-0.1778 -2.0169,-0.3556 -3.0253 -0.5334c -0.7657,4.3426 -1.5314,8.6852 -2.2972 13.0277ZM 295.6742,623.2837 c 1.0085,0.1778 2.0169,0.3556 3.0253 0.5334c -0.2145,1.2165 -0.4290,2.4329 -0.6435 3.6493c 17.3326,3.0562 34.6652,6.1125 51.9978 9.1687c 0.2145,-1.2165 0.4290,-2.4329 0.6435 -3.6494c 1.0084,0.1778 2.0169,0.3556 3.0253 0.5334c 0.7657,-4.3426 1.5314,-8.6852 2.2971 -13.0277c -1.0085,-0.1778 -2.0169,-0.3556 -3.0253 -0.5334c 1.0958,-6.2146 2.1916,-12.4291 3.2874 -18.6437c 1.0084,0.1778 2.0169,0.3556 3.0253 0.5334c 0.7657,-4.3426 1.5314,-8.6852 2.2971 -13.0277c -1.0084,-0.1778 -2.0169,-0.3556 -3.0253 -0.5334c 0.2145,-1.2164 0.4290,-2.4329 0.6435 -3.6493c -17.3326,-3.0562 -34.6652,-6.1124 -51.9978 -9.1686c -0.2145,1.2164 -0.4290,2.4329 -0.6435 3.6493c -1.0084,-0.1778 -2.0169,-0.3556 -3.0253 -0.5334c -0.7657,4.3426 -1.5314,8.6852 -2.2971 13.0277c 1.0084,0.1778 2.0169,0.3556 3.0253 0.5334c -1.0958,6.2146 -2.1916,12.4291 -3.2874 18.6437c -1.0084,-0.1778 -2.0169,-0.3556 -3.0253 -0.5334c -0.7657,4.3426 -1.5314,8.6852 -2.2971 13.0277ZM 308.1440,552.5637 c 1.0085,0.1778 2.0169,0.3556 3.0253 0.5334c -0.2145,1.2164 -0.4290,2.4329 -0.6435 3.6493c 17.3326,3.0562 34.6652,6.1124 51.9978 9.1687c 0.2145,-1.2165 0.4290,-2.4329 0.6435 -3.6494c 1.0084,0.1778 2.0169,0.3556 3.0253 0.5334c 0.7657,-4.3426 1.5314,-8.6852 2.2971 -13.0277c -1.0084,-0.1778 -2.0169,-0.3556 -3.0253 -0.5334c 1.0958,-6.2146 2.1916,-12.4291 3.2874 -18.6437c 1.0084,0.1778 2.0169,0.3556 3.0253 0.5334c 0.7657,-4.3426 1.5314,-8.6852 2.2971 -13.0277c -1.0084,-0.1778 -2.0169,-0.3556 -3.0253 -0.5334c 0.2145,-1.2165 0.4290,-2.4329 0.6435 -3.6493c -17.3326,-3.0562 -34.6652,-6.1125 -51.9978 -9.1687c -0.2145,1.2165 -0.4290,2.4329 -0.6435 3.6494c -1.0084,-0.1778 -2.0169,-0.3556 -3.0253 -0.5334c -0.7657,4.3426 -1.5314,8.6852 -2.2971 13.0277c 1.0084,0.1778 2.0169,0.3556 3.0253 0.5334c -1.0958,6.2146 -2.1916,12.4291 -3.2874 18.6437c -1.0084,-0.1778 -2.0169,-0.3556 -3.0253 -0.5334c -0.7657,4.3426 -1.5314,8.6852 -2.2971 13.0277ZM 337.5167,799.5263 c 1.0084,0.1778 2.0169,0.3556 3.0253 0.5334c -0.2145,1.2165 -0.4290,2.4329 -0.6435 3.6494c 17.3326,3.0562 34.6652,6.1124 51.9978 9.1686c 0.2145,-1.2165 0.4290,-2.4329 0.6435 -3.6494c 1.0084,0.1778 2.0169,0.3556 3.0253 0.5335c 0.7657,-4.3426 1.5314,-8.6852 2.2971 -13.0278c -1.0084,-0.1778 -2.0169,-0.3556 -3.0253 -0.5334c 1.0958,-6.2146 2.1916,-12.4291 3.2874 -18.6437c 1.0084,0.1778 2.0169,0.3556 3.0253 0.5334c 0.7657,-4.3426 1.5314,-8.6852 2.2971 -13.0278c -1.0084,-0.1778 -2.0169,-0.3556 -3.0253 -0.5334c 0.2145,-1.2164 0.4290,-2.4329 0.6435 -3.6493c -17.3326,-3.0562 -34.6652,-6.1124 -51.9978 -9.1686c -0.2145,1.2164 -0.4290,2.4329 -0.6435 3.6493c -1.0084,-0.1778 -2.0169,-0.3556 -3.0253 -0.5334c -0.7657,4.3426 -1.5314,8.6852 -2.2971 13.0278c 1.0085,0.1778 2.0169,0.3556 3.0253 0.5334c -1.0958,6.2146 -2.1916,12.4291 -3.2874 18.6437c -1.0084,-0.1778 -2.0169,-0.3556 -3.0253 -0.5334c -0.7657,4.3426 -1.5314,8.6852 -2.2971 13.0277ZM 349.9866,728.8063 c 1.0084,0.1778 2.0169,0.3556 3.0253 0.5334c -0.2145,1.2165 -0.4290,2.4329 -0.6435 3.6494c 17.3326,3.0562 34.6652,6.1124 51.9978 9.1686c 0.2145,-1.2165 0.4290,-2.4329 0.6435 -3.6494c 1.0084,0.1778 2.0169,0.3556 3.0253 0.5334c 0.7657,-4.3426 1.5314,-8.6852 2.2971 -13.0277c -1.0084,-0.1778 -2.0169,-0.3556 -3.0253 -0.5334c 1.0958,-6.2146 2.1916,-12.4291 3.2874 -18.6437c 1.0084,0.1778 2.0169,0.3556 3.0253 0.5334c 0.7657,-4.3426 1.5314,-8.6852 2.2971 -13.0277c -1.0084,-0.1778 -2.0169,-0.3556 -3.0253 -0.5334c 0.2145,-1.2164 0.4290,-2.4329 0.6435 -3.6493c -17.3326,-3.0562 -34.6652,-6.1124 -51.9978 -9.1686c -0.2145,1.2164 -0.4290,2.4329 -0.6435 3.6493c -1.0084,-0.1778 -2.0169,-0.3556 -3.0253 -0.5334c -0.7657,4.3426 -1.5314,8.6852 -2.2971 13.0277c 1.0084,0.1778 2.0169,0.3556 3.0253 0.5334c -1.0958,6.2146 -2.1916,12.4291 -3.2874 18.6437c -1.0084,-0.1778 -2.0169,-0.3556 -3.0253 -0.5334c -0.7657,4.3426 -1.5314,8.6852 -2.2971 13.0277ZM 362.4564,658.0862 c 1.0084,0.1778 2.0169,0.3556 3.0253 0.5334c -0.2145,1.2165 -0.4290,2.4329 -0.6435 3.6494c 17.3326,3.0562 34.6652,6.1124 51.9978 9.1686c 0.2145,-1.2165 0.4290,-2.4329 0.6435 -3.6494c 1.0084,0.1778 2.0169,0.3556 3.0253 0.5334c 0.7657,-4.3426 1.5314,-8.6852 2.2971 -13.0277c -1.0084,-0.1778 -2.0169,-0.3556 -3.0253 -0.5334c 1.0958,-6.2146 2.1916,-12.4291 3.2874 -18.6437c 1.0084,0.1778 2.0169,0.3556 3.0253 0.5334c 0.7657,-4.3426 1.5314,-8.6852 2.2971 -13.0277c -1.0084,-0.1778 -2.0169,-0.3556 -3.0253 -0.5334c 0.2145,-1.2164 0.4290,-2.4329 0.6435 -3.6493c -17.3326,-3.0562 -34.6652,-6.1124 -51.9978 -9.1686c -0.2145,1.2164 -0.4290,2.4329 -0.6435 3.6493c -1.0084,-0.1778 -2.0169,-0.3556 -3.0253 -0.5334c -0.7657,4.3426 -1.5314,8.6852 -2.2971 13.0277c 1.0084,0.1778 2.0169,0.3556 3.0253 0.5334c -1.0958,6.2146 -2.1916,12.4291 -3.2874 18.6437c -1.0085,-0.1778 -2.0169,-0.3556 -3.0253 -0.5334c -0.7657,4.3426 -1.5314,8.6852 -2.2971 13.0277ZM 374.9263,587.3662 c 1.0084,0.1778 2.0169,0.3556 3.0253 0.5334c -0.2145,1.2164 -0.4290,2.4329 -0.6435 3.6493c 17.3326,3.0562 34.6652,6.1124 51.9978 9.1686c 0.2145,-1.2164 0.4290,-2.4329 0.6435 -3.6493c 1.0084,0.1778 2.0169,0.3556 3.0253 0.5334c 0.7657,-4.3426 1.5314,-8.6852 2.2971 -13.0277c -1.0084,-0.1778 -2.0169,-0.3556 -3.0253 -0.5334c 1.0958,-6.2146 2.1916,-12.4291 3.2874 -18.6437c 1.0084,0.1778 2.0169,0.3556 3.0253 0.5334c 0.7657,-4.3426 1.5314,-8.6852 2.2971 -13.0277c -1.0084,-0.1778 -2.0169,-0.3556 -3.0253 -0.5334c 0.2145,-1.2165 0.4290,-2.4329 0.6435 -3.6493c -17.3326,-3.0562 -34.6652,-6.1124 -51.9978 -9.1687c -0.2145,1.2165 -0.4290,2.4329 -0.6435 3.6494c -1.0084,-0.1778 -2.0169,-0.3556 -3.0253 -0.5334c -0.7657,4.3426 -1.5314,8.6852 -2.2971 13.0277c 1.0084,0.1778 2.0169,0.3556 3.0253 0.5334c -1.0958,6.2146 -2.1916,12.4291 -3.2874 18.6437c -1.0085,-0.1778 -2.0169,-0.3556 -3.0253 -0.5334c -0.7657,4.3426 -1.5314,8.6852 -2.2971 13.0277ZM 404.9552,830.6067 c 1.0084,0.1778 2.0169,0.3556 3.0253 0.5334c -0.2145,1.2165 -0.4290,2.4329 -0.6435 3.6494c 17.3326,3.0562 34.6652,6.1124 51.9978 9.1686c 0.2145,-1.2165 0.4290,-2.4329 0.6435 -3.6493c 1.0084,0.1778 2.0169,0.3556 3.0253 0.5334c 0.7657,-4.3426 1.5314,-8.6852 2.2971 -13.0277c -1.0084,-0.1778 -2.0169,-0.3556 -3.0253 -0.5334c 1.0958,-6.2146 2.1916,-12.4291 3.2874 -18.6437c 1.0084,0.1778 2.0169,0.3556 3.0253 0.5334c 0.7657,-4.3426 1.5314,-8.6852 2.2971 -13.0278c -1.0084,-0.1778 -2.0169,-0.3556 -3.0253 -0.5334c 0.2145,-1.2164 0.4290,-2.4329 0.6435 -3.6493c -17.3326,-3.0562 -34.6652,-6.1124 -51.9978 -9.1686c -0.2145,1.2164 -0.4290,2.4329 -0.6435 3.6493c -1.0084,-0.1778 -2.0169,-0.3556 -3.0253 -0.5334c -0.7657,4.3426 -1.5314,8.6852 -2.2971 13.0278c 1.0084,0.1778 2.0169,0.3556 3.0253 0.5334c -1.0958,6.2146 -2.1916,12.4291 -3.2874 18.6437c -1.0085,-0.1778 -2.0169,-0.3556 -3.0253 -0.5334c -0.7657,4.3426 -1.5314,8.6852 -2.2971 13.0277ZM 417.4251,759.8867 c 1.0084,0.1778 2.0169,0.3556 3.0253 0.5334c -0.2145,1.2165 -0.4290,2.4329 -0.6435 3.6494c 17.3326,3.0562 34.6652,6.1124 51.9978 9.1686c 0.2145,-1.2165 0.4290,-2.4329 0.6435 -3.6494c 1.0084,0.1778 2.0169,0.3556 3.0253 0.5334c 0.7657,-4.3426 1.5314,-8.6852 2.2971 -13.0277c -1.0084,-0.1778 -2.0169,-0.3556 -3.0253 -0.5334c 1.0958,-6.2146 2.1916,-12.4291 3.2874 -18.6437c 1.0084,0.1778 2.0169,0.3556 3.0253 0.5334c 0.7657,-4.3426 1.5314,-8.6852 2.2971 -13.0278c -1.0084,-0.1778 -2.0169,-0.3556 -3.0253 -0.5334c 0.2145,-1.2164 0.4290,-2.4329 0.6435 -3.6493c -17.3326,-3.0562 -34.6652,-6.1124 -51.9978 -9.1686c -0.2145,1.2164 -0.4290,2.4329 -0.6435 3.6493c -1.0084,-0.1778 -2.0169,-0.3556 -3.0253 -0.5334c -0.7657,4.3426 -1.5314,8.6852 -2.2971 13.0277c 1.0084,0.1778 2.0169,0.3556 3.0253 0.5334c -1.0958,6.2146 -2.1916,12.4291 -3.2874 18.6437c -1.0085,-0.1778 -2.0169,-0.3556 -3.0253 -0.5334c -0.7657,4.3426 -1.5314,8.6852 -2.2971 13.0277ZM 429.8949,689.1666 c 1.0084,0.1778 2.0169,0.3556 3.0253 0.5334c -0.2145,1.2164 -0.4290,2.4329 -0.6435 3.6493c 17.3326,3.0562 34.6652,6.1124 51.9978 9.1687c 0.2145,-1.2165 0.4290,-2.4329 0.6435 -3.6494c 1.0085,0.1778 2.0169,0.3556 3.0253 0.5334c 0.7657,-4.3426 1.5314,-8.6852 2.2971 -13.0277c -1.0084,-0.1778 -2.0169,-0.3556 -3.0253 -0.5334c 1.0958,-6.2146 2.1916,-12.4291 3.2874 -18.6437c 1.0084,0.1778 2.0169,0.3556 3.0253 0.5334c 0.7657,-4.3426 1.5314,-8.6852 2.2971 -13.0277c -1.0084,-0.1778 -2.0169,-0.3556 -3.0253 -0.5334c 0.2145,-1.2164 0.4290,-2.4329 0.6435 -3.6493c -17.3326,-3.0562 -34.6652,-6.1124 -51.9978 -9.1686c -0.2145,1.2164 -0.4290,2.4329 -0.6435 3.6493c -1.0085,-0.1778 -2.0169,-0.3556 -3.0253 -0.5334c -0.7657,4.3426 -1.5314,8.6852 -2.2971 13.0277c 1.0084,0.1778 2.0169,0.3556 3.0253 0.5334c -1.0958,6.2146 -2.1916,12.4291 -3.2874 18.6437c -1.0084,-0.1778 -2.0169,-0.3556 -3.0253 -0.5334c -0.7657,4.3426 -1.5314,8.6852 -2.2971 13.0277ZM 432.2510,871.2710 c 0.0000,3.1311 2.5382,5.6693 5.6693 5.6693c 3.1310,-0.0000 5.6693,-2.5382 5.6693 -5.6693c 0.0000,-3.1310 -2.5383,-5.6693 -5.6693 -5.6693c -3.1311,-0.0000 -5.6693,2.5383 -5.6693 5.6693ZM 442.3648,618.4466 c 1.0084,0.1778 2.0169,0.3556 3.0253 0.5334c -0.2145,1.2164 -0.4290,2.4329 -0.6435 3.6493c 17.3326,3.0562 34.6652,6.1124 51.9978 9.1686c 0.2145,-1.2164 0.4290,-2.4329 0.6435 -3.6493c 1.0084,0.1778 2.0169,0.3556 3.0253 0.5334c 0.7657,-4.3426 1.5314,-8.6852 2.2971 -13.0277c -1.0084,-0.1778 -2.0169,-0.3556 -3.0253 -0.5334c 1.0958,-6.2146 2.1916,-12.4291 3.2874 -18.6437c 1.0084,0.1778 2.0169,0.3556 3.0253 0.5334c 0.7657,-4.3426 1.5314,-8.6852 2.2971 -13.0277c -1.0084,-0.1778 -2.0169,-0.3556 -3.0253 -0.5334c 0.2145,-1.2165 0.4290,-2.4329 0.6435 -3.6494c -17.3326,-3.0562 -34.6652,-6.1124 -51.9978 -9.1686c -0.2145,1.2165 -0.4290,2.4329 -0.6435 3.6494c -1.0085,-0.1778 -2.0169,-0.3556 -3.0253 -0.5334c -0.7657,4.3426 -1.5314,8.6852 -2.2971 13.0277c 1.0084,0.1778 2.0169,0.3556 3.0253 0.5334c -1.0958,6.2146 -2.1916,12.4291 -3.2874 18.6437c -1.0084,-0.1778 -2.0169,-0.3556 -3.0253 -0.5334c -0.7657,4.3426 -1.5314,8.6852 -2.2971 13.0277ZM 481.9102,807.7166 c 1.0084,0.1778 2.0169,0.3556 3.0253 0.5334c -0.2145,1.2164 -0.4290,2.4329 -0.6435 3.6493c 17.3326,3.0562 34.6652,6.1124 51.9978 9.1686c 0.2145,-1.2164 0.4290,-2.4329 0.6435 -3.6493c 1.0084,0.1778 2.0169,0.3556 3.0253 0.5334c 0.7657,-4.3426 1.5314,-8.6852 2.2971 -13.0277c -1.0084,-0.1778 -2.0169,-0.3556 -3.0253 -0.5334c 1.0958,-6.2146 2.1916,-12.4291 3.2874 -18.6437c 1.0084,0.1778 2.0169,0.3556 3.0253 0.5334c 0.7657,-4.3426 1.5314,-8.6852 2.2971 -13.0277c -1.0084,-0.1778 -2.0169,-0.3556 -3.0253 -0.5334c 0.2145,-1.2165 0.4290,-2.4329 0.6435 -3.6494c -17.3326,-3.0562 -34.6652,-6.1124 -51.9978 -9.1686c -0.2145,1.2165 -0.4290,2.4329 -0.6435 3.6494c -1.0084,-0.1778 -2.0169,-0.3556 -3.0253 -0.5334c -0.7657,4.3426 -1.5314,8.6852 -2.2971 13.0277c 1.0085,0.1778 2.0169,0.3556 3.0253 0.5334c -1.0958,6.2146 -2.1916,12.4291 -3.2874 18.6437c -1.0084,-0.1778 -2.0169,-0.3556 -3.0253 -0.5334c -0.7657,4.3426 -1.5314,8.6852 -2.2971 13.0278ZM 520.7203,533.9977 c 0.0000,3.1310 2.5382,5.6693 5.6693 5.6693c 3.1310,-0.0000 5.6693,-2.5383 5.6693 -5.6693c 0.0000,-3.1311 -2.5383,-5.6693 -5.6693 -5.6693c -3.1311,-0.0000 -5.6693,2.5382 -5.6693 5.6693ZM 618.3247,773.2529 c 0.7657,4.3426 1.5314,8.6852 2.2971 13.0277c 1.0084,-0.1778 2.0169,-0.3556 3.0253 -0.5334c 1.0958,6.2146 2.1916,12.4291 3.2874 18.6437c -1.0084,0.1778 -2.0169,0.3556 -3.0253 0.5334c 0.7657,4.3426 1.5314,8.6852 2.2971 13.0277c 1.0084,-0.1778 2.0169,-0.3556 3.0253 -0.5334c 0.2145,1.2164 0.4290,2.4329 0.6435 3.6493c 17.3326,-3.0562 34.6652,-6.1124 51.9978 -9.1686c -0.2145,-1.2164 -0.4290,-2.4329 -0.6435 -3.6493c 1.0084,-0.1778 2.0169,-0.3556 3.0253 -0.5334c -0.7657,-4.3426 -1.5314,-8.6852 -2.2971 -13.0278c -1.0084,0.1778 -2.0169,0.3556 -3.0253 0.5334c -1.0958,-6.2146 -2.1916,-12.4291 -3.2874 -18.6437c 1.0084,-0.1778 2.0169,-0.3556 3.0253 -0.5334c -0.7657,-4.3426 -1.5314,-8.6852 -2.2971 -13.0277c -1.0084,0.1778 -2.0169,0.3556 -3.0253 0.5334c -0.2145,-1.2165 -0.4290,-2.4329 -0.6435 -3.6494c -17.3326,3.0562 -34.6652,6.1124 -51.9978 9.1686c 0.2145,1.2165 0.4290,2.4329 0.6435 3.6494c -1.0084,0.1778 -2.0169,0.3556 -3.0253 0.5334ZM 634.1061,533.9977 c 0.0000,3.1310 2.5383,5.6693 5.6693 5.6693c 3.1311,-0.0000 5.6693,-2.5383 5.6693 -5.6693c 0.0000,-3.1311 -2.5382,-5.6693 -5.6693 -5.6693c -3.1310,-0.0000 -5.6693,2.5382 -5.6693 5.6693ZM 657.8701,583.9829 c 0.7657,4.3426 1.5314,8.6852 2.2971 13.0277c 1.0084,-0.1778 2.0169,-0.3556 3.0253 -0.5334c 1.0958,6.2146 2.1916,12.4291 3.2874 18.6437c -1.0085,0.1778 -2.0169,0.3556 -3.0253 0.5334c 0.7657,4.3426 1.5314,8.6852 2.2971 13.0277c 1.0084,-0.1778 2.0169,-0.3556 3.0253 -0.5334c 0.2145,1.2164 0.4290,2.4329 0.6435 3.6493c 17.3326,-3.0562 34.6652,-6.1124 51.9978 -9.1686c -0.2145,-1.2164 -0.4290,-2.4329 -0.6435 -3.6493c 1.0084,-0.1778 2.0169,-0.3556 3.0253 -0.5334c -0.7657,-4.3426 -1.5314,-8.6852 -2.2971 -13.0277c -1.0084,0.1778 -2.0169,0.3556 -3.0253 0.5334c -1.0958,-6.2146 -2.1916,-12.4291 -3.2874 -18.6437c 1.0084,-0.1778 2.0169,-0.3556 3.0253 -0.5334c -0.7657,-4.3426 -1.5314,-8.6852 -2.2971 -13.0277c -1.0084,0.1778 -2.0169,0.3556 -3.0253 0.5334c -0.2145,-1.2165 -0.4290,-2.4329 -0.6435 -3.6494c -17.3326,3.0562 -34.6652,6.1124 -51.9978 9.1686c 0.2145,1.2165 0.4290,2.4329 0.6435 3.6494c -1.0085,0.1778 -2.0169,0.3556 -3.0253 0.5334ZM 670.3399,654.7030 c 0.7657,4.3426 1.5314,8.6852 2.2971 13.0277c 1.0084,-0.1778 2.0169,-0.3556 3.0253 -0.5334c 1.0958,6.2146 2.1916,12.4291 3.2874 18.6437c -1.0085,0.1778 -2.0169,0.3556 -3.0253 0.5334c 0.7657,4.3426 1.5314,8.6852 2.2971 13.0277c 1.0084,-0.1778 2.0169,-0.3556 3.0253 -0.5334c 0.2145,1.2165 0.4290,2.4329 0.6435 3.6494c 17.3326,-3.0562 34.6652,-6.1124 51.9978 -9.1687c -0.2145,-1.2164 -0.4290,-2.4329 -0.6435 -3.6493c 1.0085,-0.1778 2.0169,-0.3556 3.0253 -0.5334c -0.7657,-4.3426 -1.5314,-8.6852 -2.2971 -13.0277c -1.0084,0.1778 -2.0169,0.3556 -3.0253 0.5334c -1.0958,-6.2146 -2.1916,-12.4291 -3.2874 -18.6437c 1.0085,-0.1778 2.0169,-0.3556 3.0253 -0.5334c -0.7657,-4.3426 -1.5314,-8.6852 -2.2971 -13.0277c -1.0084,0.1778 -2.0169,0.3556 -3.0253 0.5334c -0.2145,-1.2164 -0.4290,-2.4329 -0.6435 -3.6493c -17.3326,3.0562 -34.6652,6.1124 -51.9978 9.1686c 0.2145,1.2164 0.4290,2.4329 0.6435 3.6493c -1.0084,0.1778 -2.0169,0.3556 -3.0253 0.5334ZM 682.8098,725.4230 c 0.7657,4.3426 1.5314,8.6852 2.2971 13.0278c 1.0084,-0.1778 2.0169,-0.3556 3.0253 -0.5334c 1.0958,6.2146 2.1916,12.4291 3.2874 18.6437c -1.0085,0.1778 -2.0169,0.3556 -3.0253 0.5334c 0.7657,4.3426 1.5314,8.6852 2.2971 13.0277c 1.0084,-0.1778 2.0169,-0.3556 3.0253 -0.5334c 0.2145,1.2165 0.4290,2.4329 0.6435 3.6494c 17.3326,-3.0562 34.6652,-6.1124 51.9978 -9.1686c -0.2145,-1.2165 -0.4290,-2.4329 -0.6435 -3.6494c 1.0085,-0.1778 2.0169,-0.3556 3.0253 -0.5334c -0.7657,-4.3426 -1.5314,-8.6852 -2.2971 -13.0277c -1.0084,0.1778 -2.0169,0.3556 -3.0253 0.5334c -1.0958,-6.2146 -2.1916,-12.4291 -3.2874 -18.6437c 1.0084,-0.1778 2.0169,-0.3556 3.0253 -0.5334c -0.7657,-4.3426 -1.5314,-8.6852 -2.2971 -13.0277c -1.0084,0.1778 -2.0169,0.3556 -3.0253 0.5334c -0.2145,-1.2164 -0.4290,-2.4329 -0.6435 -3.6493c -17.3326,3.0562 -34.6652,6.1124 -51.9978 9.1686c 0.2145,1.2164 0.4290,2.4329 0.6435 3.6493c -1.0084,0.1778 -2.0169,0.3556 -3.0253 0.5334ZM 695.2797,796.1431 c 0.7657,4.3426 1.5314,8.6852 2.2971 13.0278c 1.0084,-0.1778 2.0169,-0.3556 3.0253 -0.5334c 1.0958,6.2146 2.1916,12.4291 3.2874 18.6437c -1.0085,0.1778 -2.0169,0.3556 -3.0253 0.5334c 0.7657,4.3426 1.5314,8.6852 2.2971 13.0277c 1.0084,-0.1778 2.0169,-0.3556 3.0253 -0.5334c 0.2145,1.2164 0.4290,2.4329 0.6435 3.6493c 17.3326,-3.0562 34.6652,-6.1124 51.9978 -9.1686c -0.2145,-1.2165 -0.4290,-2.4329 -0.6435 -3.6494c 1.0084,-0.1778 2.0169,-0.3556 3.0253 -0.5334c -0.7657,-4.3426 -1.5314,-8.6852 -2.2971 -13.0277c -1.0084,0.1778 -2.0169,0.3556 -3.0253 0.5334c -1.0958,-6.2146 -2.1916,-12.4291 -3.2874 -18.6437c 1.0084,-0.1778 2.0169,-0.3556 3.0253 -0.5334c -0.7657,-4.3426 -1.5314,-8.6852 -2.2971 -13.0278c -1.0084,0.1778 -2.0169,0.3556 -3.0253 0.5334c -0.2145,-1.2164 -0.4290,-2.4329 -0.6435 -3.6493c -17.3326,3.0562 -34.6652,6.1124 -51.9978 9.1686c 0.2145,1.2164 0.4290,2.4329 0.6435 3.6493c -1.0084,0.1778 -2.0169,0.3556 -3.0253 0.5334ZM 722.5754,871.2710 c 0.0000,3.1311 2.5383,5.6693 5.6693 5.6693c 3.1311,-0.0000 5.6693,-2.5382 5.6693 -5.6693c 0.0000,-3.1310 -2.5382,-5.6693 -5.6693 -5.6693c -3.1310,-0.0000 -5.6693,2.5383 -5.6693 5.6693ZM 725.3086,552.9026 c 0.7657,4.3426 1.5314,8.6852 2.2971 13.0277c 1.0084,-0.1778 2.0169,-0.3556 3.0253 -0.5334c 1.0958,6.2146 2.1916,12.4291 3.2874 18.6437c -1.0085,0.1778 -2.0169,0.3556 -3.0253 0.5334c 0.7657,4.3426 1.5314,8.6852 2.2971 13.0277c 1.0084,-0.1778 2.0169,-0.3556 3.0253 -0.5334c 0.2145,1.2165 0.4290,2.4329 0.6435 3.6493c 17.3326,-3.0562 34.6652,-6.1124 51.9978 -9.1686c -0.2145,-1.2164 -0.4290,-2.4329 -0.6435 -3.6493c 1.0085,-0.1778 2.0169,-0.3556 3.0253 -0.5334c -0.7657,-4.3426 -1.5314,-8.6852 -2.2971 -13.0277c -1.0084,0.1778 -2.0169,0.3556 -3.0253 0.5334c -1.0958,-6.2146 -2.1916,-12.4291 -3.2874 -18.6437c 1.0084,-0.1778 2.0169,-0.3556 3.0253 -0.5334c -0.7657,-4.3426 -1.5314,-8.6852 -2.2971 -13.0277c -1.0084,0.1778 -2.0169,0.3556 -3.0253 0.5334c -0.2145,-1.2165 -0.4290,-2.4329 -0.6435 -3.6494c -17.3326,3.0562 -34.6652,6.1124 -51.9978 9.1687c 0.2145,1.2164 0.4290,2.4329 0.6435 3.6493c -1.0084,0.1778 -2.0169,0.3556 -3.0253 0.5334ZM 737.7785,623.6226 c 0.7657,4.3426 1.5314,8.6852 2.2971 13.0277c 1.0084,-0.1778 2.0169,-0.3556 3.0253 -0.5334c 1.0958,6.2146 2.1916,12.4291 3.2874 18.6437c -1.0085,0.1778 -2.0169,0.3556 -3.0253 0.5334c 0.7657,4.3426 1.5314,8.6852 2.2971 13.0277c 1.0084,-0.1778 2.0169,-0.3556 3.0253 -0.5334c 0.2145,1.2165 0.4290,2.4329 0.6435 3.6494c 17.3326,-3.0562 34.6652,-6.1125 51.9978 -9.1686c -0.2145,-1.2165 -0.4290,-2.4329 -0.6435 -3.6494c 1.0084,-0.1778 2.0169,-0.3556 3.0253 -0.5334c -0.7657,-4.3426 -1.5314,-8.6852 -2.2971 -13.0277c -1.0084,0.1778 -2.0169,0.3556 -3.0253 0.5334c -1.0958,-6.2146 -2.1916,-12.4291 -3.2874 -18.6437c 1.0084,-0.1778 2.0169,-0.3556 3.0253 -0.5334c -0.7657,-4.3426 -1.5314,-8.6852 -2.2971 -13.0277c -1.0084,0.1778 -2.0169,0.3556 -3.0253 0.5334c -0.2145,-1.2165 -0.4290,-2.4329 -0.6435 -3.6493c -17.3326,3.0562 -34.6652,6.1124 -51.9978 9.1686c 0.2145,1.2164 0.4290,2.4329 0.6435 3.6493c -1.0084,0.1778 -2.0169,0.3556 -3.0253 0.5334ZM 750.2483,694.3426 c 0.7657,4.3426 1.5314,8.6852 2.2971 13.0277c 1.0084,-0.1778 2.0169,-0.3556 3.0253 -0.5334c 1.0958,6.2146 2.1916,12.4291 3.2874 18.6437c -1.0084,0.1778 -2.0169,0.3556 -3.0253 0.5334c 0.7657,4.3426 1.5314,8.6852 2.2971 13.0277c 1.0084,-0.1778 2.0169,-0.3556 3.0253 -0.5334c 0.2145,1.2165 0.4290,2.4329 0.6435 3.6494c 17.3326,-3.0562 34.6652,-6.1124 51.9978 -9.1686c -0.2145,-1.2165 -0.4290,-2.4329 -0.6435 -3.6494c 1.0084,-0.1778 2.0169,-0.3556 3.0253 -0.5334c -0.7657,-4.3426 -1.5314,-8.6852 -2.2971 -13.0277c -1.0084,0.1778 -2.0169,0.3556 -3.0253 0.5334c -1.0958,-6.2146 -2.1916,-12.4291 -3.2874 -18.6437c 1.0084,-0.1778 2.0169,-0.3556 3.0253 -0.5334c -0.7657,-4.3426 -1.5314,-8.6852 -2.2971 -13.0277c -1.0084,0.1778 -2.0169,0.3556 -3.0253 0.5334c -0.2145,-1.2164 -0.4290,-2.4329 -0.6435 -3.6493c -17.3326,3.0562 -34.6652,6.1124 -51.9978 9.1686c 0.2145,1.2164 0.4290,2.4329 0.6435 3.6493c -1.0084,0.1778 -2.0169,0.3556 -3.0253 0.5334ZM 762.7182,765.0627 c 0.7657,4.3426 1.5314,8.6852 2.2971 13.0278c 1.0084,-0.1778 2.0169,-0.3556 3.0253 -0.5334c 1.0958,6.2146 2.1916,12.4291 3.2874 18.6437c -1.0084,0.1778 -2.0169,0.3556 -3.0253 0.5334c 0.7657,4.3426 1.5314,8.6852 2.2971 13.0278c 1.0084,-0.1778 2.0169,-0.3556 3.0253 -0.5335c 0.2145,1.2165 0.4290,2.4329 0.6435 3.6494c 17.3326,-3.0562 34.6652,-6.1124 51.9978 -9.1686c -0.2145,-1.2165 -0.4290,-2.4329 -0.6435 -3.6494c 1.0084,-0.1778 2.0169,-0.3556 3.0253 -0.5334c -0.7657,-4.3426 -1.5314,-8.6852 -2.2971 -13.0277c -1.0084,0.1778 -2.0169,0.3556 -3.0253 0.5334c -1.0958,-6.2146 -2.1916,-12.4291 -3.2874 -18.6437c 1.0084,-0.1778 2.0169,-0.3556 3.0253 -0.5334c -0.7657,-4.3426 -1.5314,-8.6852 -2.2971 -13.0278c -1.0084,0.1778 -2.0169,0.3556 -3.0253 0.5334c -0.2145,-1.2164 -0.4290,-2.4329 -0.6435 -3.6493c -17.3326,3.0562 -34.6652,6.1124 -51.9978 9.1686c 0.2145,1.2164 0.4290,2.4329 0.6435 3.6493c -1.0084,0.1778 -2.0169,0.3556 -3.0253 0.5334ZM 792.0908,518.1001 c 0.7657,4.3426 1.5314,8.6852 2.2971 13.0277c 1.0085,-0.1778 2.0169,-0.3556 3.0253 -0.5334c 1.0958,6.2146 2.1916,12.4291 3.2874 18.6437c -1.0084,0.1778 -2.0169,0.3556 -3.0253 0.5334c 0.7657,4.3426 1.5314,8.6852 2.2971 13.0277c 1.0085,-0.1778 2.0169,-0.3556 3.0253 -0.5334c 0.2145,1.2165 0.4290,2.4329 0.6435 3.6494c 17.3326,-3.0562 34.6652,-6.1125 51.9978 -9.1687c -0.2145,-1.2164 -0.4290,-2.4329 -0.6435 -3.6493c 1.0084,-0.1778 2.0169,-0.3556 3.0253 -0.5334c -0.7657,-4.3426 -1.5314,-8.6852 -2.2971 -13.0277c -1.0084,0.1778 -2.0169,0.3556 -3.0253 0.5334c -1.0958,-6.2146 -2.1916,-12.4291 -3.2874 -18.6437c 1.0084,-0.1778 2.0169,-0.3556 3.0253 -0.5334c -0.7657,-4.3426 -1.5314,-8.6852 -2.2971 -13.0277c -1.0084,0.1778 -2.0169,0.3556 -3.0253 0.5334c -0.2145,-1.2165 -0.4290,-2.4329 -0.6435 -3.6494c -17.3326,3.0562 -34.6652,6.1125 -51.9978 9.1687c 0.2145,1.2164 0.4290,2.4329 0.6435 3.6493c -1.0084,0.1778 -2.0169,0.3556 -3.0253 0.5334ZM 804.5606,588.8201 c 0.7657,4.3426 1.5314,8.6852 2.2971 13.0277c 1.0084,-0.1778 2.0169,-0.3556 3.0253 -0.5334c 1.0958,6.2146 2.1916,12.4291 3.2874 18.6437c -1.0084,0.1778 -2.0169,0.3556 -3.0253 0.5334c 0.7657,4.3426 1.5314,8.6852 2.2971 13.0277c 1.0085,-0.1778 2.0169,-0.3556 3.0253 -0.5334c 0.2145,1.2165 0.4290,2.4329 0.6435 3.6494c 17.3326,-3.0562 34.6652,-6.1124 51.9978 -9.1687c -0.2145,-1.2164 -0.4290,-2.4329 -0.6435 -3.6493c 1.0084,-0.1778 2.0169,-0.3556 3.0253 -0.5334c -0.7657,-4.3426 -1.5314,-8.6852 -2.2971 -13.0277c -1.0085,0.1778 -2.0169,0.3556 -3.0253 0.5334c -1.0958,-6.2146 -2.1916,-12.4291 -3.2874 -18.6437c 1.0084,-0.1778 2.0169,-0.3556 3.0253 -0.5334c -0.7657,-4.3426 -1.5314,-8.6852 -2.2971 -13.0277c -1.0084,0.1778 -2.0169,0.3556 -3.0253 0.5334c -0.2145,-1.2164 -0.4290,-2.4329 -0.6435 -3.6493c -17.3326,3.0562 -34.6652,6.1124 -51.9978 9.1686c 0.2145,1.2164 0.4290,2.4329 0.6435 3.6493c -1.0084,0.1778 -2.0169,0.3556 -3.0253 0.5334ZM 817.0305,659.5401 c 0.7657,4.3426 1.5314,8.6852 2.2971 13.0278c 1.0084,-0.1778 2.0169,-0.3556 3.0253 -0.5334c 1.0958,6.2146 2.1916,12.4291 3.2874 18.6437c -1.0084,0.1778 -2.0169,0.3556 -3.0253 0.5334c 0.7657,4.3426 1.5314,8.6852 2.2971 13.0277c 1.0085,-0.1778 2.0169,-0.3556 3.0253 -0.5334c 0.2145,1.2165 0.4290,2.4329 0.6435 3.6494c 17.3326,-3.0562 34.6652,-6.1124 51.9978 -9.1686c -0.2145,-1.2165 -0.4290,-2.4329 -0.6435 -3.6494c 1.0084,-0.1778 2.0169,-0.3556 3.0253 -0.5334c -0.7657,-4.3426 -1.5314,-8.6852 -2.2972 -13.0277c -1.0084,0.1778 -2.0169,0.3556 -3.0253 0.5334c -1.0958,-6.2146 -2.1916,-12.4291 -3.2874 -18.6437c 1.0084,-0.1778 2.0169,-0.3556 3.0253 -0.5334c -0.7657,-4.3426 -1.5314,-8.6852 -2.2971 -13.0277c -1.0084,0.1778 -2.0169,0.3556 -3.0253 0.5334c -0.2145,-1.2164 -0.4290,-2.4329 -0.6435 -3.6493c -17.3326,3.0562 -34.6652,6.1124 -51.9978 9.1686c 0.2145,1.2164 0.4290,2.4329 0.6435 3.6493c -1.0084,0.1778 -2.0169,0.3556 -3.0253 0.5334ZM 829.5004,730.2602 c 0.7657,4.3426 1.5314,8.6852 2.2971 13.0278c 1.0084,-0.1778 2.0169,-0.3556 3.0253 -0.5334c 1.0958,6.2146 2.1916,12.4291 3.2874 18.6437c -1.0084,0.1778 -2.0169,0.3556 -3.0253 0.5334c 0.7657,4.3426 1.5314,8.6852 2.2971 13.0278c 1.0084,-0.1778 2.0169,-0.3556 3.0253 -0.5335c 0.2145,1.2165 0.4290,2.4329 0.6435 3.6494c 17.3326,-3.0562 34.6652,-6.1124 51.9978 -9.1686c -0.2145,-1.2165 -0.4290,-2.4329 -0.6435 -3.6494c 1.0084,-0.1778 2.0169,-0.3556 3.0253 -0.5334c -0.7657,-4.3426 -1.5314,-8.6852 -2.2971 -13.0277c -1.0084,0.1778 -2.0169,0.3556 -3.0253 0.5334c -1.0958,-6.2146 -2.1916,-12.4291 -3.2874 -18.6437c 1.0084,-0.1778 2.0169,-0.3556 3.0253 -0.5334c -0.7657,-4.3426 -1.5314,-8.6852 -2.2971 -13.0278c -1.0084,0.1778 -2.0169,0.3556 -3.0253 0.5334c -0.2145,-1.2164 -0.4290,-2.4329 -0.6435 -3.6493c -17.3326,3.0562 -34.6652,6.1124 -51.9978 9.1686c 0.2145,1.2165 0.4290,2.4329 0.6435 3.6493c -1.0084,0.1778 -2.0169,0.3556 -3.0253 0.5334ZM 866.0924,524.2407 c 0.7657,4.3426 1.5314,8.6852 2.2971 13.0277c 1.0084,-0.1778 2.0169,-0.3556 3.0253 -0.5334c 1.0958,6.2146 2.1916,12.4291 3.2874 18.6437c -1.0085,0.1778 -2.0169,0.3556 -3.0253 0.5334c 0.7657,4.3426 1.5314,8.6852 2.2971 13.0277c 1.0084,-0.1778 2.0169,-0.3556 3.0253 -0.5334c 0.2145,1.2165 0.4290,2.4329 0.6435 3.6494c 17.3326,-3.0562 34.6652,-6.1124 51.9978 -9.1687c -0.2145,-1.2164 -0.4290,-2.4329 -0.6435 -3.6493c 1.0085,-0.1778 2.0169,-0.3556 3.0253 -0.5334c -0.7657,-4.3426 -1.5314,-8.6852 -2.2971 -13.0277c -1.0084,0.1778 -2.0169,0.3556 -3.0253 0.5334c -1.0958,-6.2146 -2.1916,-12.4291 -3.2874 -18.6437c 1.0084,-0.1778 2.0169,-0.3556 3.0253 -0.5334c -0.7657,-4.3426 -1.5314,-8.6852 -2.2971 -13.0277c -1.0084,0.1778 -2.0169,0.3556 -3.0253 0.5334c -0.2145,-1.2164 -0.4290,-2.4329 -0.6435 -3.6493c -17.3326,3.0562 -34.6652,6.1124 -51.9978 9.1686c 0.2145,1.2164 0.4290,2.4329 0.6435 3.6493c -1.0084,0.1778 -2.0169,0.3556 -3.0253 0.5334ZM 878.5623,594.9608 c 0.7657,4.3426 1.5314,8.6852 2.2971 13.0278c 1.0084,-0.1778 2.0169,-0.3556 3.0253 -0.5334c 1.0958,6.2146 2.1916,12.4291 3.2874 18.6437c -1.0085,0.1778 -2.0169,0.3556 -3.0253 0.5334c 0.7657,4.3426 1.5314,8.6852 2.2971 13.0277c 1.0084,-0.1778 2.0169,-0.3556 3.0253 -0.5334c 0.2145,1.2165 0.4290,2.4329 0.6435 3.6494c 17.3326,-3.0562 34.6652,-6.1124 51.9978 -9.1686c -0.2145,-1.2165 -0.4290,-2.4329 -0.6435 -3.6494c 1.0085,-0.1778 2.0169,-0.3556 3.0253 -0.5334c -0.7657,-4.3426 -1.5314,-8.6852 -2.2971 -13.0277c -1.0084,0.1778 -2.0169,0.3556 -3.0253 0.5334c -1.0958,-6.2146 -2.1916,-12.4291 -3.2874 -18.6437c 1.0084,-0.1778 2.0169,-0.3556 3.0253 -0.5334c -0.7657,-4.3426 -1.5314,-8.6852 -2.2971 -13.0277c -1.0084,0.1778 -2.0169,0.3556 -3.0253 0.5334c -0.2145,-1.2164 -0.4290,-2.4329 -0.6435 -3.6493c -17.3326,3.0562 -34.6652,6.1124 -51.9978 9.1686c 0.2145,1.2164 0.4290,2.4329 0.6435 3.6493c -1.0084,0.1778 -2.0169,0.3556 -3.0253 0.5334ZM 891.0321,665.6808 c 0.7657,4.3426 1.5314,8.6852 2.2971 13.0278c 1.0084,-0.1778 2.0169,-0.3556 3.0253 -0.5334c 1.0958,6.2146 2.1916,12.4291 3.2874 18.6437c -1.0084,0.1778 -2.0169,0.3556 -3.0253 0.5334c 0.7657,4.3426 1.5314,8.6852 2.2971 13.0277c 1.0084,-0.1778 2.0169,-0.3556 3.0253 -0.5334c 0.2145,1.2164 0.4290,2.4329 0.6435 3.6493c 17.3326,-3.0562 34.6652,-6.1124 51.9978 -9.1686c -0.2145,-1.2165 -0.4290,-2.4329 -0.6435 -3.6494c 1.0085,-0.1778 2.0169,-0.3556 3.0253 -0.5334c -0.7657,-4.3426 -1.5314,-8.6852 -2.2971 -13.0277c -1.0084,0.1778 -2.0169,0.3556 -3.0253 0.5334c -1.0958,-6.2146 -2.1916,-12.4291 -3.2874 -18.6437c 1.0084,-0.1778 2.0169,-0.3556 3.0253 -0.5334c -0.7657,-4.3426 -1.5314,-8.6852 -2.2971 -13.0278c -1.0084,0.1778 -2.0169,0.3556 -3.0253 0.5334c -0.2145,-1.2164 -0.4290,-2.4329 -0.6435 -3.6493c -17.3326,3.0562 -34.6652,6.1124 -51.9978 9.1686c 0.2145,1.2164 0.4290,2.4329 0.6435 3.6493c -1.0084,0.1778 -2.0169,0.3556 -3.0253 0.5334ZM 903.5020,736.4009 c 0.7657,4.3426 1.5314,8.6852 2.2971 13.0277c 1.0084,-0.1778 2.0169,-0.3556 3.0253 -0.5334c 1.0958,6.2146 2.1916,12.4291 3.2874 18.6437c -1.0084,0.1778 -2.0169,0.3556 -3.0253 0.5334c 0.7657,4.3426 1.5314,8.6852 2.2971 13.0278c 1.0084,-0.1778 2.0169,-0.3556 3.0253 -0.5334c 0.2145,1.2164 0.4290,2.4329 0.6435 3.6493c 17.3326,-3.0562 34.6652,-6.1124 51.9978 -9.1686c -0.2145,-1.2165 -0.4290,-2.4329 -0.6435 -3.6493c 1.0084,-0.1778 2.0169,-0.3556 3.0253 -0.5335c -0.7657,-4.3426 -1.5314,-8.6852 -2.2971 -13.0277c -1.0084,0.1778 -2.0169,0.3556 -3.0253 0.5334c -1.0958,-6.2146 -2.1916,-12.4291 -3.2874 -18.6437c 1.0084,-0.1778 2.0169,-0.3556 3.0253 -0.5334c -0.7657,-4.3426 -1.5314,-8.6852 -2.2971 -13.0278c -1.0084,0.1778 -2.0169,0.3556 -3.0253 0.5334c -0.2145,-1.2164 -0.4290,-2.4329 -0.6435 -3.6493c -17.3326,3.0562 -34.6652,6.1124 -51.9978 9.1686c 0.2145,1.2165 0.4290,2.4329 0.6435 3.6494c -1.0084,0.1778 -2.0169,0.3556 -3.0253 0.5334ZM 938.7814,522.9372 c 0.7657,4.3426 1.5314,8.6852 2.2971 13.0277c 1.0084,-0.1778 2.0169,-0.3556 3.0253 -0.5334c 1.0958,6.2146 2.1916,12.4291 3.2874 18.6437c -1.0084,0.1778 -2.0169,0.3556 -3.0253 0.5334c 0.7657,4.3426 1.5314,8.6852 2.2971 13.0277c 1.0084,-0.1778 2.0169,-0.3556 3.0253 -0.5334c 0.2145,1.2165 0.4290,2.4329 0.6435 3.6494c 17.3326,-3.0562 34.6652,-6.1124 51.9978 -9.1686c -0.2145,-1.2165 -0.4290,-2.4329 -0.6435 -3.6494c 1.0085,-0.1778 2.0169,-0.3556 3.0253 -0.5334c -0.7657,-4.3426 -1.5314,-8.6852 -2.2971 -13.0277c -1.0084,0.1778 -2.0169,0.3556 -3.0253 0.5334c -1.0958,-6.2146 -2.1916,-12.4291 -3.2874 -18.6437c 1.0084,-0.1778 2.0169,-0.3556 3.0253 -0.5334c -0.7657,-4.3426 -1.5314,-8.6852 -2.2971 -13.0277c -1.0084,0.1778 -2.0169,0.3556 -3.0253 0.5334c -0.2145,-1.2164 -0.4290,-2.4329 -0.6435 -3.6493c -17.3326,3.0562 -34.6652,6.1124 -51.9978 9.1686c 0.2145,1.2164 0.4290,2.4329 0.6435 3.6493c -1.0084,0.1778 -2.0169,0.3556 -3.0253 0.5334ZM 951.2512,593.6572 c 0.7657,4.3426 1.5314,8.6852 2.2971 13.0278c 1.0084,-0.1778 2.0169,-0.3556 3.0253 -0.5334c 1.0958,6.2146 2.1916,12.4291 3.2874 18.6437c -1.0085,0.1778 -2.0169,0.3556 -3.0253 0.5334c 0.7657,4.3426 1.5314,8.6852 2.2971 13.0277c 1.0084,-0.1778 2.0169,-0.3556 3.0253 -0.5334c 0.2145,1.2165 0.4290,2.4329 0.6435 3.6494c 17.3326,-3.0562 34.6652,-6.1124 51.9978 -9.1686c -0.2145,-1.2165 -0.4290,-2.4329 -0.6435 -3.6494c 1.0084,-0.1778 2.0169,-0.3556 3.0253 -0.5334c -0.7657,-4.3426 -1.5314,-8.6852 -2.2971 -13.0277c -1.0084,0.1778 -2.0169,0.3556 -3.0253 0.5334c -1.0958,-6.2146 -2.1916,-12.4291 -3.2874 -18.6437c 1.0084,-0.1778 2.0169,-0.3556 3.0253 -0.5335c -0.7657,-4.3426 -1.5314,-8.6852 -2.2971 -13.0277c -1.0084,0.1778 -2.0169,0.3556 -3.0253 0.5334c -0.2145,-1.2164 -0.4290,-2.4329 -0.6435 -3.6493c -17.3326,3.0562 -34.6652,6.1124 -51.9978 9.1686c 0.2145,1.2164 0.4290,2.4329 0.6435 3.6493c -1.0084,0.1778 -2.0169,0.3556 -3.0253 0.5334ZM 963.7211,664.3773 c 0.7657,4.3426 1.5314,8.6852 2.2971 13.0278c 1.0084,-0.1778 2.0169,-0.3556 3.0253 -0.5334c 1.0958,6.2146 2.1916,12.4291 3.2874 18.6437c -1.0084,0.1778 -2.0169,0.3556 -3.0253 0.5334c 0.7657,4.3426 1.5314,8.6852 2.2971 13.0278c 1.0084,-0.1778 2.0169,-0.3556 3.0253 -0.5334c 0.2145,1.2164 0.4290,2.4329 0.6435 3.6493c 17.3326,-3.0562 34.6652,-6.1124 51.9978 -9.1686c -0.2145,-1.2165 -0.4290,-2.4329 -0.6435 -3.6494c 1.0084,-0.1778 2.0169,-0.3556 3.0253 -0.5334c -0.7657,-4.3426 -1.5314,-8.6852 -2.2971 -13.0278c -1.0084,0.1778 -2.0169,0.3556 -3.0253 0.5334c -1.0958,-6.2146 -2.1916,-12.4291 -3.2874 -18.6437c 1.0084,-0.1778 2.0169,-0.3556 3.0253 -0.5334c -0.7657,-4.3426 -1.5314,-8.6852 -2.2971 -13.0278c -1.0084,0.1778 -2.0169,0.3556 -3.0253 0.5334c -0.2145,-1.2164 -0.4290,-2.4329 -0.6435 -3.6493c -17.3326,3.0562 -34.6652,6.1124 -51.9978 9.1686c 0.2145,1.2165 0.4290,2.4329 0.6435 3.6493c -1.0084,0.1778 -2.0169,0.3556 -3.0253 0.5334ZM 976.1909,735.0974 c 0.7657,4.3426 1.5314,8.6852 2.2972 13.0277c 1.0084,-0.1778 2.0169,-0.3556 3.0253 -0.5334c 1.0958,6.2146 2.1916,12.4291 3.2874 18.6437c -1.0084,0.1778 -2.0169,0.3556 -3.0253 0.5334c 0.7657,4.3426 1.5314,8.6852 2.2971 13.0278c 1.0084,-0.1778 2.0169,-0.3556 3.0253 -0.5334c 0.2145,1.2164 0.4290,2.4329 0.6435 3.6493c 17.3326,-3.0562 34.6652,-6.1124 51.9978 -9.1686c -0.2145,-1.2164 -0.4290,-2.4329 -0.6435 -3.6493c 1.0084,-0.1778 2.0169,-0.3556 3.0253 -0.5334c -0.7657,-4.3426 -1.5314,-8.6852 -2.2971 -13.0278c -1.0084,0.1778 -2.0169,0.3556 -3.0253 0.5334c -1.0958,-6.2146 -2.1916,-12.4291 -3.2874 -18.6437c 1.0084,-0.1778 2.0169,-0.3556 3.0253 -0.5334c -0.7657,-4.3426 -1.5314,-8.6852 -2.2971 -13.0278c -1.0084,0.1778 -2.0169,0.3556 -3.0253 0.5335c -0.2145,-1.2165 -0.4290,-2.4329 -0.6435 -3.6494c -17.3326,3.0562 -34.6652,6.1124 -51.9978 9.1686c 0.2145,1.2165 0.4290,2.4329 0.6435 3.6494c -1.0084,0.1778 -2.0169,0.3556 -3.0253 0.5334ZM 1010.1577,514.1895 c 0.7657,4.3426 1.5314,8.6852 2.2971 13.0278c 1.0084,-0.1778 2.0169,-0.3556 3.0253 -0.5334c 1.0958,6.2146 2.1916,12.4291 3.2874 18.6437c -1.0084,0.1778 -2.0169,0.3556 -3.0253 0.5334c 0.7657,4.3426 1.5314,8.6852 2.2971 13.0277c 1.0084,-0.1778 2.0169,-0.3556 3.0253 -0.5334c 0.2145,1.2165 0.4290,2.4329 0.6435 3.6494c 17.3326,-3.0562 34.6652,-6.1124 51.9978 -9.1686c -0.2145,-1.2165 -0.4290,-2.4329 -0.6435 -3.6494c 1.0084,-0.1778 2.0169,-0.3556 3.0253 -0.5334c -0.7657,-4.3426 -1.5314,-8.6852 -2.2971 -13.0277c -1.0084,0.1778 -2.0169,0.3556 -3.0253 0.5334c -1.0958,-6.2146 -2.1916,-12.4291 -3.2874 -18.6437c 1.0084,-0.1778 2.0169,-0.3556 3.0253 -0.5334c -0.7657,-4.3426 -1.5314,-8.6852 -2.2971 -13.0277c -1.0084,0.1778 -2.0169,0.3556 -3.0253 0.5334c -0.2145,-1.2164 -0.4290,-2.4329 -0.6435 -3.6493c -17.3326,3.0562 -34.6652,6.1124 -51.9978 9.1686c 0.2145,1.2164 0.4290,2.4329 0.6435 3.6493c -1.0084,0.1778 -2.0169,0.3556 -3.0253 0.5334ZM 1022.6276,584.9095 c 0.7657,4.3426 1.5314,8.6852 2.2971 13.0278c 1.0084,-0.1778 2.0169,-0.3556 3.0253 -0.5334c 1.0958,6.2146 2.1916,12.4291 3.2874 18.6437c -1.0084,0.1778 -2.0169,0.3556 -3.0253 0.5334c 0.7657,4.3426 1.5314,8.6852 2.2971 13.0278c 1.0084,-0.1778 2.0169,-0.3556 3.0253 -0.5335c 0.2145,1.2165 0.4290,2.4329 0.6435 3.6494c 17.3326,-3.0562 34.6652,-6.1124 51.9978 -9.1686c -0.2145,-1.2165 -0.4290,-2.4329 -0.6435 -3.6494c 1.0084,-0.1778 2.0169,-0.3556 3.0253 -0.5334c -0.7657,-4.3426 -1.5314,-8.6852 -2.2971 -13.0277c -1.0084,0.1778 -2.0169,0.3556 -3.0253 0.5334c -1.0958,-6.2146 -2.1916,-12.4291 -3.2874 -18.6437c 1.0084,-0.1778 2.0169,-0.3556 3.0253 -0.5334c -0.7657,-4.3426 -1.5314,-8.6852 -2.2971 -13.0278c -1.0084,0.1778 -2.0169,0.3556 -3.0253 0.5334c -0.2145,-1.2164 -0.4290,-2.4329 -0.6435 -3.6493c -17.3326,3.0562 -34.6652,6.1124 -51.9978 9.1686c 0.2145,1.2164 0.4290,2.4329 0.6435 3.6493c -1.0084,0.1778 -2.0169,0.3556 -3.0253 0.5334ZM 1035.0974,655.6296 c 0.7657,4.3426 1.5314,8.6852 2.2971 13.0277c 1.0084,-0.1778 2.0169,-0.3556 3.0253 -0.5334c 1.0958,6.2146 2.1916,12.4291 3.2874 18.6437c -1.0084,0.1778 -2.0169,0.3556 -3.0253 0.5334c 0.7657,4.3426 1.5314,8.6852 2.2971 13.0278c 1.0084,-0.1778 2.0169,-0.3556 3.0253 -0.5334c 0.2145,1.2164 0.4290,2.4329 0.6435 3.6493c 17.3326,-3.0562 34.6652,-6.1124 51.9978 -9.1686c -0.2145,-1.2165 -0.4290,-2.4329 -0.6435 -3.6493c 1.0084,-0.1778 2.0169,-0.3556 3.0253 -0.5334c -0.7657,-4.3426 -1.5314,-8.6852 -2.2971 -13.0278c -1.0084,0.1778 -2.0169,0.3556 -3.0253 0.5334c -1.0958,-6.2146 -2.1916,-12.4291 -3.2874 -18.6437c 1.0084,-0.1778 2.0169,-0.3556 3.0253 -0.5334c -0.7657,-4.3426 -1.5314,-8.6852 -2.2971 -13.0278c -1.0084,0.1778 -2.0169,0.3556 -3.0253 0.5334c -0.2145,-1.2164 -0.4290,-2.4329 -0.6435 -3.6493c -17.3326,3.0562 -34.6652,6.1124 -51.9978 9.1686c 0.2145,1.2165 0.4290,2.4329 0.6435 3.6494c -1.0084,0.1778 -2.0169,0.3556 -3.0253 0.5334ZM 1047.5673,726.3496 c 0.7657,4.3426 1.5314,8.6852 2.2971 13.0277c 1.0084,-0.1778 2.0169,-0.3556 3.0253 -0.5334c 1.0958,6.2146 2.1916,12.4291 3.2874 18.6437c -1.0084,0.1778 -2.0169,0.3556 -3.0253 0.5334c 0.7657,4.3426 1.5314,8.6852 2.2971 13.0277c 1.0084,-0.1778 2.0169,-0.3556 3.0253 -0.5334c 0.2145,1.2164 0.4290,2.4329 0.6435 3.6493c 17.3326,-3.0562 34.6652,-6.1124 51.9978 -9.1686c -0.2145,-1.2164 -0.4290,-2.4329 -0.6435 -3.6493c 1.0084,-0.1778 2.0169,-0.3556 3.0253 -0.5334c -0.7657,-4.3426 -1.5314,-8.6852 -2.2971 -13.0278c -1.0084,0.1778 -2.0169,0.3556 -3.0253 0.5334c -1.0958,-6.2146 -2.1916,-12.4291 -3.2874 -18.6437c 1.0085,-0.1778 2.0169,-0.3556 3.0253 -0.5334c -0.7657,-4.3426 -1.5314,-8.6852 -2.2971 -13.0277c -1.0084,0.1778 -2.0169,0.3556 -3.0253 0.5334c -0.2145,-1.2165 -0.4290,-2.4329 -0.6435 -3.6494c -17.3326,3.0562 -34.6652,6.1124 -51.9978 9.1686c 0.2145,1.2165 0.4290,2.4329 0.6435 3.6494c -1.0085,0.1778 -2.0169,0.3556 -3.0253 0.5334ZM 1082.8942,477.3047 c 0.0000,3.1311 2.5382,5.6693 5.6693 5.6693c 3.1310,-0.0000 5.6693,-2.5383 5.6693 -5.6693c 0.0000,-3.1310 -2.5383,-5.6693 -5.6693 -5.6693c -3.1311,-0.0000 -5.6693,2.5383 -5.6693 5.6693ZM 1136.3675,773.0077 c 0.0000,3.1311 2.5383,5.6693 5.6693 5.6693c 3.1311,-0.0000 5.6693,-2.5382 5.6693 -5.6693c 0.0000,-3.1311 -2.5382,-5.6693 -5.6693 -5.6693c -3.1310,-0.0000 -5.6693,2.5382 -5.6693 5.6693Z"/></g><g stroke-linejoin="miter" stroke-opacity="1.0" fill-opacity="0.5" stroke="rgb(0,0,0)" stroke-width="0.37795275590551186" fill="rgb(255,0,0)" stroke-linecap="butt" stroke-miterlimit="10.0"><path d="M 516.9408,215.7217 c 0.0016,-12.9099 3.6924,-24.9414 10.0743 -35.1128c 1.4990,-0.0523 2.9980,-0.1047 4.4970 -0.1570c -6.3614,9.2858 -10.2801,20.3768 -10.8299 32.3468c -1.2471,0.9744 -2.4942,1.9487 -3.7413 2.9231ZM 517.0949,220.2643 c 1.1818,-0.9233 2.3636,-1.8466 3.5453 -2.7699c 0.1608,5.7431 1.0967,11.2923 2.7069 16.5468c 9.5583,-6.9445 19.1166,-13.8890 28.6749 -20.8336c 2.6889,-0.8737 5.3778,-1.7473 8.0667 -2.6210c 1.8335,-0.5957 3.6671,-1.1915 5.5006 -1.7873c 0.0000,1.7655 0.0000,3.5310 0.0000 5.2965c 0.0000,2.8439 0.0000,5.6878 0.0000 8.5317c -0.5919,-0.1923 -1.1838,-0.3847 -1.7757 -0.5770c -0.5840,-1.7973 -1.1679,-3.5945 -1.7519 -5.3917c -4.8841,3.5485 -9.7683,7.0971 -14.6524 10.6456c 4.9124,-0.0000 9.8249,-0.0000 14.7373 -0.0000c 1.1476,0.3729 2.2951,0.7457 3.4427 1.1186c 0.0000,2.5249 0.0000,5.0497 0.0000 7.5746c -13.8690,-0.0000 -27.7380,-0.0000 -41.6070 -0.0000c 1.7148,4.9974 4.0456,9.7087 6.9018 14.0431c -0.4361,1.5208 -0.8721,3.0415 -1.3082 4.5623c -7.1105,-9.7663 -11.6123,-21.5539 -12.4811 -34.3386ZM 529.5619,176.8432 c 7.2452,-9.9588 17.2023,-17.8176 28.7862 -22.4915c 1.2426,0.8381 2.4852,1.6763 3.7278 2.5144c -5.3294,1.9026 -10.3245,4.5086 -14.8737 7.7062c 9.5551,6.9422 19.1102,13.8844 28.6652 20.8265c 1.6618,2.2873 3.3237,4.5746 4.9855 6.8619c 1.1332,1.5597 2.2664,3.1194 3.3996 4.6791c -1.6791,0.5456 -3.3581,1.0911 -5.0372 1.6367c -2.7047,0.8788 -5.4094,1.7576 -8.1141 2.6364c 0.0000,-0.6224 0.0000,-1.2448 0.0000 -1.8671c 1.5288,-1.1108 3.0577,-2.2215 4.5865 -3.3323c -4.8841,-3.5485 -9.7683,-7.0970 -14.6524 -10.6456c 1.5180,4.6720 3.0360,9.3440 4.5541 14.0160c 0.0000,1.2066 0.0000,2.4133 0.0000 3.6199c -2.4013,0.7802 -4.8026,1.5604 -7.2039 2.3407c -4.2843,-13.1857 -8.5686,-26.3714 -12.8529 -39.5571c -4.1795,3.1485 -7.9511,6.8096 -11.2212 10.8899c -1.5832,0.0553 -3.1663,0.1106 -4.7495 0.1659ZM 532.3727,258.1805 c 0.4130,-1.4402 0.8259,-2.8804 1.2389 -4.3205c 7.0206,9.0913 16.4913,16.1939 27.4231 20.3184c 0.5415,1.4878 1.0830,2.9756 1.6245 4.4634c -11.9448,-3.8739 -22.4002,-11.0543 -30.2865 -20.4613ZM 562.6170,152.7988 c 6.4443,-2.0948 13.3227,-3.2271 20.4656 -3.2271c 5.5379,-0.0000 10.9169,0.6806 16.0578 1.9627c 0.5125,1.4080 1.0250,2.8161 1.5374 4.2241c -5.5808,-1.6352 -11.4856,-2.5123 -17.5952 -2.5123c -5.7210,-0.0000 -11.2624,0.7691 -16.5265 2.2095c -1.3130,-0.8857 -2.6261,-1.7713 -3.9391 -2.6570ZM 565.4873,275.6683 c 5.2654,1.5427 10.8192,2.4107 16.5613 2.5039c -3.6492,-11.2310 -7.2983,-22.4619 -10.9475 -33.6929c 0.0000,-2.8273 0.0000,-5.6545 0.0000 -8.4818c 0.0000,-1.9279 0.0000,-3.8558 0.0000 -5.7837c 1.6791,0.5456 3.3581,1.0911 5.0372 1.6367c 2.7047,0.8788 5.4094,1.7576 8.1141 2.6364c -0.3658,0.5035 -0.7316,1.0070 -1.0975 1.5105c -1.8897,-0.0000 -3.7795,-0.0000 -5.6692 -0.0000c 1.8656,5.7416 3.7311,11.4833 5.5967 17.2249c 1.5180,-4.6720 3.0360,-9.3440 4.5541 -14.0160c 0.7092,-0.9762 1.4185,-1.9524 2.1277 -2.9286c 2.4013,0.7802 4.8026,1.5604 7.2039 2.3407c -4.2839,13.1846 -8.5678,26.3691 -12.8518 39.5537c 5.3550,-0.0869 10.5463,-0.8476 15.4926 -2.2011c 1.3130,0.8857 2.6261,1.7713 3.9391 2.6570c -6.4443,2.0948 -13.3227,3.2271 -20.4656 3.2271c -5.5379,-0.0000 -10.9169,-0.6806 -16.0578 -1.9627c -0.5125,-1.4080 -1.0250,-2.8161 -1.5374 -4.2241ZM 571.1011,207.0084 c 2.5586,-0.8313 5.1172,-1.6627 7.6758 -2.4940c -2.5586,1.8589 -5.1172,3.7179 -7.6758 5.5768c 0.0000,-1.0276 0.0000,-2.0552 -0.0000 -3.0828ZM 571.1011,216.3476 c 0.9773,3.0078 1.9546,6.0156 2.9319 9.0234c -0.9773,-0.3175 -1.9546,-0.6351 -2.9319 -0.9526c 0.0000,-2.6903 0.0000,-5.3805 -0.0000 -8.0708ZM 579.9832,227.3043 c 3.1626,-0.0000 6.3252,-0.0000 9.4878 -0.0000c -0.6040,0.8313 -1.2080,1.6627 -1.8120 2.4940c -2.5586,-0.8313 -5.1172,-1.6627 -7.6758 -2.4940ZM 584.7271,202.5811 c 0.9773,-0.3175 1.9546,-0.6351 2.9319 -0.9526c 1.5813,2.1765 3.1626,4.3529 4.7439 6.5294c -2.5586,-1.8589 -5.1172,-3.7179 -7.6758 -5.5768ZM 585.3121,189.0210 c 11.2169,-8.1496 22.4338,-16.2991 33.6507 -24.4487c -4.2517,-2.9885 -8.8929,-5.4602 -13.8325 -7.3239c -0.5415,-1.4878 -1.0830,-2.9756 -1.6245 -4.4634c 11.9448,3.8739 22.4002,11.0543 30.2865 20.4613c -0.4130,1.4402 -0.8259,2.8803 -1.2389 4.3205c -3.4279,-4.4390 -7.4400,-8.4038 -11.9210 -11.7794c -3.6495,11.2321 -7.2991,22.4642 -10.9486 33.6963c -1.6618,2.2873 -3.3237,4.5746 -4.9855 6.8619c -1.1332,1.5597 -2.2664,3.1194 -3.3996 4.6791c -1.0377,-1.4283 -2.0754,-2.8566 -3.1132 -4.2849c -1.6716,-2.3008 -3.3432,-4.6015 -5.0148 -6.9023c 0.5919,-0.1923 1.1838,-0.3846 1.7757 -0.5770c 1.5288,1.1108 3.0577,2.2215 4.5865 3.3323c 1.8656,-5.7416 3.7311,-11.4833 5.5967 -17.2249c -3.9742,2.8874 -7.9485,5.7749 -11.9227 8.6623c -1.1476,0.3729 -2.2952,0.7457 -3.4428 1.1186c -1.4841,-2.0426 -2.9681,-4.0853 -4.4522 -6.1279ZM 593.1484,222.2428 c 0.9773,-3.0078 1.9546,-6.0156 2.9319 -9.0234c 0.6040,0.8313 1.2080,1.6627 1.8120 2.4940c -1.5813,2.1765 -3.1626,4.3529 -4.7439 6.5294ZM 593.1708,231.5892 c 1.0377,-1.4283 2.0754,-2.8566 3.1132 -4.2849c 1.6716,-2.3008 3.3432,-4.6015 5.0148 -6.9023c 0.3658,0.5035 0.7317,1.0070 1.0975 1.5105c -0.5840,1.7973 -1.1679,3.5945 -1.7519 5.3917c 6.0371,-0.0000 12.0742,-0.0000 18.1113 -0.0000c -3.9742,-2.8874 -7.9485,-5.7749 -11.9227 -8.6623c -0.7092,-0.9762 -1.4185,-1.9524 -2.1277 -2.9286c 1.4841,-2.0427 2.9682,-4.0853 4.4522 -6.1280c 11.2201,8.1519 22.4403,16.3038 33.6604 24.4557c 1.5040,-4.9079 2.4197,-10.0729 2.6650 -15.4130c 1.2471,-0.9744 2.4942,-1.9487 3.7413 -2.9231c 0.0000,0.0028 0.0000,0.0055 0.0000 0.0083c 0.0000,12.8965 -3.6910,24.9309 -10.0743 35.1045c -1.4990,0.0523 -2.9980,0.1047 -4.4970 0.1570c 3.1437,-4.5889 5.6909,-9.6186 7.5297 -14.9774c -11.8149,-0.0000 -23.6297,-0.0000 -35.4446 -0.0000c -2.6889,-0.8737 -5.3778,-1.7474 -8.0667 -2.6210c -1.8335,-0.5958 -3.6671,-1.1915 -5.5006 -1.7873ZM 604.0891,274.5607 c 11.0095,-3.9304 20.5929,-10.8627 27.7645 -19.8112c 1.5832,-0.0553 3.1663,-0.1106 4.7495 -0.1659c -7.2452,9.9588 -17.2023,17.8176 -28.7862 22.4915c -1.2426,-0.8381 -2.4852,-1.6763 -3.7278 -2.5144ZM 635.2809,181.3862 c 0.4361,-1.5208 0.8721,-3.0415 1.3082 -4.5623c 7.1105,9.7663 11.6123,21.5539 12.4811 34.3386c -1.1818,0.9233 -2.3636,1.8466 -3.5453 2.7699c -0.3360,-12.0025 -4.0577,-23.1583 -10.2440 -32.5462ZM 3.9685,323.6241 c 0.0000,7.4653 5.1229,14.1606 12.6287 15.9269c 139.1905,32.7544 278.3810,65.5088 417.5716 98.2632c 1.2295,0.2893 2.4884,0.4354 3.7516 0.4354c 48.3874,-0.0000 96.7748,-0.0000 145.1622 0.0000c 48.3874,-0.0000 96.7748,-0.0000 145.1622 0.0000c 1.2632,-0.0000 2.5220,-0.1461 3.7516 -0.4354c 139.1906,-32.7544 278.3811,-65.5088 417.5716 -98.2632c 7.5057,-1.7663 12.6287,-8.4615 12.6287 -15.9269c 0.0000,-0.9437 -0.0818,-1.8997 -0.2511 -2.8596c -17.8244,-101.0874 -35.6488,-202.1747 -53.4733 -303.2620c -1.3802,-7.8274 -8.1810,-13.5340 -16.1291 -13.5340c -108.3407,-0.0000 -216.6815,-0.0000 -325.0223 0.0000c -3.9059,-0.0000 -7.6832,1.3959 -10.6505 3.9359c -46.6648,39.9454 -107.3449,64.0955 -173.5877 64.0955c -66.2428,-0.0000 -126.9230,-24.1502 -173.5877 -64.0955c -2.9673,-2.5400 -6.7446,-3.9359 -10.6505 -3.9359c -108.3408,-0.0000 -216.6816,-0.0000 -325.0223 0.0000c -7.9481,-0.0000 -14.7490,5.7066 -16.1291 13.5340c -17.8244,101.0874 -35.6488,202.1747 -53.4733 303.2620c -0.1693,0.9599 -0.2511,1.9159 -0.2511 2.8596ZM 18.4590,319.8290 c 0.0000,-3.1311 2.5382,-5.6693 5.6693 -5.6693c 3.1310,-0.0000 5.6693,2.5382 5.6693 5.6693c 0.0000,3.1311 -2.5383,5.6693 -5.6693 5.6693c -3.1311,-0.0000 -5.6693,-2.5382 -5.6693 -5.6693ZM 38.6813,320.6359 c -0.0000,-0.2179 0.0189,-0.4387 0.0581 -0.6607c 4.1566,-23.5734 8.3132,-47.1467 12.4699 -70.7200c 0.1575,-0.8933 0.3150,-1.7866 0.4725 -2.6799c 3.9991,-22.6800 7.9982,-45.3601 11.9973 -68.0401c 0.1575,-0.8933 0.3151,-1.7866 0.4726 -2.6799c 3.9991,-22.6801 7.9982,-45.3601 11.9973 -68.0402c 0.1575,-0.8933 0.3151,-1.7866 0.4726 -2.6799c 4.1566,-23.5734 8.3132,-47.1467 12.4699 -70.7201c 0.3625,-2.0556 2.3227,-3.4283 4.3784 -3.0658c 22.3326,3.9378 44.6653,7.8757 66.9979 11.8136c 0.3625,-2.0557 2.3227,-3.4283 4.3784 -3.0658c 22.3326,3.9378 44.6653,7.8757 66.9979 11.8135c 0.4376,-2.4814 0.8751,-4.9628 1.3126 -7.4442c 0.3625,-2.0557 2.3227,-3.4283 4.3784 -3.0658c 22.3326,3.9378 44.6653,7.8757 66.9979 11.8135c 0.8751,-4.9628 1.7502,-9.9256 2.6252 -14.8884c 0.3625,-2.0557 2.3228,-3.4283 4.3784 -3.0658c 24.4666,4.3141 48.9333,8.6283 73.3999 12.9424c 1.8337,0.3233 3.1239,1.9180 3.1239 3.7177c 0.0000,0.2178 -0.0189,0.4387 -0.0580 0.6607c -1.0938,6.2035 -2.1877,12.4070 -3.2815 18.6105c 22.3326,3.9379 44.6653,7.8757 66.9979 11.8136c 1.8337,0.3233 3.1239,1.9180 3.1239 3.7177c 0.0000,0.2178 -0.0189,0.4387 -0.0580 0.6607c -0.8751,4.9628 -1.7502,9.9256 -2.6252 14.8884c 22.3326,3.9379 44.6653,7.8757 66.9979 11.8136c 1.8337,0.3233 3.1239,1.9180 3.1239 3.7177c 0.0000,0.2178 -0.0189,0.4387 -0.0581 0.6607c -4.1566,23.5733 -8.3132,47.1467 -12.4698 70.7200c -0.1575,0.8933 -0.3151,1.7866 -0.4726 2.6799c -3.9991,22.6800 -7.9982,45.3601 -11.9973 68.0401c -0.1575,0.8933 -0.3151,1.7866 -0.4726 2.6799c -1.7020,9.6527 -3.4040,19.3053 -5.1061 28.9580c 22.3326,3.9378 44.6653,7.8757 66.9979 11.8136c 1.8337,0.3233 3.1239,1.9180 3.1239 3.7177c 0.0000,0.2178 -0.0189,0.4387 -0.0580 0.6607c -4.3141,24.4666 -8.6283,48.9333 -12.9424 73.4000c -0.3625,2.0557 -2.3227,3.4283 -4.3784 3.0658c -22.3326,-3.9378 -44.6653,-7.8757 -66.9979 -11.8135c -1.8595,10.5460 -3.7191,21.0919 -5.5786 31.6379c -0.3625,2.0557 -2.3228,3.4283 -4.3784 3.0658c -24.4666,-4.3141 -48.9333,-8.6282 -73.3999 -12.9424c -1.8337,-0.3233 -3.1239,-1.9180 -3.1239 -3.7177c 0.0000,-0.2179 0.0189,-0.4387 0.0580 -0.6608c 0.8751,-4.9628 1.7502,-9.9256 2.6252 -14.8884c -22.3326,-3.9378 -44.6653,-7.8757 -66.9979 -11.8135c -1.8337,-0.3233 -3.1239,-1.9180 -3.1239 -3.7177c 0.0000,-0.2179 0.0189,-0.4387 0.0580 -0.6608c 1.0938,-6.2035 2.1877,-12.4070 3.2815 -18.6105c -20.1986,-3.5616 -40.3973,-7.1231 -60.5959 -10.6847c -0.8751,4.9628 -1.7502,9.9256 -2.6252 14.8884c -0.3625,2.0557 -2.3228,3.4283 -4.3784 3.0658c -22.3326,-3.9378 -44.6653,-7.8757 -66.9979 -11.8135c -0.4375,2.4814 -0.8751,4.9628 -1.3126 7.4442c -0.3625,2.0557 -2.3227,3.4283 -4.3784 3.0658c -22.3326,-3.9378 -44.6653,-7.8757 -66.9979 -11.8135c -0.3625,2.0557 -2.3227,3.4283 -4.3784 3.0658c -24.4666,-4.3141 -48.9333,-8.6282 -73.4000 -12.9424c -1.8337,-0.3233 -3.1239,-1.9180 -3.1239 -3.7177ZM 71.9322,24.1259 c 0.0000,-3.1310 2.5383,-5.6693 5.6693 -5.6693c 3.1311,-0.0000 5.6693,2.5383 5.6693 5.6693c 0.0000,3.1311 -2.5382,5.6693 -5.6693 5.6693c -3.1310,-0.0000 -5.6693,-2.5383 -5.6693 -5.6693ZM 432.2510,418.0922 c 0.0000,-3.1310 2.5382,-5.6693 5.6693 -5.6693c 3.1310,-0.0000 5.6693,2.5383 5.6693 5.6693c 0.0000,3.1311 -2.5383,5.6693 -5.6693 5.6693c -3.1311,-0.0000 -5.6693,-2.5382 -5.6693 -5.6693ZM 520.7203,80.8189 c 0.0000,-3.1311 2.5382,-5.6693 5.6693 -5.6693c 3.1310,-0.0000 5.6693,2.5382 5.6693 5.6693c 0.0000,3.1310 -2.5383,5.6693 -5.6693 5.6693c -3.1311,-0.0000 -5.6693,-2.5383 -5.6693 -5.6693ZM 604.3384,307.0728 c 0.0000,-1.7997 1.2902,-3.3944 3.1239 -3.7177c 22.3326,-3.9379 44.6653,-7.8757 66.9979 -11.8136c -1.7020,-9.6527 -3.4040,-19.3053 -5.1061 -28.9580c -0.1575,-0.8933 -0.3151,-1.7866 -0.4726 -2.6799c -3.9991,-22.6800 -7.9982,-45.3601 -11.9973 -68.0401c -0.1575,-0.8933 -0.3150,-1.7866 -0.4726 -2.6799c -4.1566,-23.5733 -8.3132,-47.1467 -12.4698 -70.7200c -0.0392,-0.2220 -0.0581,-0.4429 -0.0581 -0.6607c 0.0000,-1.7997 1.2902,-3.3944 3.1239 -3.7177c 22.3326,-3.9379 44.6653,-7.8757 66.9979 -11.8136c -0.8751,-4.9628 -1.7501,-9.9256 -2.6252 -14.8884c -0.0391,-0.2220 -0.0580,-0.4429 -0.0580 -0.6607c 0.0000,-1.7997 1.2902,-3.3944 3.1239 -3.7177c 22.3326,-3.9379 44.6653,-7.8757 66.9979 -11.8136c -1.0938,-6.2035 -2.1877,-12.4070 -3.2815 -18.6105c -0.0391,-0.2220 -0.0580,-0.4429 -0.0580 -0.6607c 0.0000,-1.7997 1.2902,-3.3944 3.1239 -3.7177c 24.4666,-4.3141 48.9333,-8.6283 73.3999 -12.9424c 2.0557,-0.3625 4.0160,1.0101 4.3784 3.0658c 0.8751,4.9628 1.7501,9.9256 2.6252 14.8884c 22.3326,-3.9378 44.6653,-7.8757 66.9979 -11.8135c 2.0557,-0.3625 4.0159,1.0101 4.3784 3.0658c 0.4375,2.4814 0.8751,4.9628 1.3126 7.4442c 22.3326,-3.9378 44.6653,-7.8757 66.9979 -11.8135c 2.0557,-0.3625 4.0160,1.0101 4.3784 3.0658c 22.3326,-3.9379 44.6653,-7.8757 66.9979 -11.8136c 2.0557,-0.3625 4.0160,1.0101 4.3784 3.0658c 4.1566,23.5734 8.3133,47.1467 12.4699 70.7201c 0.1575,0.8933 0.3150,1.7866 0.4726 2.6799c 3.9991,22.6801 7.9982,45.3601 11.9973 68.0402c 0.1575,0.8933 0.3150,1.7866 0.4726 2.6799c 3.9991,22.6800 7.9982,45.3601 11.9973 68.0401c 0.1575,0.8933 0.3150,1.7866 0.4725 2.6799c 4.1566,23.5733 8.3133,47.1467 12.4699 70.7200c 0.0392,0.2220 0.0581,0.4428 0.0581 0.6607c 0.0000,1.7997 -1.2902,3.3944 -3.1239 3.7177c -24.4667,4.3141 -48.9333,8.6283 -73.4000 12.9424c -2.0557,0.3625 -4.0160,-1.0101 -4.3784 -3.0658c -22.3326,3.9378 -44.6653,7.8757 -66.9979 11.8135c -2.0557,0.3625 -4.0160,-1.0101 -4.3784 -3.0658c -0.4375,-2.4814 -0.8751,-4.9628 -1.3126 -7.4442c -22.3326,3.9378 -44.6653,7.8757 -66.9979 11.8135c -2.0557,0.3625 -4.0160,-1.0101 -4.3784 -3.0658c -0.8751,-4.9628 -1.7501,-9.9256 -2.6252 -14.8884c -20.1986,3.5616 -40.3973,7.1231 -60.5959 10.6847c 1.0938,6.2035 2.1877,12.4071 3.2815 18.6105c 0.0392,0.2220 0.0580,0.4429 0.0580 0.6608c 0.0000,1.7996 -1.2902,3.3944 -3.1239 3.7177c -22.3326,3.9378 -44.6653,7.8757 -66.9979 11.8135c 0.8751,4.9628 1.7502,9.9256 2.6252 14.8884c 0.0392,0.2220 0.0580,0.4429 0.0580 0.6608c 0.0000,1.7996 -1.2902,3.3944 -3.1239 3.7177c -24.4666,4.3141 -48.9333,8.6282 -73.3999 12.9424c -2.0557,0.3625 -4.0160,-1.0101 -4.3784 -3.0658c -1.8595,-10.5460 -3.7191,-21.0919 -5.5786 -31.6379c -22.3326,3.9378 -44.6653,7.8757 -66.9979 11.8135c -2.0557,0.3625 -4.0160,-1.0101 -4.3784 -3.0658c -4.3141,-24.4667 -8.6282,-48.9333 -12.9424 -73.4000c -0.0391,-0.2220 -0.0580,-0.4429 -0.0580 -0.6607ZM 634.1061,80.8189 c 0.0000,-3.1311 2.5383,-5.6693 5.6693 -5.6693c 3.1311,-0.0000 5.6693,2.5382 5.6693 5.6693c 0.0000,3.1310 -2.5382,5.6693 -5.6693 5.6693c -3.1310,-0.0000 -5.6693,-2.5383 -5.6693 -5.6693ZM 722.5754,418.0922 c 0.0000,-3.1310 2.5383,-5.6693 5.6693 -5.6693c 3.1311,-0.0000 5.6693,2.5383 5.6693 5.6693c 0.0000,3.1311 -2.5382,5.6693 -5.6693 5.6693c -3.1310,-0.0000 -5.6693,-2.5382 -5.6693 -5.6693ZM 1082.8942,24.1259 c 0.0000,-3.1310 2.5382,-5.6693 5.6693 -5.6693c 3.1310,-0.0000 5.6693,2.5383 5.6693 5.6693c 0.0000,3.1311 -2.5383,5.6693 -5.6693 5.6693c -3.1311,-0.0000 -5.6693,-2.5383 -5.6693 -5.6693ZM 1136.3675,319.8290 c 0.0000,-3.1311 2.5383,-5.6693 5.6693 -5.6693c 3.1311,-0.0000 5.6693,2.5382 5.6693 5.6693c 0.0000,3.1311 -2.5382,5.6693 -5.6693 5.6693c -3.1310,-0.0000 -5.6693,-2.5382 -5.6693 -5.6693Z"/></g></svg>